<svg data-name="Layer 1" xmlns="http://www.w3.org/2000/svg" width="634.387" height="584.35"><path d="M291.294 321.502c-.113 0-.184-.002-.21-.004l-13.564.002v-2h13.614c.315.01 6.746.192 12.67-6.997 8.83-10.715 16.081-37.24.482-102.756-20.975-88.096-3.481-165.923 5.014-195.295A9.752 9.752 0 00299.917 2H97.342a9.796 9.796 0 00-7.9 4.021c-3.599 4.95-8.537 14.46-11.628 31.655l-1.968-.353c3.157-17.57 8.256-27.359 11.978-32.478A11.801 11.801 0 0197.341 0h202.576a11.753 11.753 0 0111.304 15.007c-8.45 29.22-25.854 106.644-4.99 194.277 15.82 66.438 8.215 93.537-.95 104.572-6.045 7.278-12.705 7.646-13.987 7.646z" fill="#e6e6e6"/><path d="M254.794 358.002c-.113 0-.184-.002-.21-.004L241.02 358v-2h13.614c.317.01 6.746.192 12.67-6.997 8.83-10.715 16.081-37.24.482-102.756-20.975-88.096-3.481-165.923 5.014-195.295a9.752 9.752 0 00-9.383-12.452H60.842a9.796 9.796 0 00-7.9 4.021c-3.599 4.95-8.537 14.46-11.627 31.655l-1.969-.353c3.157-17.57 8.256-27.359 11.978-32.478a11.801 11.801 0 019.518-4.845h202.575a11.753 11.753 0 0111.304 15.007c-8.45 29.22-25.854 106.644-4.99 194.277 15.82 66.438 8.215 93.537-.95 104.572-6.045 7.278-12.705 7.646-13.987 7.646z" fill="#ccc"/><path d="M218.294 394.502c-.113 0-.184-.002-.21-.004l-199.452.002a11.75 11.75 0 01-10.929-16.103c7.237-18.08 16.981-61.459.932-148.839-18.952-103.18-1.985-140.47 6.189-151.713A11.801 11.801 0 0124.342 73h202.575a11.753 11.753 0 0111.304 15.007c-8.45 29.22-25.854 106.644-4.99 194.277 15.82 66.438 8.215 93.537-.95 104.572-6.045 7.278-12.705 7.646-13.987 7.646zM24.342 75a9.796 9.796 0 00-7.9 4.021c-8.023 11.035-24.652 47.757-5.84 150.176C25.934 312.67 18.498 356.81 9.56 379.14a9.587 9.587 0 00.977 9.064 9.763 9.763 0 008.095 4.295h199.502c.315.015 6.746.193 12.67-6.997 8.83-10.715 16.081-37.24.482-102.756-20.975-88.096-3.481-165.923 5.014-195.295A9.752 9.752 0 00226.917 75z" fill="#3f3d56"/><path d="M192.461 163h-159a8 8 0 110-16h159a8 8 0 010 16z" fill="#f98126"/><path d="M192.461 197h-159a8 8 0 110-16h159a8 8 0 010 16zm0 34h-159a8 8 0 110-16h159a8 8 0 010 16zm12 34h-159a8 8 0 110-16h159a8 8 0 010 16zm0 34h-159a8 8 0 110-16h159a8 8 0 010 16z" fill="#ccc"/><path d="M108.461 129h-75a8 8 0 110-16h75a8 8 0 010 16z" fill="#f98126"/><path d="M98.777 353.822c1.614-6.835 9.198-9.076 15.398-8.825a65.728 65.728 0 0111.61 1.837c3.985.891 7.93 1.947 11.856 3.066 7.198 2.053 14.323 4.536 21.64 6.141 6.091 1.336 12.71 2.12 18.785.275 5.84-1.773 10.794-6.126 12.383-12.144 1.497-5.672-.559-11.873-6.055-14.465-5.011-2.364-11.342-1.162-13.826 4.183-2.8 6.027-.002 12.6 4.432 16.96a49.668 49.668 0 008.238 6.258 30.676 30.676 0 009.864 4.418c5.785 1.235 12.676-.585 15.66-6.112a10.33 10.33 0 001.171-4.037c.177-1.922-2.824-1.91-3 0-.505 5.503-6.95 8.08-11.77 7.477a23.924 23.924 0 01-9.125-3.542 53.472 53.472 0 01-7.559-5.333c-4.087-3.537-7.92-9.359-5.174-14.879 2.236-4.495 8.063-4.45 11.608-1.551 4.292 3.51 3.527 9.882.696 14.051-3.135 4.617-8.817 6.552-14.174 6.76-5.821.227-11.594-1.108-17.157-2.688-6.912-1.963-13.756-4.16-20.702-6.008-3.943-1.05-7.917-1.996-11.931-2.733a39.377 39.377 0 00-11.57-.8c-6.26.722-12.65 4.366-14.191 10.893-.444 1.878 2.448 2.679 2.893.798z" fill="#3f3d56"/><path d="M405.276 523.44a458.031 458.031 0 004.318 58.855c.095.685.198 1.37.293 2.055l184.402-1.03a75.804 75.804 0 001.59-2.066 87.668 87.668 0 004.817-7.13c7.12-11.817 10.38-25.653 7.113-35.198l-.059-.149a16.75 16.75 0 00-3.269-5.68c-7.447-8.383-22.504-6.985-36.167-.22 12.255-13.414 22.014-30.342 22.755-45.452.727-14.738-6.98-25.267-15.338-34.214a84.782 84.782 0 00-.823-.871c-.133-.148-.274-.288-.407-.436-6.521-6.818-14.124-13.54-25.129-12.727-12.07.894-25.45 11.003-34.833 22.783-9.383 11.772-15.618 25.146-21.937 38.197-6.328 13.044-13.175 26.42-23.329 37.569 13.753-17.396 24.842-37.19 28.938-56.44s.492-37.737-11.766-46.804a28.669 28.669 0 00-12.557-5.067 32.793 32.793 0 00-1.612-.222c-11.347-1.29-24.895 2.634-36.422 12.014-12.694 10.329-21.495 25.64-25.874 40.177-4.378 14.535-4.845 28.529-4.704 42.056z" fill="#f2f2f2"/><path d="M525.923 583.701l3.526-.02q1.68-1.05 3.375-2.075c.7-.441 1.407-.866 2.115-1.3q17.545-10.715 35.308-20.556 17.748-9.849 35.674-18.79a1.478 1.478 0 00.85-1.69.426.426 0 00-.06-.123c-.166-.313-.538-.443-1.082-.176-1.466.735-2.94 1.47-4.406 2.221q-17.975 9.095-35.796 19.097-17.808 9.998-35.414 20.879c-.246.15-.493.308-.74.458-1.12.692-2.23 1.384-3.35 2.075zm-45.465.254l2.18-.012c.492-.688.976-1.376 1.467-2.064q17.332-24.305 34.656-48.609 28.371-39.79 56.725-79.579a1.404 1.404 0 00.245-.48c.162-.588-.27-.932-.823-.871a1.656 1.656 0 00-1.152.733q-15.906 22.314-31.804 44.612l-56.438 79.172c-1.196 1.675-2.393 3.359-3.589 5.034-.492.688-.984 1.376-1.467 2.064zm-48.576-12.662c.111 3.675.354 7.29.672 10.874l.185 2.055 2.288-.013c-.07-.685-.14-1.37-.202-2.055-.483-5.176-.826-10.41-.873-15.787a220.23 220.23 0 014.336-44.391 276.397 276.397 0 0113.428-46.12 316.724 316.724 0 0121.97-45.63 1.219 1.219 0 00.201-.81c-.094-.652-.962-.846-1.611-.223a1.894 1.894 0 00-.328.415q-1.583 2.722-3.108 5.46a316.505 316.505 0 00-21.028 45.79 275.09 275.09 0 00-12.518 46.189 217.271 217.271 0 00-3.412 44.246z" fill="#fff"/><path d="M209.005 354.533a2.5 2.5 0 011.362-4.41 41.289 41.289 0 0116.193 1.66l53.315 16.465a5.5 5.5 0 01-3.246 10.51l-53.315-16.465a41.292 41.292 0 01-14.31-7.76z" fill="#3f3d56"/><path d="M427.552 422.932a10.743 10.743 0 01-4.868-15.737l-9.139-47.791 23.292-1.816 1.406 46.747a10.8 10.8 0 01-10.691 18.597z" fill="#ffb8b8"/><path d="M412.108 398.267l-23.723-110.483a17.5 17.5 0 1134.22-7.346l23.723 110.481a4.506 4.506 0 01-3.455 5.345l-25.42 5.458a4.498 4.498 0 01-5.345-3.455z" fill="#f98126"/><path fill="#ffb8b8" d="M373.17 572.064h-12.259l-5.833-47.288 18.095.001-.003 47.287z"/><path d="M352.154 568.56h23.643v14.888h-38.53a14.887 14.887 0 0114.887-14.887z" fill="#2f2e41"/><path fill="#ffb8b8" d="M414.17 571.064h-12.259l-5.833-47.288 18.095.001-.003 47.287z"/><path d="M393.154 567.56h23.643v14.888h-38.53a14.887 14.887 0 0114.887-14.887zm-34.672-4.317a4.47 4.47 0 01-1.617-3.062L342.613 403.4a4.5 4.5 0 014.313-4.904l71.48-2.68a4.502 4.502 0 014.665 4.662l-5.714 156.176a4.508 4.508 0 01-4.09 4.317l-14.412 1.31a4.5 4.5 0 01-4.897-4.182l-6.615-99.217a1.436 1.436 0 00-1.496-1.4h-.006a1.437 1.437 0 00-1.492 1.412l-5.92 99.885a4.48 4.48 0 01-4.044 4.211l-12.59 1.26a4.47 4.47 0 01-3.313-1.008z" fill="#2f2e41"/><circle cx="385.977" cy="218.962" r="24.561" fill="#ffb8b8"/><path d="M338.679 404.463a4.462 4.462 0 01-1.053-3.679c4.535-27.561 1.979-68.074-.964-97.207a44.2 44.2 0 0118.241-40.301l12.827-10.995a4.57 4.57 0 013.058-1.082l31.866.91a4.483 4.483 0 013.053 1.318l4.924 10.904.051.037a44.07 44.07 0 0117.915 37.69l-4.69 96.937a4.524 4.524 0 01-4.347 4.28l-77.348 2.718-.15.002a4.49 4.49 0 01-3.383-1.532z" fill="#f98126"/><path d="M245.903 364.012a10.743 10.743 0 0112.366-10.883l39.865-27.898 11.19 20.508-42.077 20.416a10.8 10.8 0 01-21.344-2.143z" fill="#ffb8b8"/><path d="M279.452 368.861a4.473 4.473 0 01-2.946-1.785l-15.384-20.96a4.506 4.506 0 01.965-6.29l91.094-66.864a17.5 17.5 0 0120.71 28.216l-91.094 66.863a4.469 4.469 0 01-2.653.873 4.602 4.602 0 01-.692-.053z" fill="#f98126"/><path d="M387.234 240.827c3.257-3.994 2.9-10.077.287-14.518s-7.052-7.5-11.619-9.89-9.417-4.267-13.714-7.112-4.11-14.887-5.254-19.912l2.729.909c-1.049-1.342-1.385-5.307-2.434-6.649 3.084.305 5.455 3.233 8.538 3.538l-1.78-4.777c10.575-.652 17.15 6.696 27.724 6.044 5.24-.323 10.93-.527 15.236 2.473 3.743 2.608 5.638 7.12 6.88 11.51 2.67 9.423 3.085 19.978-1.525 28.62s-15.237 14.463-24.52 11.343z" fill="#2f2e41"/><path d="M252.387 584h381a1 1 0 000-2h-381a1 1 0 000 2z" fill="#3f3d56"/></svg>