<svg version="1.2" baseProfile="tiny-ps" xmlns="http://www.w3.org/2000/svg" width="1292" height="825"><style>.shp1{fill:#b2b6bb}.shp2{fill:#61656d}.shp3{fill:#21252b}.shp5{fill:#fff}.shp6{fill:#ddd}.shp8{fill:#00968a}.shp9{opacity:.2;fill:#000}.shp10{fill:#868a91}.shp11{fill:#966363}.shp12,.shp13{opacity:.302;fill:#000}.shp13{opacity:.149}.shp14{opacity:.302;fill:#fff}.shp15,.shp16{opacity:.4;fill:#000}.shp16{opacity:.502}.shp17{fill:#fc9d9d}.shp18{fill:#3f4249}.shp20{fill:none;stroke:#868a91;stroke-width:.569}.shp21{opacity:.4;fill:#fff}</style><path id="Layer" d="M433.3.9l643.9 78.9c16.2 2 30.5 11.4 38.7 25.5l168.2 289c5.2 8.9 7.6 19.1 7 29.4L1266.6 824H122.9L98.1 359.3c-.7-13.9 4.1-27.5 13.5-37.8L388.4 17.6A52.34 52.34 0 01433.3.9z" fill="#f4f4f4"/><path id="Layer" class="shp1" d="M1291.2 824.5H98.8c-.4 0-.8-.5-.8-1 0-.6.4-1 .8-1h1192.4c.4 0 .8.5.8 1s-.3 1-.8 1zM773.4 42.6v77.1h-1.9V42.4l1.9.2z"/><path id="Layer" class="shp2" d="M796.2 132.1l22.2 4.8c3.8.9 6.9 3.7 8.2 7.4l5.7 16.8H711.4l5.7-16.8c1.2-3.8 4.4-6.6 8.2-7.4l22.2-4.8c4.3-.9 7.7-4.3 8.6-8.7l5.5-26.3c1-4.8 5.2-8.3 10.2-8.3 4.9 0 9.2 3.5 10.2 8.3l5.5 26.3c.9 4.4 4.3 7.8 8.7 8.7z"/><path id="Layer" class="shp3" d="M810.1 135.1l8.3 1.8c3.8.9 6.9 3.7 8.2 7.4l5.7 16.8H818l-4.8-21.4c-.5-1.9-1.6-3.5-3.1-4.6zm-39.4-46.2c.4-.1.7-.1 1.1-.1 4.9 0 9.2 3.5 10.2 8.3l5.5 26.3c.7 3.2 2.7 5.9 5.5 7.5l-4.3-.9c-4.3-.9-7.7-4.3-8.6-8.7L774.6 95c-.5-2.5-1.9-4.6-3.9-6.1z"/><path id="Layer" d="M719.9 153.2h99.7" fill="none" stroke="#21252b" stroke-width="1.387"/><path id="Layer" class="shp5" d="M364.84 137.25h131.9v168h-131.9v-168z"/><path id="Layer" class="shp6" d="M382.44 154.15h96.7v134.2h-96.7v-134.2z"/><path id="Layer" d="M500.5 305.2h-3.8v-168h3.8v168z" fill="#dadddf"/><path id="Layer" class="shp8" d="M393.7 218.7c0-11.6 9.4-21 21-21s21 9.4 21 21-9.4 21-21 21-21-9.4-21-21z"/><path id="Layer" class="shp9" d="M427 273.4l21.8-33.8 21.9 34.2-43.7-.4zm-7.4-104.61h45.3v45.3h-45.3v-45.3z"/><path id="Layer" class="shp5" d="M988.1 224.3h-67.8V121.5h67.8v102.8z"/><path id="Layer" class="shp1" d="M988 121.53h2.2v102.8H988v-102.8zm-9.2 92.87h-49.3v-82.9h49.3v82.9z"/><path id="Layer" class="shp10" d="M929.5 177.4l28.3-12.8 21 49.8h-49.3v-37z"/><path id="Layer" class="shp6" d="M954.1 147.3c0-4.03 3.27-7.3 7.3-7.3 4.03 0 7.3 3.27 7.3 7.3 0 4.03-3.27 7.3-7.3 7.3-4.03 0-7.3-3.27-7.3-7.3z"/><path id="Layer" class="shp5" d="M1077.8 277.4H1010V174.6h67.8v102.8z"/><path id="Layer" class="shp1" d="M1077.71 174.62h2.2v102.8h-2.2v-102.8zm-9.21 92.88h-49.3v-82.9h49.3v82.9z"/><path id="Layer" class="shp10" d="M1068.5 267.5h-19.9l-14.5-65.9h34.4v65.9z"/><path id="Layer" class="shp8" d="M1019.2 214.6l10.6 28.8-10.6 10.3v-39.1z"/><path id="Layer" class="shp10" d="M544 822.5H386V517.4c0-5.9 4.8-10.7 10.7-10.7h136.6c5.9 0 10.7 4.8 10.7 10.7v305.1z"/><path id="Layer" class="shp1" d="M421.1 822.5h-70.4V517.4c0-5.9 4.8-10.7 10.7-10.7h49c5.9 0 10.7 4.8 10.7 10.7v305.1zM525.4 367c0-5.9 4.7-10.6 10.6-10.6h596.6v253.2H525.4V367z"/><path id="Layer" class="shp10" d="M525.42 608.05h559.7v1.5h-559.7v-1.5z"/><path id="Layer" class="shp1" d="M421.14 680.06v-70.4h607.4v70.4h-607.4z"/><path id="Layer" class="shp10" d="M1072.6 543.4V367c0-5.9 4.8-10.7 10.7-10.7h49c5.9 0 10.7 4.8 10.7 10.7v176.4c0 5.9-4.8 10.7-10.7 10.7h-49c-5.9 0-10.7-4.8-10.7-10.7z"/><path id="Layer" class="shp3" d="M664.9 279.2c0-9.83 7.97-17.8 17.8-17.8 9.83 0 17.8 7.97 17.8 17.8 0 9.83-7.97 17.8-17.8 17.8-9.83 0-17.8-7.97-17.8-17.8z"/><path id="Layer" class="shp8" d="M693.9 293c-4 3.2-9.3 4.7-14.8 3.6-9.6-2-15.8-11.4-13.9-21.1.1-.6.3-1.3.5-1.9 8.2.6 22.6 6.6 28.2 19.4z"/><path id="Layer" class="shp3" d="M683.8 314.1c17.1-.6 31.4 14.4 32.1 33.6.7 19.1-12.6 35.1-29.7 35.7-10.7.3-5.8-10.7-6.5-29.9-.7-19.2.9-22.9 4.1-39.4zm-42.7 70.83c-17.07-.17-30.76-13.79-30.6-30.41.17-16.62 14.14-29.96 31.21-29.78 17.06.17 30.76 13.79 30.59 30.41-.17 16.62-14.14 29.96-31.2 29.78z"/><path id="Layer" class="shp11" d="M715.9 395.4l-56.5 34-47.2-50.7 28.2 3.2c2.8.3 5.3-1.8 5.4-4.6l.5-7.5 2-31.2 31.2 1.8 5.6 40.8c.4 2.8 2.3 5 5 5.9l25.8 8.3z"/><path id="Layer" class="shp11" d="M630.2 348.1l-1.1-31.2c-.2-5.7 4.3-10.5 10-10.7l31.3-1.1c4.4-.2 8 3.3 8.2 7.7l1.1 33.5c.4 13.2-9.9 24.2-23.1 24.7l-1.8.1c-13.2.5-24.3-9.8-24.6-23z"/><path id="Layer" class="shp5" d="M653.5 354.8l-.9 1.3c-2.3 3.5-7.3 3.6-9.7.1l-1-1.5c-.2-.3 0-.7.4-.7h10.8c.3 0 .6.4.4.8z"/><path id="Layer" class="shp3" d="M652.9 337.5c0-1.44 1.16-2.6 2.6-2.6 1.44 0 2.6 1.16 2.6 2.6 0 1.44-1.16 2.6-2.6 2.6-1.44 0-2.6-1.16-2.6-2.6z"/><path id="Layer" class="shp5" d="M653.9 338.7c0-.33.27-.6.6-.6.33 0 .6.27.6.6 0 .33-.27.6-.6.6-.33 0-.6-.27-.6-.6z"/><path id="Layer" class="shp3" d="M632.9 339.4c0-1.44 1.16-2.6 2.6-2.6 1.44 0 2.6 1.16 2.6 2.6 0 1.44-1.16 2.6-2.6 2.6-1.44 0-2.6-1.16-2.6-2.6z"/><path id="Layer" class="shp5" d="M633.8 340.4c0-.33.27-.6.6-.6.33 0 .6.27.6.6 0 .33-.27.6-.6.6-.33 0-.6-.27-.6-.6z"/><g id="Layer" opacity=".302"><path id="Layer" class="shp12" d="M641.8 347c0-1.7 1.4-3.1 3.1-3.1.5 0 .8.3.8.8s-.4.8-.8.8c-.9 0-1.6.7-1.6 1.6 0 .9.7 1.6 1.6 1.6h3.5c.5 0 .8.3.8.8s-.4.8-.8.8h-3.5c-1.7 0-3.1-1.4-3.1-3.3z"/></g><path id="Layer" class="shp3" d="M619.9 333.1c3.6-2.9 1.8-7.9 1.8-7.9-.8-2.1-1.5-4.4-1.7-6.9-.8-8 3.3-11.4 5.5-12.6.8-.4 1.3-1.3 1.3-2.2-.2-25 33.3-33.5 52.3-20.1 11.5 8.1 14.7 18 14.5 27.4 0 0-.3 4.2 3.6 5.9l-4.5 2.3c-1.3 7.1-3.8 13.6-5.1 18.6-.6 2.2-5.1-6.3-7-7.1-.2-.1-1.7 2.4-2.7 4-.6 1-2.1 1-2.6-.1-1.6-4.1-2.5-8.5-2.7-12.9l-.1-4c-8.8-.6-12.7-8.6-12.7-8.6-7.8 10.2-22.3 10.3-28.2 9.8-1.4-.1-2.6 1-2.5 2.4l.5 15s-2.4-2-4.8-5.5l-3.7 3.1-1.2-.6z"/><path id="Layer" class="shp11" d="M676.7 347.8l1.6-12.4c2.1-11.4 16.1-9.2 13.6 2.1-2.5 11.3-13.9 10.3-13.9 10.3h-1.3z"/><path id="Layer" class="shp12" d="M688.5 332.6c-.2.4-.7.4-1 .2-.9-.6-1.6-.8-2.3-.7-.6.1-1.2.6-1.8 1.5-.7 1.1-1 3.2-1 3.6l-.1 1.3c0 1.1-1.6.8-1.5-.1l.1-1.2c0-1.6.5-3.2 1.3-4.4.8-1.2 1.7-2 2.8-2.2 1.1-.3 2.3.1 3.5.9.3.2.4.7 0 1.1z"/><path id="Layer" fill-rule="evenodd" class="shp5" d="M632.6 328.8c3.3 0 6.2 1.5 8.1 3.9 2.7-1.2 5.3-.7 6.4-.4 1.7-3.4 5.2-5.7 9.3-5.7 5.7 0 10.4 4.7 10.4 10.4s-4.7 10.4-10.4 10.4S646 342.7 646 337c0-1.2.2-2.3.6-3.4-1-.3-3-.6-5.1.3.9 1.6 1.5 3.4 1.5 5.4 0 5.7-4.7 10.4-10.4 10.4s-10.4-4.7-10.4-10.4c0-5.8 4.7-10.4 10.4-10.5zm23.8 17.3c5 0 9.1-4.1 9.1-9.1s-4.1-9.1-9.1-9.1-9.1 4.1-9.1 9.1 4.1 9 9.1 9.1zm-23.8 2.3c5 0 9.1-4.1 9.1-9.1s-4.1-9.1-9.1-9.1-9.1 4.1-9.1 9.1 4.1 9.1 9.1 9.1z"/><path id="Layer" class="shp8" d="M678.8 343.8a2.3 2.3 0 114.6 0 2.3 2.3 0 01-4.6 0z"/><path id="Layer" class="shp13" d="M680.3 345.7c1.4 0 2.5-1.1 2.5-2.5 0-.5-.1-.9-.4-1.3.6.4 1 1.1 1 1.9 0 1.3-1 2.3-2.3 2.3-.5 0-.9-.2-1.3-.4h.5z"/><path id="Layer" class="shp3" d="M633.8 322.5c-.1-.4.2-.7.6-.7 18.5-.8 25.3-12.9 25.4-13 .2-.4.6-.5.9-.3.4.2.5.6.3.9-.1.2-1.9 3.3-6 6.6-3.8 3.1-10.4 6.7-20.5 7.2-.4 0-.7-.3-.7-.7z"/><path id="Layer" class="shp13" d="M680.3 355.4l-3.8-7.6h3.2l.6 7.6zm-9.9 12.4c-2.1 1.5-5.5 3.3-10.2 4.2-2.3 2-6.4 4.7-11.7 5-.9.1-1.8.1-2.7 0l.5-7.1c2.9 1 6.1 1.4 9.4 1.2.9 0 1.8-.1 2.7-.2.3 0 .7-.1 1-.1h.2c.6-.1 1.1-.2 1.6-.3.2 0 .4-.1.6-.2 3.5-.9 6.1-2.4 7.8-3.5.3-.2.7-.1.9.2.3.2.2.6-.1.8z"/><path id="Layer" class="shp1" d="M437.3 581.3c-5.9-15.3 5.4-31.7 21.8-31.7h168.6l15.5 59.8H502.5c21.4 45.7 24.4 72.8 30.1 137.6l-28.5 7.1-66.8-172.8z"/><path id="Layer" class="shp8" d="M437.3 581.3c-5.9-15.3 5.4-31.7 21.8-31.7h168.6l15.5 59.8H502.5c21.4 45.7 24.4 72.8 30.1 137.6l-28.5 7.1-66.8-172.8z"/><path id="Layer" class="shp14" d="M437.3 581.3c-5.9-15.3 5.4-31.7 21.8-31.7h168.6l15.5 59.8H502.5c21.4 45.7 24.4 72.8 30.1 137.6l-28.5 7.1-66.8-172.8z"/><path id="Layer" class="shp9" d="M472.8 549.6h155l15.5 59.8H502.6C524 655.1 527 682.2 532.7 747h-13.9L460 568.9c-3.1-9.9 2.9-19.4 12.8-19.4v.1z"/><path id="Layer" class="shp8" d="M475.3 567.9c4.5-11.1 15.4-18.4 27.4-18.4h198.6l-.4 23.2c-.3 20.3-16.8 36.6-37.1 36.6H518.3c-16.3 50.6-26.3 77.3-68.5 137.4l-34.1-13.6 59.6-165.2z"/><path id="Layer" class="shp14" d="M475.3 567.9c4.5-11.1 15.4-18.4 27.4-18.4h198.6l-.4 23.2c-.3 20.3-16.8 36.6-37.1 36.6H518.3c-16.3 50.6-26.3 77.3-68.5 137.4l-34.1-13.6 59.6-165.2z"/><path id="Layer" class="shp9" d="M449.8 746.7l-12.3-4.9 56-150.3c4.6-11.1 15.4-18.4 27.4-18.4h94.8c11.9 0 23.5-3.6 33.3-10.2l52.2 10.2c-.5 20.1-16.9 36.2-37.1 36.2H518.4c-17.6 55.8-29.8 82.4-68.6 137.4z"/><path id="Layer" class="shp11" d="M445.6 753.2l-24.4 42.7c-2.2 3.2-3.4 7-3.6 10.9l-.1 3.2c-.3 4.6-4 8.5-8.7 8.6h-.1l-41.3.7h-.3c-.4.7-1.1 1.2-2 1.2-.6 0-1.2-.2-1.6-.6-.3-.3-.7-.3-1-.1-.6.4-1.4.7-2.1.7-.7 0-1.4-.3-1.8-.8-.3-.3-.7-.4-1-.1-.7.6-1.6 1-2.5 1-.9 0-1.7-.4-2.2-1-.1-.1-.2-.2-.3-.2h-.6c-.1 0-.1 0-.2.1-.7.7-1.7 1.1-2.6 1.1-1 0-1.9-.5-2.4-1.2 0 0-3.5-5.8-.5-6.8l31.1-10.4c6.2-2 10.1-3.4 13.6-8.8l22.9-52.4 31.7 12.2z"/><path id="Layer" class="shp13" d="M344.8 815c.9 0 1.8-.4 2.5-1 .3-.3.7-.2 1 .1.4.5 1.1.8 1.8.8s1.5-.3 2.1-.7c.3-.2.7-.2.9.1.4.4 1 .7 1.6.7.9 0 1.6-.5 2-1.2h.3l20.4-.3.6-11.6s4.4 6.7 10.5 11.5l9.8-.3c4-.1 7.5-1.6 9.2-4.7l24.4-46.1c1.1-2.2.6-4.8-1.2-6.4L413.4 741l31.5 12.2-24 42.2c-2.4 3.6-3.8 7.8-4 12.1l-.1 2.6c-.2 4.7-4 8.5-8.8 8.6l-41.3.7h-.3c-.4.7-1.1 1.2-2 1.2-.6 0-1.2-.3-1.6-.7-.2-.2-.7-.3-.9-.1-.6.4-1.4.7-2.1.7-.7 0-1.4-.3-1.8-.8-.3-.3-.7-.4-1-.1-.7.6-1.6 1-2.5 1-.9 0-1.7-.4-2.2-1-.1-.1-.2-.2-.3-.2h-.6c-.1 0-.2.1-.2.1-.7.6-1.7 1.1-2.6 1.1-1 0-1.8-.5-2.4-1.2.1 0-2.3-4.4-1.4-4.4z"/><path id="Layer" class="shp3" d="M339.9 818.4c.2-4.3 2.9-8.1 7-9.5l28.7-8.8c1.1-.4 2.2.2 2.5 1.3 1.1 3.6 3.8 11.5 9.2 17H416c1.1 0 2 .9 2 2s-.9 2-2 2h-74.1c-1.1 0-2-.9-2-2v-2z"/><path id="Layer" class="shp15" d="M339.9 818.4c.1-3.4 1.9-6.5 4.7-8.3-3.6 2.6.7 5.1 5.9 4.9 26.5-1.2 29.9-1.2 33-1.5-.1-.1-.1-.2-.1-.3 1.1 1.8 2.5 3.6 4 5.2H416c1.1 0 2 .9 2 2s-.9 2-2 2h-74.1c-1.1 0-2-.9-2-2v-2z"/><path id="Layer" class="shp15" d="M339.9 817.8h46.9l.6.6h-47.5v-.6z"/><path id="Layer" class="shp11" d="M533 746.8l7.6 49 3.2 10.2c1.4 4.8-.9 10-5.5 11.8-1.2.5-2.4.8-3.6.8h2.1l-43.5.7h-.3c-.4.7-1.1 1.2-2 1.2-.6 0-1.2-.2-1.6-.6-.3-.3-.7-.3-1-.1-.6.4-1.4.7-2.1.7-.7 0-1.4-.3-1.8-.8-.3-.3-.7-.4-1-.1-.7.6-1.6 1-2.5 1-.9 0-1.7-.4-2.2-1-.1-.1-.2-.2-.3-.2h-.6c-.1 0-.1 0-.2.1-.7.7-1.7 1.1-2.6 1.1-1 0-1.9-.5-2.4-1.2 0 0-3.5-5.8-.5-6.8l31.1-10.4c4.4-1.5 8.2-1.8 11.2-4 2.1-1.5 3-4.2 2.2-6.6l-14.9-43.5 31.2-1.3z"/><path id="Layer" class="shp13" d="M538.1 818c-1.2.5-2.4.8-3.6.8h2.1l-43.5.7h-.3c-.4.7-1.1 1.2-2 1.2-.6 0-1.2-.3-1.6-.7-.2-.3-.6-.3-.9-.1-.6.4-1.4.7-2.1.7-.7 0-1.4-.3-1.8-.8-.3-.3-.7-.4-1-.1-.7.6-1.6 1-2.5 1-.9 0-1.7-.4-2.2-1-.1-.1-.2-.2-.3-.2h-.6c-.1 0-.1 0-.2.1-.7.7-1.7 1.1-2.6 1.1-1 0-1.9-.5-2.4-1.2 0 0-.6-1-1.1-2.3.5-.2.9-.5 1.3-.8 0 0 .1-.1.2-.1h.6c.1 0 .2.1.3.2.5.6 1.3 1 2.2 1 .9 0 1.8-.4 2.5-1 .3-.3.7-.2 1 .1.4.5 1.1.8 1.8.8s1.5-.3 2.1-.7c.2-.2.7-.1.9.1.4.4 1 .7 1.6.7.9 0 1.6-.5 2-1.2h.3l43.5-.7h-2.1c1.2-.1 2.4-.3 3.6-.8 4.6-1.8 6.9-7.1 5.4-11.8l-3.2-10.2-9-29.3c-1.9-6.3-7.1-11.1-13.5-12.7l-10.8-2.6 30.5-1.2 7.6 49 3.2 10.2c1.5 4.7-.8 9.9-5.4 11.8z"/><path id="Layer" class="shp3" d="M465.8 818.4c.2-4.3 2.9-8.1 7-9.5l28.7-8.8c1.1-.4 2.2.2 2.5 1.3 1.1 3.6 3.8 11.5 9.2 17h28.6c1.1 0 2 .9 2 2s-.9 2-2 2h-74.1c-1.1 0-2-.9-2-2v-2h.1z"/><path id="Layer" class="shp15" d="M465.8 818.4c.1-3.4 1.9-6.5 4.7-8.3-3.6 2.6.7 5.1 5.9 4.9 26.5-1.2 29.9-1.2 33-1.5-.1-.1-.1-.2-.1-.3 1.1 1.8 2.5 3.6 4 5.2h28.6c1.1 0 2 .9 2 2s-.9 2-2 2h-74.1c-1.1 0-2-.9-2-2v-2z"/><path id="Layer" class="shp15" d="M465.8 817.8h46.9l.6.6h-47.5v-.6z"/><g id="Layer" opacity=".149"><path id="Layer" class="shp13" d="M528.6 809.1c-.4 0-.8-.5-.7-.9 0-.4.4-.8.9-.7 2.1.2 3.7-.4 4.5-1.7.8-1.2.7-3-.3-4.5-.3-.3-.2-.9.2-1.1.3-.3.9-.2 1.1.2 1.3 2 1.4 4.5.3 6.3-1 1.6-2.8 2.5-5 2.5-.4 0-.7-.1-1-.1z"/></g><g id="Layer" opacity=".149"><path id="Layer" class="shp13" d="M402.5 811.2c-.4 0-.8-.5-.7-.9 0-.4.4-.8.9-.7 2.1.2 3.7-.4 4.5-1.7.8-1.2.7-3-.3-4.5-.3-.3-.2-.9.2-1.1.3-.3.9-.2 1.1.2 1.3 2 1.4 4.5.3 6.3-1 1.6-2.8 2.5-5 2.5-.3 0-.7-.1-1-.1z"/></g><path id="Layer" class="shp9" d="M494 674.3s12.7-27.7 17.6-44.1c0 0 3.4 8.6 4.9 13.5 0 0-11.3 31.9-18.6 41.8l-3.9-11.2z"/><path id="Layer" class="shp3" d="M751.6 440.1l-3.1 7.8-32.6.5-10.1 57.4c-3.6 20.3-3 41.1 1.7 61.1l1.3 5.4c2.7 11.4-9.7 20.4-19.7 14.3l-30.9-18.7c-19.9-12-42.7-18.4-65.9-18.4h-6.2l16.6-24.3c6.2-9.1 9.8-19.7 10.3-30.7l1-21.2c.1-1.7-.3-3.4-1-5l-3.1-6.7c-4.6-9.7-4-21.1 1.4-30.3l10.3-17.4-4.3 7.3-34.6-13.2v-34.5l53.4 8 1 1.9c11.2 21.9 39.5 28.4 59.1 13.6l7.4-5.5 29.7 9.7c16.2 5.2 24.6 23 18.3 38.9z"/><path id="Layer" class="shp8" d="M637.7 496.6l-.5-.5c1.3-1.3 1.3-3.3 0-4.6l.5-.5c1.3 1.3 3.3 1.3 4.6 0l.5.5c-1.3 1.3-1.3 3.3 0 4.6l-.5.5c-1.3-1.3-3.3-1.3-4.6 0zm50.4 81.9l-.5-.5c1.3-1.3 1.3-3.3 0-4.6l.5-.5c1.3 1.3 3.3 1.3 4.6 0l.5.5c-1.3 1.3-1.3 3.3 0 4.6l-.5.5c-1.3-1.3-3.4-1.3-4.6 0zm-7-72.4l-.5-.5c1.3-1.3 1.3-3.3 0-4.6l.5-.5c1.3 1.3 3.3 1.3 4.6 0l.5.5c-1.3 1.3-1.3 3.3 0 4.6l-.5.5c-1.3-1.3-3.3-1.3-4.6 0zm-26.1 38l-.5-.5c1.3-1.3 1.3-3.3 0-4.6l.5-.5c1.3 1.3 3.3 1.3 4.6 0l.5.5c-1.3 1.3-1.3 3.3 0 4.6l-.5.5c-1.3-1.3-3.4-1.3-4.6 0zm53.6-90.9l-.5-.5c1.3-1.3 1.3-3.3 0-4.6l.5-.5c1.3 1.3 3.3 1.3 4.6 0l.5.5c-1.3 1.3-1.3 3.3 0 4.6l-.5.5c-1.2-1.3-3.3-1.3-4.6 0z"/><path id="Layer" class="shp3" d="M545 467.7c3.2-4.7 9.6-5.9 14.3-2.7l39.5 26.7c4.7 3.2 5.9 9.6 2.7 14.3-3.2 4.7-9.6 5.9-14.3 2.7L547.8 482c-4.7-3.2-5.9-9.6-2.8-14.3z"/><path id="Layer" class="shp3" d="M544.9 493.6c-3-.7-5.4-3-6.2-6l-4.8-18.1 21.5 5.6-.5 10.7c-.2 5.3-5 8.9-10 7.8zm45.6 31c-3-.7-5.4-3-6.2-6l-4.8-18.1 21.5 5.6-.5 10.7c-.2 5.2-5 8.9-10 7.8z"/><path id="Layer" class="shp16" d="M545 467.7c3.2-4.7 9.6-5.9 14.3-2.7l39.5 26.7c4.7 3.2 5.9 9.6 2.7 14.3-3.2 4.7-9.6 5.9-14.3 2.7L547.8 482c-4.7-3.2-5.9-9.6-2.8-14.3z"/><path id="Layer" class="shp16" d="M544.9 493.6c-3-.7-5.4-3-6.2-6l-4.8-18.1 21.5 5.6-.5 10.7c-.2 5.3-5 8.9-10 7.8zm45.6 31c-3-.7-5.4-3-6.2-6l-4.8-18.1 21.5 5.6-.5 10.7c-.2 5.2-5 8.9-10 7.8z"/><path id="Layer" class="shp3" d="M535.2 461c3.2-4.7 9.6-5.9 14.3-2.7l39.4 26.7c4.7 3.2 5.9 9.6 2.7 14.3-3.2 4.7-9.6 5.9-14.3 2.7l-39.4-26.7c-4.7-3.2-5.9-9.6-2.7-14.3z"/><path id="Layer" class="shp3" d="M592.2 483.2l5.5 3.7c1.3.9 1.7 2.7.8 4l-.3.4-10.2-6.9.3-.4c.8-1.4 2.6-1.7 3.9-.8z"/><path id="Layer" class="shp16" d="M598.1 491.3l-10.2-6.9.3-.4c0-.1.1-.2.2-.3l10.2 6.9c-.1.1-.1.2-.2.3l-.3.4z"/><path id="Layer" class="shp3" d="M553.4 456.9l5.5 3.7c1.3.9 1.7 2.7.8 4l-.3.4-10.2-6.9.3-.4c.9-1.3 2.6-1.7 3.9-.8z"/><path id="Layer" class="shp3" d="M553.4 456.9l5.5 3.7c1.3.9 1.7 2.7.8 4l-.3.4-10.2-6.9.3-.4c.9-1.3 2.6-1.7 3.9-.8z"/><path id="Layer" class="shp16" d="M559.7 464.6l-.3.4-10.2-6.9.3-.4c0-.1.1-.2.2-.3l10.2 6.9c-.1.1-.1.2-.2.3z"/><path id="Layer" class="shp16" d="M559.6 464.6l-.3.4-10.2-6.9 8.1 5.5.3-.4c.9-1.3.6-3-.6-3.9l2 1.3c1.4.9 1.7 2.7.7 4z"/><path id="Layer" class="shp3" d="M753.3 433.7l-5.4 27.6-37 3.7 5-32 10.5-14.3 26.9 15z"/><path id="Layer" class="shp11" d="M582.7 408l-48.6-16.1 11.9 42.6 21.7 21.6c.5.7.4 1.6-.3 2.2-2.3 1.8-5.6 1.9-8 .2l-3-2.1c-3.2-2.3-7.7-1.5-9.9 1.8l-4.8 7.8c-.9 1.5-1.2 3.3-.8 5l3.2 14.4c.3 1.4-.7 2.8-2.2 2.9-1.2.1-2.2-.7-2.5-1.8l-1.2-4.7h-1.6c-1.3 0-2.4-.7-3-1.9l-6.7-13.5c-.4-.8-.5-1.7-.4-2.5l2.9-21.2-29.8-66.9c-3.5-7.8 3.2-16.4 11.6-14.9l71.7 12.7V408h-.2z"/><path id="Layer" class="shp13" d="M536.7 481.7l-2-10c-.1-.4.2-.8.6-.9.4-.1.8.2.9.6l2 10.3h-1.5zm-5.9-7.5l-.9-4.5c-.1-.4.2-.8.6-.8.4-.1.8.2.9.6l1.7 9.3-2.3-4.6z"/><path id="Layer" class="shp12" d="M621.6 414.6l-4.3 6.6-34.6-13.2v-10.4l37.7 13.2c1.6.5 2.2 2.4 1.2 3.8z"/><path id="Layer" class="shp11" d="M647.9 503.7l-9.8 17.3-20.6-6.9-18.9 2.4c-4.5.6-9-.1-13-2.1l-10.8-5.3 22.1-.8-11.1 4.2-17.4-5.4c-1-.3-1.7-1.3-1.7-2.3 0-1.4 1.2-2.5 2.6-2.4l14.9 1.2c.7.1 1.3-.1 1.9-.4l13-7.3c1.2-.7 2-2 2.1-3.4 0-1.3-.5-2.6-1.5-3.4l-3.8-3.2c-2-1.7-2.8-4.5-1.9-7.1.3-.9 1.2-1.3 2-.9l12.3 5.6c1.2.5 2.2 1.3 3 2.3l10.1 12.5 26.5 5.4z"/><path id="Layer" class="shp13" d="M567.2 458.5c-2.9 2.2-5.9 1.7-8.4-.1l-2.6-1.9c-3.2-2.2-7.7-1.4-9.9 1.8l-5 8.2c-1.2 2.2-.6 4.5-.6 4.5v.1c.2.6.9 3.8.9 3.8l2.4 10.5v.1c.2.9-.1 1.7-.8 2.3-.2.2-.5.4-.8.5-.4.2-.9.2-1.5 0-.8-.4-1.4-1.1-1.6-2l-1.1-4.4h-1.6c-1.3 0-2.4-.8-3-1.9l-6.7-13.5c-.4-.7-.5-1.6-.4-2.5l1.6 3.2c.3.7 1 1.1 1.8 1.1.6 0 1.2.3 1.5.9l.1.1c.5 1 1.5 1.6 2.6 1.6h1.3l1.2.6c.8.4 1.9.1 2.4-.7-.5-3.6.2-5.5 2.5-8.6l4.4-6.5c2.9-3.9 8.5-4.7 12.3-1.5l4 3.3c1.5 1.2 3.5 1.5 5 1zm15.4-61v10.4l-47-15.5-1.5-.5-2.6-9.3c-.1-.1-1.7-6.8-1.7-6.8-.1-.5.2-.9.7-.9.3 0 .6.2.7.5l1.7 6.5 49.8 15.6h-.1z"/><path id="Layer" class="shp12" d="M717.4 443.2l-11.7 62.6c-3.6 20.3-3 41.1 1.7 61.1l1.3 5.4c2.7 11.4-9.7 20.4-19.7 14.3l-30.9-18.7c-3-1.8-6-3.5-9.1-5 20.3-10 31.3-32.7 26-55.1l-3.3-14.2c-.4-1.6 1.2-3 2.8-2.4 0 0 11.7 5 21.7-1.1 4.3-2.6 7.6-8.9 8.7-13.8l8.7-33.9c.2-1 1.2-1.7 2.3-1.5 1 .2 1.8 1.2 1.5 2.3z"/><path id="Layer" class="shp11" d="M747.9 461.3L730 532.6c-2.4 9.5-12.3 14.9-21.6 11.8l-90.9-30.5 3.9-15.6 80.5 13 11.1-46.5 34.9-3.5z"/><path id="Layer" class="shp13" d="M747.8 461.3l-17.9 71.3c-2.4 9.5-12.3 14.9-21.6 11.8l-2.9-1c7.5 0 14.3-5.1 16.2-12.7l15.1-60.3c.4-1.6-.7-3.2-2.4-3.4l-21.3-2.2 34.8-3.5zm-41.6 50.8l-4.3-.7 1.6-6.9 4 5.3c.8 1 0 2.5-1.3 2.3z"/><path id="Layer" class="shp8" d="M652.2 420.2l-.5-.5c1.3-1.3 1.3-3.3 0-4.6l.5-.5c1.3 1.3 3.3 1.3 4.6 0l.5.5c-1.3 1.3-1.3 3.3 0 4.6l-.5.5c-1.3-1.3-3.3-1.3-4.6 0zm16.2 40l-.5-.5c1.3-1.3 1.3-3.3 0-4.6l.5-.5c1.3 1.3 3.3 1.3 4.6 0l.5.5c-1.3 1.3-1.3 3.3 0 4.6l-.5.5c-1.2-1.3-3.3-1.3-4.6 0zm75.6-25.7l-.5-.5c1.3-1.3 1.3-3.3 0-4.6l.5-.5c1.3 1.3 3.3 1.3 4.6 0l.5.5c-1.3 1.3-1.3 3.3 0 4.6l-.5.5c-1.3-1.3-3.3-1.3-4.6 0zm-128.8 13.7l-.5-.5c1.3-1.3 1.3-3.3 0-4.6l.5-.5c1.3 1.3 3.3 1.3 4.6 0l.5.5c-1.3 1.3-1.3 3.3 0 4.6l-.5.5c-1.3-1.3-3.4-1.3-4.6 0zm-12.3 95.9l-.5-.5c1.3-1.3 1.3-3.3 0-4.6l.5-.5c1.3 1.3 3.3 1.3 4.6 0l.5.5c-1.3 1.3-1.3 3.3 0 4.6l-.5.5c-1.3-1.3-3.3-1.3-4.6 0zm9.8-155.2l-.5-.5c1.3-1.3 1.3-3.3 0-4.6l.5-.5c1.3 1.3 3.3 1.3 4.6 0l.5.5c-1.3 1.3-1.3 3.3 0 4.6l-.5.5c-1.3-1.3-3.4-1.3-4.6 0zm93 15.9l-.7-.1c.3-1.8-1-3.4-2.8-3.7l.1-.7c1.8.3 3.4-1 3.7-2.8l.7.1c-.3 1.8 1 3.4 2.8 3.7l-.1.7c-1.8-.3-3.5 1-3.7 2.8z"/><path id="Layer" class="shp12" d="M613.1 468.3c3.2 5.5 9.1 8.8 15.5 8.7l-14.8 3.1.3-6.8s.1-2.9-1-5zm120.1-67.2c16.2 5.3 24.6 23.1 18.3 38.9l-3.7 21.3-9.1.9 8.4-33.5c2.9-11.3-3-23-13.9-27.6z"/><path id="Layer" class="shp13" d="M586 511.9h-.1l-8.4-1.5-2.7-1.4 11.2 1.7 7.2-.9.1 1.1-7.3 1z"/><path id="Layer" class="shp13" d="M598.6 516.5c-4.5.6-9-.1-13-2.1l-10.8-5.3 11.3 1.7 4.8-.7c3.2 4.3 7.7 6.3 7.7 6.4z"/><path id="Layer" class="shp13" d="M585.1 514l6.1.9 5.7-1.4.4.8-6.5 1.8s-2.2-.5-3.5-1.1l-2.2-1z"/><path id="Layer" class="shp3" d="M827.3 526.6c-3.3 1.3-7 .7-9.6-1.6l-16-13.9 23.8-8.4 6.3 10.3c3.1 5 .9 11.5-4.5 13.6z"/><path id="Layer" class="shp16" d="M827.3 526.6c-3.3 1.3-7 .7-9.6-1.6l-16-13.9 23.8-8.4 6.3 10.3c3.1 5 .9 11.5-4.5 13.6z"/><path id="Layer" class="shp17" d="M804.2 483.8l4.3 25.7L762 516l-16.4-2.2c-4.6-.5-8.3-4.1-9-8.6-.8-4.9 2-9.6 6.6-11.2l6.9-2.4c.8 0 1.5-.8 1.4-1.6-.1-.6-.4-1.1-.9-1.3l-8.1-3.9c-3.3-1.6-4.8-5.6-3.4-9 .1-.5.6-.7 1.1-.6l22 3.7c4.3.7 8.2 2.9 11 6.2l1 1.2 30-2.5z"/><path id="Layer" class="shp17" d="M838 480.4l-1.4-60.8 34.5 26.5 9.7 13.2-1.7 42.2c-.1 2.9-2.5 5.2-5.5 5.2l-90.9-1.1-4-19.1 59.3-6.1z"/><path id="Layer" class="shp13" d="M838 480.4l-1.4-60.8 34.5 26.5 9.7 13.2-1.7 42.2c-.1 2.9-2.5 5.2-5.5 5.2l-70-.9c-12.7-.2-24.2-7.7-29.4-19.4l63.8-6z"/><path id="Layer" class="shp17" d="M994.7 361l-71.3 92.3-72.8-75.4c1.1-.7 2.3-1.4 3.6-2.1l23.1-12h-.1l5.7-2.9c1.3-.6 2.2-1.8 2.4-3.2 0-.4.1-.8 0-1.3l-.5-4.5-1.3-10.6c-1-2.3-7.1-2.4-7.6-5.3-2.4-13.3-5.6-25.2-5.6-25.2s40.1-35.2 47.3-1.3l2.1 8.8 9.2 30c.5 1.4 1.8 2.4 3.3 2.5l4.3.2-.6.5 32.7 3.3c9.7.3 18.5.9 26.1 6.2z"/><path id="Layer" class="shp3" d="M848.7 294.4c0-8.45 6.85-15.3 15.3-15.3 8.45 0 15.3 6.85 15.3 15.3 0 8.45-6.85 15.3-15.3 15.3-8.45 0-15.3-6.85-15.3-15.3z"/><path id="Layer" class="shp17" d="M911.2 275.9l5.3 29.8s2.8 46.6-27.4 46.5c-34.8-.1-27.6-68.8-27.6-68.8l49.7-7.5z"/><path id="Layer" class="shp3" d="M856.2 262.9c4.8-3.8 9.5-3.6 12.7-2.6 2.2.7 4.6-.3 5.6-2.4 1.7-3.5 5.2-8 12.5-9.2 9.5-1.6 14.5 3 16.6 5.8.9 1.1 2.3 1.8 3.7 1.8 4.4 0 13.9 2.1 18.3 10.9 7.7 15.4-1.6 34.7-1.6 34.7l-7.7-3.5-1.1 2.3-.5 6.5c-.1.8-.7 1.4-1.5 1.4s-1.6-.6-1.6-1.5l-.4-6.7c-.1-1.1-1-1.9-2-1.8-3.8.2-7.1-2.7-7.3-6.5-.2-3.8-3.5-6.7-7.3-6.5l-30.6 1.7c-10.8-.3-17-16.9-7.8-24.4z"/><path id="Layer" class="shp13" d="M923 352.8c-.1-.6-.2-1.1-.3-1.7l-7.3-32.6c-.2-.1 0-.3.1-.2 1.9.6 4.2-.1 4.2-.1v.1l9.2 30c.5 1.4 1.8 2.4 3.3 2.5h1l8.9 21.6-24.8 2.4c4.9-6.3 7-14.3 5.7-22z"/><path id="Layer" class="shp17" d="M915.1 300.6s1.4-6.6 8.3-4.5c7.9 2.3 8.6 19.4-3.9 22-6.6 1.4-5.7-2.6-5.2-7.9l.8-9.6z"/><path id="Layer" class="shp12" d="M924.7 301.5c-.2.3-.7.5-1.1.3-1-.5-1.8-.6-2.5-.4-.7.3-1.3.9-1.7 1.9-.6 1.4-.6 3.6-.5 4l.1 1.5c0 .5-.3.9-.7.9-.5 0-.9-.3-.9-.7l-.1-1.5c-.1-1.7.1-3.4.7-4.8s1.5-2.3 2.6-2.7c1.1-.4 2.4-.2 3.8.5.4.2.5.6.3 1z"/><path id="Layer" class="shp17" d="M862.3 288.5c-1-.1-2.9-.6-4.7-1.5-.3-.1-.5-.6-.3-.9.1-.3.6-.5.9-.3 1.7.8 3.4 1.2 4.3 1.4.5.1.9.1 1.4.1l3.6-.1c.4 0 .7.3.7.7 0 .4-.3.7-.7.7l-3.6.1c-.5 0-1.1 0-1.6-.2z"/><g id="Layer" opacity=".302"><path id="Layer" class="shp12" d="M883.8 337.9c0-.5.4-.9.9-.9 2.7-.1 4.1-.2 4.1-.2.5 0 1 .4 1 .9s-.4 1-.9 1c0 0-1.4.1-4.1.2h-.1c-.4 0-.8-.4-.9-1z"/></g><g id="Layer" opacity=".302"><path id="Layer" class="shp12" d="M894.1 333.9c0 .5-.4.9-.9.9-.2 0-.3 0-.5-.1-2.2-1.6-6.5-3-13.2 1.2-.4.3-.9.1-1.2-.3-.3-.4-.1-.9.3-1.2 1.2-.8 2.4-1.4 3.5-1.9 5.5-2.3 9.4-.8 11.6.7.3.2.4.4.4.7z"/></g><path id="Layer" class="shp3" d="M887.6 313.3c0-1.49 1.21-2.7 2.7-2.7 1.49 0 2.7 1.21 2.7 2.7 0 1.49-1.21 2.7-2.7 2.7-1.49 0-2.7-1.21-2.7-2.7z"/><path id="Layer" class="shp5" d="M888.4 313.9c0-.33.27-.6.6-.6.33 0 .6.27.6.6 0 .33-.27.6-.6.6-.33 0-.6-.27-.6-.6z"/><path id="Layer" class="shp3" d="M865.9 316.1c0-1.49 1.21-2.7 2.7-2.7 1.49 0 2.7 1.21 2.7 2.7 0 1.49-1.21 2.7-2.7 2.7-1.49 0-2.7-1.21-2.7-2.7z"/><path id="Layer" class="shp5" d="M866.8 316.8c0-.33.27-.6.6-.6.33 0 .6.27.6.6 0 .33-.27.6-.6.6-.33 0-.6-.27-.6-.6z"/><g id="Layer" opacity=".302"><path id="Layer" class="shp12" d="M876.6 325.5c-.1-1.8 1.3-3.3 3.1-3.4.4 0 .8.4.8.8s-.4.8-.8.8c-.9.1-1.7.9-1.6 1.8.1.9.9 1.7 1.8 1.6l3.7-.2c.4 0 .8.4.8.8s-.4.8-.8.8l-3.7.2c-1.8.1-3.4-1.2-3.3-3.2z"/></g><path id="Layer" fill-rule="evenodd" class="shp3" d="M859.9 310l11.9-1.5 1.6-.2 10.5-1.3h.1l13.5-1.7c2.2-.2 4.2 1.3 4.5 3.5l.4 3.1c.7 5.9-3.5 11.3-9.4 12.1-5.9.7-11.3-3.5-12.1-9.4l-.4-3.1c-.1-.9.1-1.8.5-2.5l-4.2.5c.6.6 1 1.4 1.1 2.3l.4 3.1c.7 5.9-3.5 11.3-9.4 12.1-5.9.7-11.3-3.5-12.1-9.4l-.4-3.1c-.2-2.2 1.3-4.2 3.5-4.5zm22.1 1.2l.4 3.1c.6 5.1 5.3 8.6 10.3 8 5.1-.6 8.6-5.3 8-10.3l-.4-3.1c-.2-1.3-1.4-2.3-2.7-2.1l-13.5 1.7c-1.3.2-2.2 1.4-2.1 2.7zm-23.6 6.2c.6 5.1 5.3 8.6 10.3 8 5.1-.6 8.6-5.3 8-10.3l-.4-3.1c-.2-1.3-1.4-2.3-2.7-2.1l-1.6.2-11.9 1.5c-1.3.2-2.3 1.4-2.1 2.7l.4 3.1z"/><path id="Layer" class="shp18" d="M1036.8 540.5l-35.9 69.2-184.7-.1-18.3-68.4 238.9-.7z"/><path id="Layer" class="shp15" d="M1036.8 540.5l-35.9 69.2-184.7-.1-13.1-49 233.7-20.1z"/><path id="Layer" class="shp8" d="M933.2 350.8l39.5 2.9c21.2 1.6 38.8 16.7 43.6 37.3l38.1 163.8-132 1.2-41.1-95.9-1 11-42.6-5.1-1.3-60.8c-.2-12.3 6.5-23.6 17.4-29.2l21.8-11.2.8 1.2c7.4 10.3 20.3 15 32.6 11.9l1.4-.4c12.4-3.2 21.6-13.9 22.8-26.7zm.7.1l-.7-.1.7.1z"/><path id="Layer" class="shp13" d="M1054.4 554.6l-132 1.2 49.1-2.9c31.8-1.9 55.7-29.8 52.6-61.5-4.8-49.9-10.6-112.2-7.8-100.4l38.1 163.6z"/><path id="Layer" class="shp3" d="M748.6 502.2c0-6.4 5.2-11.6 11.6-11.6h53.9c6.4 0 11.6 5.2 11.6 11.6 0 6.4-5.2 11.6-11.6 11.6h-53.9c-6.4 0-11.6-5.2-11.6-11.6z"/><path id="Layer" class="shp16" d="M748.6 502.2c0-6.4 5.2-11.6 11.6-11.6h53.9c6.4 0 11.6 5.2 11.6 11.6 0 6.4-5.2 11.6-11.6 11.6h-53.9c-6.4 0-11.6-5.2-11.6-11.6z"/><path id="Layer" class="shp3" d="M764.9 526.6c-3.3 1.3-7 .7-9.6-1.6l-16-13.9 23.8-8.4 6.3 10.3c3 5 .9 11.5-4.5 13.6z"/><path id="Layer" class="shp16" d="M764.9 526.6c-3.3 1.3-7 .7-9.6-1.6l-16-13.9 23.8-8.4 6.3 10.3c3 5 .9 11.5-4.5 13.6z"/><path id="Layer" class="shp12" d="M749.6 486.8h7.5c1.8 0 3.2 1.5 3.2 3.2v.6h-14v-.6c0-1.8 1.5-3.2 3.3-3.2z"/><path id="Layer" class="shp17" d="M679.9 810.9l48.2-19.7c2.5-1 4.2-3.4 4.4-6.1l12.6-213.5c1-16.9 14.9-30.1 31.8-30.3l21-.2 18.3 68.4h-22.1l-30.2 178.3c-.1 2.7.1 5.4.8 8l3.5 13.3c1.1 4.1-2 8.2-6.3 8.2H681c-3.5 0-4.5-5-1.1-6.4zm172-270l66.1-.3 25.5 69.2h-57.4l31.1 159 4.3 22.2h-.1c.3 1.4.7 2.8 1 4.2l4.2 16.1c.8 3-1.5 6-4.6 6h-86c-3 0-3.8-4.1-1-5.2l48.2-19.9c3.7-1.5 5.6-5.7 4.3-9.5l-4.8-14L820 585.1c-7.1-21.7 9-44.1 31.9-44.2zm-112.6-29.8l13.3 2c2.9.5 5.7 1.7 8 3.5l.2.1c2.9 2.3 2.3 6.8-1 8.4l-.2.1c-1.5.7-3.3.4-4.5-.6l-2.1-1.8-2.4-1.1c-.8-.4-1.5-1-1.9-1.8l-.2-.5c-.3-.6-.8-1.1-1.4-1.5-1.7-1-3.2-2.4-4.3-4v-.1l-3.5-2.7z"/><path id="Layer" class="shp13" d="M739.3 511.1l13 2c3.1.5 6 1.8 8.4 3.7 2.9 2.3 2.3 6.8-1 8.4l-.2.1c-1.6.7-3.4.5-4.7-.7l-1.4-1.2c-.3-.3-.6-.5-1-.6l-1.5-.7c-1.1-.5-2-1.4-2.6-2.6-.3-.6-.8-1.1-1.3-1.4l-.3-.2c-1.5-.9-2.9-2.1-3.9-3.6l-.2-.3-3.3-2.9z"/><g id="Layer" opacity=".149"><path id="Layer" class="shp13" d="M992.6 465.5c-.4-.1-.6-.6-.5-1l12.5-40.1c.1-.4.6-.6 1-.5.4.1.6.6.5 1L993.6 465c-.1.4-.5.6-.8.6-.1 0-.2-.1-.2-.1z"/></g><path id="Layer" class="shp13" d="M937.4 483.2l23.2-95c.1-.4.5-.7 1-.6.4.1.7.5.6 1l-18.6 77.1c0 .1-.1.2-.1.3l-4.2 17.2h-1.9zm-52.2-126.8l-.5-4.5c1.4.2 2.9.4 4.5.4 2.6 0 5.4-.4 8.3-1.5 5.5-2.3 8.9-5.9 11-9 .2-.3.7-.4 1-.2.3.2.4.7.2 1-2.1 3.2-5.6 7.2-11.3 9.5 0 0-5.5 4.7-13.1 5.6.1-.5.1-.9-.1-1.3z"/><path id="Layer" class="shp18" d="M1051.1 540.5l3.6 15.7c6.4 28.2-15.3 55-44.2 54.7l-103.1-1.2-31.4-69.2h175.1z"/><path id="Layer" class="shp13" d="M987.4 577.4c13.2-1.2 22.2-14.1 18.5-26.9l-2.6-9.3 47.8-.7 4.4 19.3c6 26.4-14.2 51.4-41.3 51.1l-106.8-1.2-11-24.3 91-8z"/><path id="Layer" class="shp13" d="M886.2 609.7L921.7 791l5.1 20.4c.8 3-1.5 6-4.6 6h-37.4c-5.4-5.5-9.4-12.3-11.7-19.6l-.3-1.1c3.6 6.6 8.8 12.1 15.1 16.2l.8.5 24.6-.3c3.1 0 5.4-3 4.6-6l-5.9-23.8-40.1-185.7c-1.1-5.2 2.6-10.3 8-10.7l16.6-1.3 11 24.3h-21.3v-.2z"/><path id="Layer" class="shp8" d="M828.7 817.3c.2-5.5 2.8-8.5 8-10.4l35.7-11.6c0 .2 3.2 12.7 12.3 22h43.2c1.4 0 2.7 1.1 2.8 2.5.1 1.5-1.1 2.7-2.6 2.7h-96.9c-1.4 0-2.6-1.1-2.6-2.6v-2.6h.1z"/><path id="Layer" class="shp9" d="M828.7 817.3c.2-4.4 1.7-7.6 6.8-9.9-3.7 2.4-1.4 5.7 2.1 5.5 33.9-1.6 38.3-1.6 42.2-2-.1-.1-.1-.2-.1-.3 1.5 2.3 3.2 4.6 5.2 6.7h43.4c1.4 0 2.6 1.2 2.6 2.6 0 1.4-1.2 2.6-2.6 2.6h-96.9c-1.4 0-2.6-1.1-2.6-2.6v-2.6h-.1z"/><path id="Layer" class="shp15" d="M828.7 816.5H884l.7.8h-56v-.8z"/><g id="Layer" opacity=".149"><path id="Layer" class="shp13" d="M908.9 808.6c-.4 0-.8-.4-.7-.9 0-.4.4-.8.9-.7 2.1.3 3.8-.3 4.6-1.7.8-1.3.7-3.2-.3-4.7-.3-.4-.2-.9.2-1.2.4-.3.9-.2 1.2.2 1.3 2.1 1.5 4.6.3 6.5-1.1 1.7-2.9 2.6-5.2 2.6-.4 0-.7 0-1-.1z"/></g><g id="Layer" opacity=".149"><path id="Layer" class="shp13" d="M747.7 808.6c-.4 0-.8-.4-.7-.9 0-.4.4-.8.9-.7 2.1.3 3.8-.3 4.6-1.7.8-1.3.7-3.2-.3-4.7-.3-.4-.2-.9.2-1.2.4-.3.9-.2 1.2.2 1.3 2.1 1.5 4.6.3 6.5-1.1 1.7-2.9 2.6-5.2 2.6-.3 0-.7 0-1-.1z"/></g><path id="Layer" class="shp13" d="M857.3 409.4c.4-.2.9 0 1.1.4l22.9 50.3h-.1l-1 10.9-13.3-1.6 2-32.6-12-26.3c-.2-.5 0-1 .4-1.1zM989.7 471l14.5-40 1.4 67.9c.3 13.4-11.3 23.9-24.6 22.4l-37.4-4.3 46.1-46z"/><path id="Layer" class="shp17" d="M939.3 483.2l6.9-28.3 47.2 5.2-15 45c-2.9 8.7-11.5 14.3-20.6 13.4l-112-10.9-.9-23.5 94.4-.9z"/><path id="Layer" class="shp13" d="M939.2 483.2l6.9-28.3 8 .9-7 23.8c-.6 2.1-2.5 3.6-4.7 3.6h-3.2zM750 491.6c.8-.1 1.5-.8 1.4-1.6 0-.5-.4-1-.9-1.3l-8.1-3.9 17.2 3.9c3.2.7 3.9 4.9 1.2 6.7l-6.5 4.2-11.9-2.4v-2.8l7.6-2.8z"/><path id="Layer" class="shp3" d="M735.1 502.2c0-6.4 5.2-11.6 11.6-11.6h53.9c6.4 0 11.6 5.2 11.6 11.6 0 6.4-5.2 11.6-11.6 11.6h-53.9c-6.4 0-11.6-5.2-11.6-11.6z"/><path id="Layer" class="shp17" d="M846.8 495.4l2.3 4.5-3.4 7.6-14.3 9.1c-5.4 3.5-11.6 4.4-17.8 3.4-1.3-.2-2.5-.7-3.6-1.4l-5.4-3.5c-.9-.6-.5-2.1.6-2.2l7.3-.5c1.3 0 2.6-.3 3.8-.9 4.9-2.3 8.1-7.2 8-12.7-.1-5.9-4-11.1-9.7-12.7l-7.6-2.2c-3-.9-5.1-3.7-5.1-6.8v-.4c0-.9.8-1.6 1.7-1.5l14.9 1.2c5.7.4 12.2 1.5 16.5 3.2l9.9 4.5 1.9 11.3z"/><path id="Layer" class="shp17" d="M822.2 506.6c.1-.1.1-.2.2-.3-.1.1-.1.2-.2.3z"/><path id="Layer" class="shp13" d="M805.3 513.1l7.3-.5c.9-.1 1.7-.2 2.6-.5 2.1.5 4.6 1.4 8.6 2.3 1.2.3 2.4 0 3.4-.6l15.7-10.2c1-.6 2.1-.9 3.3-.8l116.5 11.1c4.5.4 8.9-.7 12.5-3-4.1 5.2-10.6 8.2-17.5 7.5l-112-10.9-14.3 9.1c-5.5 3.4-11.6 4.4-17.8 3.4-1.3-.2-2.5-.7-3.6-1.4l-5.4-3.5c-.8-.5-.4-1.9.7-2z"/><path id="Layer" class="shp3" d="M802.5 486.8h7.5c1.8 0 3.2 1.5 3.2 3.2v.6h-14v-.6c.1-1.8 1.5-3.2 3.3-3.2zm-52.9 0h7.5c1.8 0 3.2 1.5 3.2 3.2v.6h-14v-.6c0-1.8 1.5-3.2 3.3-3.2z"/><path id="Layer" class="shp13" d="M873.5 372.6l-4.1-4.4 1.2-1.1 4.1 4.4c9.1 9.8 22.3 13.9 35.3 10.8 13.1-3.1 23-12.6 26.7-25.5l1.6-5.8 1.6.1-1.7 6.1c-3.9 13.4-14.3 23.4-27.9 26.6-3 .8-6 1.1-9 1.1-10.5 0-20.5-4.3-27.8-12.3zm-121 149.9l9.3-4.5.7 1.7-8.7 4.1-1.3-1.3zm6.5-6.9l-10.4 3.6-1.6-1.4 10.5-3.1 1.5.9z"/><path id="Layer" class="shp16" d="M760.4 490v.6h-14v-1.1l13.9-.1c0 .1 0 .5.1.6zm52.9 0v.6h-14v-1.1l13.9-.1c0 .1.1.5.1.6z"/><path id="Layer" class="shp13" d="M764 787.8c-.2 2.7.1 5.4.8 8l3.5 13.3c1.1 4.2-2 8.2-6.3 8.2h-80.8c-3.2 0-4.3-4-2.2-5.8l43.1-.1c-2.5-3.6-5.5-8.7-7.2-14.8 0 0 4.8 8.4 12.1 14.8h23.8c4.3 0 7.4-4.1 6.3-8.2 0 0-1-18.5-.9-21.2l24.4-177.8c.4-3.3 3.1-5.8 6.4-6l13-.8c3-.2 5.2-2.9 4.8-5.9l-6.8-50.4 14.1 52.7 4.2 15.7h-22.1L764 787.8z"/><path id="Layer" class="shp8" d="M670.7 817.3c.2-5.5 2.8-8.5 8-10.4l35.7-11.6c0 .2 3.2 12.7 12.3 22H770c1.4 0 2.7 1.1 2.8 2.5.1 1.5-1.1 2.7-2.6 2.7h-96.9c-1.4 0-2.6-1.1-2.6-2.6v-2.6z"/><path id="Layer" class="shp9" d="M670.7 817.3c.2-4.4 1.7-7.6 6.8-9.9-3.7 2.4-1.4 5.7 2.1 5.5 33.9-1.6 38.3-1.6 42.2-2-.1-.1-.1-.2-.1-.3 1.5 2.3 3.2 4.6 5.2 6.7h43.4c1.4 0 2.6 1.2 2.6 2.6 0 1.4-1.2 2.6-2.6 2.6h-96.9c-1.4 0-2.6-1.1-2.6-2.6v-2.6h-.1z"/><path id="Layer" class="shp15" d="M670.8 816.5H726l.8.8h-56v-.8z"/><path id="Layer" class="shp10" d="M1195.3 822.5H1048c-5.9 0-10.7-4.8-10.7-10.7V517.4c0-5.9 4.8-10.7 10.7-10.7h136.6c5.9 0 10.7 4.8 10.7 10.7v305.1z"/><path id="Layer" class="shp1" d="M1050 507.3c0-.3.2-.6.5-.6h132.2c.2 0 .4.3.4.6s-.1.6-.4.6h-132.2c-.2 0-.4-.3-.5-.6z"/><path id="Layer" class="shp1" d="M1069.5 822.5h-70.4V517.4c0-5.9 4.8-10.7 10.7-10.7h49c5.9 0 10.7 4.8 10.7 10.7v305.1z"/><path id="Layer" class="shp10" d="M997.7 708V581.9c0-.3.3-.5.7-.5.4 0 .7.2.7.5v126c0 .3-.3.5-.7.5-.4 0-.7-.2-.7-.4z"/><path id="Layer" class="shp9" d="M421.13 680.07v-70.4h6.61v70.4h-6.61z"/><path id="Layer" class="shp3" d="M245.6 663h-11.2v-39.9h11.2V663z"/><path id="Layer" class="shp18" d="M188.26 617.93h50.11v45.1h-50.11v-45.1z"/><path id="Layer" class="shp3" d="M245.9 669v-7.2h51.4c4 0 7.2 3.2 7.2 7.2h-58.6z"/><path id="Layer" class="shp18" d="M133.6 661.8h119.5c4 0 7.2 3.2 7.2 7.2H126.4c0-4 3.2-7.3 7.2-7.2z"/><path id="Layer" class="shp3" d="M407.4 622.7h-25.6c-2.9 0-5.3-2.4-5.3-5.3V395.7c0-2.9 2.4-5.3 5.3-5.3h25.6c2.9 0 5.3 2.4 5.3 5.3v221.7c.1 2.9-2.3 5.3-5.3 5.3z"/><path id="Layer" class="shp18" d="M28.4 617.4V395.7c0-2.9 2.4-5.3 5.3-5.3h366.5c2.9 0 5.3 2.4 5.3 5.3v221.7c0 2.9-2.4 5.3-5.3 5.3H33.7c-3 0-5.4-2.4-5.3-5.3z"/><path id="Layer" class="shp3" d="M131.4 570.8v-85.3c0-2.6 2.1-4.7 4.7-4.7h167.8c2.6 0 4.7 2.1 4.7 4.7v85.3c0 2.6-2.1 4.7-4.7 4.7H136.1c-2.6 0-4.7-2.1-4.7-4.7z"/><path id="Layer" class="shp2" d="M125.3 570.8v-85.3c0-2.6 2.1-4.7 4.7-4.7h167.8c2.6 0 4.7 2.1 4.7 4.7v85.3c0 2.6-2.1 4.7-4.7 4.7H130c-2.6 0-4.7-2.1-4.7-4.7z"/><path id="Layer" class="shp9" d="M125.3 570.8v-85.3c0-2.6 2.1-4.7 4.7-4.7h167.8c2.6 0 4.7 2.1 4.7 4.7v85.3c0 2.6-2.1 4.7-4.7 4.7H130c-2.6 0-4.7-2.1-4.7-4.7z"/><path id="Layer" d="M152.1 498c.2 1.2 1.2 2.1 2.4 2.1h124.9c1.2 0 2.2-.9 2.4-2.1.6.5.9 1.1.9 1.9 0 1.4-1.1 2.5-2.5 2.5H153.6c-1.4 0-2.5-1.1-2.5-2.5 0-.8.4-1.4 1-1.9zm0 9.4c.2 1.2 1.2 2.1 2.4 2.1h124.9c1.2 0 2.2-.9 2.4-2.1.6.5.9 1.1.9 1.9 0 1.4-1.1 2.5-2.5 2.5H153.6c-1.4 0-2.5-1.1-2.5-2.5 0-.7.4-1.4 1-1.9zm0 9.5c.2 1.2 1.2 2.1 2.4 2.1h124.9c1.2 0 2.2-.9 2.4-2.1.6.5.9 1.1.9 1.9 0 1.4-1.1 2.5-2.5 2.5H153.6c-1.4 0-2.5-1.1-2.5-2.5 0-.8.4-1.5 1-1.9zm0 9.4c.2 1.2 1.2 2.1 2.4 2.1h124.9c1.2 0 2.2-.9 2.4-2.1.6.5.9 1.1.9 1.9 0 1.4-1.1 2.5-2.5 2.5H153.6c-1.4 0-2.5-1.1-2.5-2.5 0-.8.4-1.4 1-1.9zm0 9.4c.2 1.2 1.2 2.1 2.4 2.1h124.9c1.2 0 2.2-.9 2.4-2.1.6.5.9 1.1.9 1.9 0 1.4-1.1 2.5-2.5 2.5H153.6c-1.4 0-2.5-1.1-2.5-2.5 0-.7.4-1.4 1-1.9zm-1 28.3v-6.2c0-1.2.9-2.1 2.1-2.1h17c1.2 0 2.1.9 2.1 2.1v6.2c0 1.2-.9 2.1-2.1 2.1h-17c-1.1 0-2.1-.9-2.1-2.1zm109.4 0v-6.2c0-1.2.9-2.1 2.1-2.1h17c1.2 0 2.1.9 2.1 2.1v6.2c0 1.2-.9 2.1-2.1 2.1h-17c-1.1 0-2.1-.9-2.1-2.1z" fill="#000"/><path id="Layer" class="shp2" d="M122.9 813.9H77.1c-37.6 0-68-30.4-68-68s30.4-68 68-68h45.8c-37.6 0-68 30.4-68 68s30.4 68 68 68z"/><path id="Layer" class="shp18" d="M469.3 746c0 42.5-34.5 77-77 77h-43c42.5 0 77-34.5 77-77s-34.5-77-77-77h43c42.5 0 77 34.4 77 77z"/><path id="Layer" class="shp12" d="M122.9 813.9H77.1c-37.6 0-68-30.4-68-68s30.4-68 68-68h45.8c-37.6 0-68 30.4-68 68s30.4 68 68 68z"/><path id="Layer" class="shp3" d="M179.8 622.7h65.8v6.9l-65.8-5.1v-1.8z"/><path id="Layer" class="shp10" d="M420.2 750.6H34.6c-1.7 0-3.1-1.4-3.1-3.1v-3.2c0-1.7 1.4-3.1 3.1-3.1h385.6v9.4z"/><path id="Layer" class="shp9" d="M420.1 741.3c.1 1.6.2 3.1.2 4.7s-.1 3.2-.2 4.7h-9c.1-1.6.2-3.1.2-4.7s-.1-3.2-.2-4.7h9z"/><path id="Layer" fill-rule="evenodd" class="shp2" d="M426.3 746c0 42.5-34.5 77-77 77H77.1c-42.5 0-77-34.5-77-77s34.5-77 77-77h272.2c42.5 0 77 34.4 77 77zm-77-68.1H77.1c-37.6 0-68 30.4-68 68s30.4 68 68 68h272.2c37.6 0 68-30.4 68-68 0-37.5-30.4-68-68-68z"/><path id="Layer" class="shp8" d="M179.4 713h110.5c2.1 0 3.8 1.7 3.8 3.8v20.6c0 2.1-1.7 3.8-3.8 3.8H179.4c-2.1 0-3.8-1.7-3.8-3.8v-20.6c-.1-2.1 1.7-3.8 3.8-3.8z"/><path id="Layer" class="shp8" d="M255.5 713h67.4c2.1 0 3.8 1.7 3.8 3.8v20.6c0 2.1-1.7 3.8-3.8 3.8h-67.4c-2.1 0-3.8-1.7-3.8-3.8v-20.6c0-2.1 1.7-3.8 3.8-3.8z"/><path id="Layer" class="shp14" d="M179.4 713h110.5c2.1 0 3.8 1.7 3.8 3.8v20.6c0 2.1-1.7 3.8-3.8 3.8H179.4c-2.1 0-3.8-1.7-3.8-3.8v-20.6c-.1-2.1 1.7-3.8 3.8-3.8z"/><path id="Layer" class="shp8" d="M252.5 728.6c0 2.5-2 4.5-4.5 4.5h-1.7v-.3c-1.6-.7-2.8-2.3-2.8-4.2 0-1.9 1.1-3.5 2.8-4.2v-.3h1.7c2.5 0 4.5 2 4.5 4.5z"/><path id="Layer" class="shp5" d="M246.3 733.2c-2.5 0-4.5-2-4.5-4.5s2-4.5 4.5-4.5 4.5 2 4.5 4.5-2 4.5-4.5 4.5z"/><path id="Layer" class="shp8" d="M246.3 731.1c-1.3 0-2.4-1.1-2.4-2.4 0-1.3 1.1-2.4 2.4-2.4 1.3 0 2.4 1.1 2.4 2.4 0 1.3-1.1 2.4-2.4 2.4zm21.5-2.5c0 2.5-2 4.5-4.5 4.5h-1.7v-.3c-1.6-.7-2.8-2.3-2.8-4.2 0-1.9 1.1-3.5 2.8-4.2v-.3h1.7c2.5 0 4.5 2 4.5 4.5z"/><path id="Layer" class="shp5" d="M261.6 733.2c-2.5 0-4.5-2-4.5-4.5s2-4.5 4.5-4.5 4.5 2 4.5 4.5c.1 2.5-2 4.5-4.5 4.5z"/><path id="Layer" class="shp8" d="M261.6 731.1c-1.3 0-2.4-1.1-2.4-2.4 0-1.3 1.1-2.4 2.4-2.4 1.3 0 2.4 1.1 2.4 2.4 0 1.3-1 2.4-2.4 2.4zm22.2-2.5c0 2.5-2 4.5-4.5 4.5h-1.7v-.3c-1.6-.7-2.8-2.3-2.8-4.2 0-1.9 1.1-3.5 2.8-4.2v-.3h1.7c2.5 0 4.5 2 4.5 4.5z"/><path id="Layer" class="shp5" d="M277.6 733.2c-2.5 0-4.5-2-4.5-4.5s2-4.5 4.5-4.5 4.5 2 4.5 4.5-2 4.5-4.5 4.5z"/><path id="Layer" class="shp8" d="M277.6 731.1c-1.3 0-2.4-1.1-2.4-2.4 0-1.3 1.1-2.4 2.4-2.4 1.3 0 2.4 1.1 2.4 2.4 0 1.3-1.1 2.4-2.4 2.4z"/><path id="Layer" class="shp3" d="M246.4 730.9h-4.9c-8.9 0-16.2-7.3-16.2-16.2v-12.6c0-11.6 9.5-21.1 21.1-21.1h3.2c6.5 0 11.9-5.3 11.9-11.9v-46.5h4.6v46.5c0 9.1-7.4 16.4-16.4 16.4h-3.2c-9.1 0-16.5 7.4-16.5 16.5v12.6c0 6.4 5.2 11.6 11.6 11.6h4.9c1.3 0 2.3 1 2.3 2.3 0 1.3-1.2 2.4-2.4 2.4z"/><path id="Layer" class="shp3" d="M261.7 731.1h-4.9c-8.9 0-16.2-7.3-16.2-16.2v-12.6c0-11.6 9.5-21.1 21.1-21.1h3.2c6.5 0 11.9-5.3 11.9-11.9v-46.5h4.6v46.5c0 9.1-7.4 16.4-16.4 16.4h-3.2c-9.1 0-16.5 7.4-16.5 16.5v12.6c0 6.4 5.2 11.6 11.6 11.6h4.9c1.3 0 2.3 1 2.3 2.3-.1 1.3-1.1 2.4-2.4 2.4z"/><path id="Layer" class="shp2" d="M1268.8 646.6h-86.2c-1.5 0-2.7-1.2-2.7-2.7 0-1.5 1.2-2.7 2.7-2.7h86.2c1.5 0 2.7 1.2 2.7 2.7 0 1.5-1.2 2.7-2.7 2.7zm-3.6 0l14.3 175.8h-2.8l-21.5-175.8h10zm-69.5 0l-21.4 175.8h-2.9l14.3-175.8h10z"/><path id="Layer" class="shp18" d="M1195.7 646.6l-21.4 175.8h-1.3l17.2-172.4h-4.9l.4-3.4h10zm73.4 67.4h-2.5l-11.4-67.4h10l14.3 175.8h-1.4l-9-108.4zm-39.8-67.4l-4.8 175.8h-2.9l-2.3-175.8h10z"/><path id="Layer" class="shp20" d="M1239.3 597.8s6.2-50 20.6-77.3m-31.1-8.7s9.8 40.2 8.3 68.1"/><path id="Layer" class="shp8" d="M1258.6 522.9s.1-27 23.7-28.6c.1.1 2 23.8-23.7 28.6zm-56.5-5.8s-6.4-25.6-34.3-18.4c0 0 5.3 18.9 34.3 18.4zm30.3 10.6s8.3-21.8-11-33.3c-.1 0-8.5 21.4 11 33.3z"/><path id="Layer" class="shp20" d="M1202.1 517.1s25.7 29.4 25.7 80.7m19.5-84.7c-5.7 22.6-8.1 27.5-11.4 84.7m-55.1-116.1c11.3 5.2 46.9 42.5 41 115.1m-4.4.1s7.4-50.3-23.7-67m46.6 60.3s2.7-8 11.3-14.7m-8.4-.9s17.6-15.5 26.4-18.1"/><path id="Layer" class="shp8" d="M1207.8 542.6s-6.9-26.4-34.4-20.2c-.1 0 4.6 22.5 34.4 20.2z"/><path id="Layer" class="shp21" d="M1207.8 542.6s-6.9-26.4-34.4-20.2c-.1 0 4.6 22.5 34.4 20.2z"/><path id="Layer" class="shp8" d="M1221.8 569.6s-4.8-18.7-29.9-12.5c.1 0 8.3 18.7 29.9 12.5zm17.1-12.1s2.3-29.4 33-33c0-.1 1.5 28.7-33 33z"/><path id="Layer" class="shp20" d="M1231.9 467.7s-1.2 108.9-1.4 130.1"/><path id="Layer" class="shp8" d="M1236.4 549.6s-26.2 1.4-26.2-27.6c0 0 25.4.3 26.2 27.6z"/><path id="Layer" class="shp21" d="M1236.4 549.6s-26.2 1.4-26.2-27.6c0 0 25.4.3 26.2 27.6z"/><path id="Layer" class="shp8" d="M1261.2 560.9s7.1-20 29.7-14.9c-.1 0-3.8 16.8-29.7 14.9z"/><path id="Layer" class="shp21" d="M1261.2 560.9s7.1-20 29.7-14.9c-.1 0-3.8 16.8-29.7 14.9z"/><path id="Layer" class="shp10" d="M1250.8 603.1h-46.4v-5.8h46.4v5.8zm-6 38.1h-34.6l-2.6-38.1h39.8l-2.6 38.1z"/><path id="Layer" class="shp10" d="M1244.8 641.2h-34.6l-2.6-38.1h39.8l-2.6 38.1z"/><path id="Layer" class="shp2" d="M1250.7 603.1h-3.3l-2.6 38.1h-8.4l-.1-36.5h-28.5l-.2-1.6h35.6v-5.8h7.5v5.8z"/><path id="Layer" class="shp8" d="M1231.5 490.2s-12.8-19.4 3.9-38c0 0 11.1 18.9-3.9 38z"/><path id="Layer" class="shp21" d="M1231.5 490.2s-12.8-19.4 3.9-38c0 0 11.1 18.9-3.9 38z"/><path id="Layer" class="shp8" d="M1243.2 529.2s-14.1-30.1 11.1-48.6c-.1 0 17.3 27.2-11.1 48.6z"/><path id="Layer" class="shp21" d="M1243.2 529.2s-14.1-30.1 11.1-48.6c-.1 0 17.3 27.2-11.1 48.6z"/><path id="Layer" class="shp8" d="M1246.6 580.6s3.4-13.1 21.3-10.3c0 0-2.9 13.3-21.3 10.3zm-24.5 6.1s-3.9-25.4 19.3-28.4c0 0 5.5 22-19.3 28.4z"/><path id="Layer" class="shp21" d="M1222.1 586.7s-3.9-25.4 19.3-28.4c0 0 5.5 22-19.3 28.4z"/><path id="Layer" class="shp8" d="M1174.5 477.9s14-1.4 16.7 12c0-.1-12.7 1.5-16.7-12z"/><path id="Layer" class="shp14" d="M1174.5 477.9s14-1.4 16.7 12c0-.1-12.7 1.5-16.7-12z"/><path id="Layer" class="shp8" d="M1208.6 476.5s-17.4 18.1-.4 37.8c0 0 17.1-19.3.4-37.8z"/><path id="Layer" class="shp21" d="M1208.6 476.5s-17.4 18.1-.4 37.8c0 0 17.1-19.3.4-37.8z"/></svg>