<svg xmlns="http://www.w3.org/2000/svg" viewBox="0 0 500 500"><path d="M278.44 462.06c-17.24-8.16-24.11-27.56-26.54-45.63-.41-3-1.27-6.12-.29-9s4-5.23 6.9-4.42c2.41.67 3.82 3.09 5.43 5a17.66 17.66 0 008.16 5.52c2.08.67 4.55.88 6.26-.48 2.34-1.87 2-5.49 1.52-8.47q-1.47-8.29-2.88-16.58a28.24 28.24 0 01-.59-9c.44-3 2.05-6 4.75-7.24s6.49-.23 7.58 2.59a28.31 28.31 0 01.72 3.69c.29 1.23 1.1 2.5 2.33 2.65s2.3-.9 3.05-1.93c2.56-3.53 4-7.76 5.3-11.95s2.52-8.46 4.76-12.22 5.66-7 9.89-8 9.23.9 11 4.91.06 8.7-2 12.56a67.69 67.69 0 01-11.69 15.54 5.57 5.57 0 00-1.9 2.88c-.31 2.1 1.91 3.76 4 4.08 2.34.36 4.72-.28 7.09-.4s5.06.48 6.32 2.53c1.73 2.84-.28 6.47-2.43 9a58 58 0 01-15.23 12.6c-2.06 1.17-4.25 2.27-5.76 4.11s-2.12 4.7-.7 6.62 4.29 2.13 6.51 1.31 4.07-2.41 6.12-3.6c3.84-2.24 9.18-2.86 12.41.24a9.56 9.56 0 012.41 8.18 21.93 21.93 0 01-3.27 8.13 58.26 58.26 0 01-21.58 21.36c-8.95 4.9-17.61 7.29-27.64 5.43" fill="#f5f5f5"/><path d="M281.17 450a270.86 270.86 0 015.74-30.57l1.92-7.93c.63-2.61 1.26-5.19 2-7.67a136 136 0 015.26-14c1.89-4.38 3.84-8.48 5.69-12.29s3.66-7.33 5.44-10.46a107 107 0 019.48-14.16c1.25-1.58 2.26-2.77 2.95-3.57.33-.38.6-.68.79-.91s.28-.3.29-.29a3 3 0 01-.24.33l-.76.94c-.66.82-1.64 2-2.86 3.63a113.69 113.69 0 00-9.31 14.23c-1.75 3.14-3.53 6.66-5.37 10.47s-3.76 7.91-5.63 12.29a134.47 134.47 0 00-5.2 14c-.77 2.47-1.39 5-2 7.64l-1.92 7.94a277.08 277.08 0 00-5.77 30.5" fill="#e0e0e0"/><path d="M291 403.79a5.79 5.79 0 01-.51-1.23c-.3-.79-.69-2-1.15-3.41-.92-2.9-2.06-6.95-3.3-11.41s-2.43-8.49-3.4-11.36c-.48-1.44-.88-2.61-1.16-3.4a7.35 7.35 0 01-.39-1.27 5.84 5.84 0 01.59 1.19c.35.77.8 1.92 1.33 3.34 1.07 2.86 2.32 6.87 3.57 11.35s2.3 8.4 3.14 11.44c.39 1.38.71 2.54 1 3.47a7.53 7.53 0 01.28 1.29z" fill="#e0e0e0"/><path d="M328.15 390.13a7.55 7.55 0 01-1.5.45c-1 .25-2.37.61-4.09 1.11-3.45 1-8.16 2.48-13.29 4.38s-9.7 3.83-13 5.31c-1.64.73-2.95 1.36-3.86 1.79a8.72 8.72 0 01-1.43.62 7.51 7.51 0 011.33-.82c.88-.49 2.17-1.17 3.79-2 3.23-1.58 7.79-3.57 12.93-5.48a135 135 0 0113.39-4.23c1.74-.46 3.16-.76 4.15-.95a8.54 8.54 0 011.58-.18zm-46.63 59.1a2.61 2.61 0 01-.34-.43l-.89-1.27c-.77-1.12-1.84-2.75-3.13-4.79-2.6-4.08-6-9.83-9.67-16.23s-7-12.17-9.53-16.29l-3-4.89-.8-1.33a1.91 1.91 0 01-.25-.48s.13.13.34.42.54.76.89 1.28c.77 1.11 1.84 2.74 3.14 4.79 2.59 4.08 6 9.82 9.67 16.22s7 12.17 9.52 16.3l3 4.88c.32.53.59 1 .8 1.33a1.85 1.85 0 01.25.49z" fill="#e0e0e0"/><path d="M329.7 424.18a1.86 1.86 0 01-.47.3l-1.39.74-5.16 2.69c-4.36 2.28-10.34 5.49-16.94 9s-12.61 6.72-17 8.9c-2.2 1.09-4 2-5.24 2.53l-1.5.66a2.32 2.32 0 01-.52.2 2.15 2.15 0 01.47-.3l1.4-.74 5.16-2.7c4.35-2.27 10.33-5.48 16.93-9s12.62-6.71 17-8.89c2.2-1.09 4-2 5.24-2.53l1.44-.66a2 2 0 01.58-.2z" fill="#e0e0e0"/><path d="M153.4 247.41s-11.88 1.65-5.21 27.67 12.33 39.44 12.33 39.44.89 5.89-3.86 5.71-14.44-4-17.73 1.09c-3.4 5.32-.42 11.72 7 18.43s23.24 22 24.66 23.39 2.46 4.25-.8 4.64-26.38-2.32-27 8.73 23.21 26.33 25.78 28.05 3 3.06 2.4 4.56-8.26-.15-14.87-.66-14.37.08-14.2 6.48 12.69 22.6 49.19 34.64l17.29 4.47 12.77-12.58c25.7-28.59 28.51-48.86 25.48-54.5s-10-2.29-15.54 1.43-11.34 9-12.58 8-1.56-2.38-.18-5.15 14.47-27.87 8.43-37.15-24.76 4.54-27.76 5.81-3.54-1.75-3-3.63 6.64-23 9.78-32.55 2.54-16.57-3.06-19.49c-5.4-2.81-11.89 5.35-15.93 7.87s-6.18-3-6.18-3-1.76-14.45-8.9-40.35-18.53-21.26-18.53-21.26" fill="#ebebeb"/><path d="M208.37 458.35c-5.17-19-13.8-53-21.35-82.19s-14.41-55.51-19.49-74.57c-2.54-9.52-4.6-17.22-6-22.57-.7-2.65-1.25-4.72-1.63-6.14l-.42-1.6c-.09-.36-.12-.55-.12-.55s.07.17.18.53.26.91.46 1.59c.41 1.42 1 3.47 1.74 6.11 1.5 5.31 3.62 13 6.2 22.52 5.17 19 12.1 45.41 19.65 74.54s16.11 63.16 21.19 82.22" fill="#e0e0e0"/><path d="M152.27 327.26a6.46 6.46 0 011.14.61c.71.42 1.73 1.06 3 1.86 2.49 1.61 5.88 3.92 9.57 6.53l9.42 6.72 2.87 2a5.68 5.68 0 011 .79 6.29 6.29 0 01-1.15-.61c-.71-.42-1.73-1.06-3-1.87-2.47-1.63-5.83-4-9.52-6.6l-9.47-6.65-2.88-2a5.87 5.87 0 01-.98-.78zm28.45 17.68c-.13-.08 4.32-7.27 9.93-16.06s10.28-15.85 10.41-15.77-4.32 7.28-9.94 16.07-10.27 15.82-10.4 15.76zm9.58 45.28a5.27 5.27 0 01.95-.92l2.69-2.36c2.27-2 5.4-4.76 8.74-7.94s6.28-6.15 8.38-8.32c1-1 1.82-1.89 2.49-2.57a6.91 6.91 0 011-.91 5.25 5.25 0 01-.8 1.05c-.54.65-1.35 1.57-2.37 2.69-2 2.25-4.92 5.28-8.28 8.46s-6.52 5.92-8.86 7.84c-1.18 1-2.14 1.72-2.82 2.23a6.11 6.11 0 01-1.12.75zm-29.25-10.33a5 5 0 011.18.29l3.17 1c2.66.85 6.33 2.06 10.37 3.42s7.69 2.64 10.32 3.59l3.11 1.14a5.4 5.4 0 011.11.49 4.61 4.61 0 01-1.18-.28l-3.17-1c-2.66-.85-6.33-2.06-10.37-3.43s-7.69-2.64-10.32-3.58l-3.11-1.15a4.53 4.53 0 01-1.11-.49zm3.38 41.05a7.94 7.94 0 011.51.38l4.06 1.24c3.42 1.07 8.13 2.58 13.33 4.29s9.89 3.27 13.28 4.44l4 1.4a10.22 10.22 0 011.45.59 7.91 7.91 0 01-1.52-.38l-4.06-1.24c-3.42-1.07-8.13-2.58-13.33-4.29s-9.89-3.28-13.27-4.44l-4-1.41a8.65 8.65 0 01-1.45-.58zm36.81 11.79a8.94 8.94 0 011.17-1.19l3.31-3.11c2.79-2.63 6.63-6.28 10.76-10.43s7.78-8 10.4-10.8l3.1-3.32a10.62 10.62 0 011.19-1.18 8.86 8.86 0 01-1 1.32c-.68.83-1.7 2-3 3.44-2.55 2.88-6.15 6.78-10.3 10.93s-8 7.77-10.88 10.33c-1.44 1.27-2.61 2.3-3.44 3a9.94 9.94 0 01-1.31 1.01z" fill="#e0e0e0"/><path d="M101.8 92.24l-9.76-3s-2.56 8.2-11.12 5.69a8.29 8.29 0 01-6.07-7.43A9.12 9.12 0 0178 79.77c2.51-2.22 6.91-3.57 13.12-.36l6.87-22-9.65-3-4 12.89s-14.64-.73-19.29 14.18c-4.45 14.27 7.31 21.58 12.79 23.29 4.16 1.3 18.77 4.74 23.96-12.53zm-2.359-39.353l-9.794-3.056 2.854-9.145 9.794 3.056z" fill="#f5f5f5"/><path d="M128.73 67.4l3.91-1a3.43 3.43 0 012.53-4.23 3.28 3.28 0 013.6 1.21 3.61 3.61 0 01.55 3.23c-.37 1.27-1.56 2.65-4.32 2.88l2.33 8.81 3.86-1-1.36-5.16a7.79 7.79 0 003.47-8.8c-1.5-5.72-7-5.69-9.17-5.12-1.68.39-7.29 2.3-5.4 9.18zm9.884 12.24l3.938-1.055.985 3.676-3.938 1.056zm312.926 88.97l3.8 1.37a3.44 3.44 0 014.5-2 3.26 3.26 0 012.26 3 3.63 3.63 0 01-1.38 3c-1 .83-2.79 1.28-5.19-.1l-3.11 8.57 3.76 1.36 1.82-5a7.81 7.81 0 007.87-5.26c2-5.56-2.51-8.65-4.64-9.42-1.63-.64-7.33-2.25-9.69 4.48zm.26 15.555l3.818 1.382-1.291 3.564-3.817-1.383z" fill="#ebebeb"/><path d="M48.26 212.13l8-3.1s-2.6-6.75 4.37-9.58a7 7 0 017.9 1.73 7.73 7.73 0 011.94 6.73c-.5 2.78-2.7 6-8.49 7.11l7 18.13 8-3.06-4.1-10.62s10-7.18 5.31-19.48c-4.55-11.76-16.19-10.42-20.66-8.69-3.45 1.33-14.89 6.7-9.27 20.83zm22.164 24.76l8.072-3.11 2.904 7.54-8.071 3.11zm384.246 5.75l-5.7 2.19s1.84 4.79-3.1 6.79a5 5 0 01-5.6-1.22 5.47 5.47 0 01-1.37-4.77c.36-2 1.92-4.24 6-5l-4.9-12.89-5.64 2.17 2.9 7.53a11.79 11.79 0 00-3.76 13.8c3.21 8.33 11.43 7.39 14.63 6.16 2.42-.95 10.52-4.75 6.54-14.76zm-15.706-17.546l-5.72 2.204-2.056-5.338 5.72-2.203z" fill="#f5f5f5"/><path d="M470.77 463.77c0 .15-98.85.26-220.76.26s-220.78-.11-220.78-.26 98.83-.26 220.78-.26 220.76.12 220.76.26z" fill="#263238"/><path d="M92.64 437.8c1-3.68-1.47-7.37-4.17-10s-5.93-5.05-7.34-8.58c-2.28-5.72.78-13.12-3.1-17.89-2.29-2.8-6.39-3.74-8.42-6.74a15.23 15.23 0 01-1.83-5.35 54.32 54.32 0 00-13.53-25.32 47.22 47.22 0 005.31 24.4c1.57 3 3.51 5.92 4 9.27.85 5.43-2.19 11-.85 16.36 1.53 6.1 8.38 10.19 8.7 16.47.28 5.31-4.35 10-4 15.28a14.22 14.22 0 002.39 6.3c4.1 6.83 10.14 11.53 19.28 11.38l11.2.39z" fill="#ff725e"/><path d="M92.64 437.8c1-3.68-1.47-7.37-4.17-10s-5.93-5.05-7.34-8.58c-2.28-5.72.78-13.12-3.1-17.89-2.29-2.8-6.39-3.74-8.42-6.74a15.23 15.23 0 01-1.83-5.35 54.32 54.32 0 00-13.53-25.32 47.22 47.22 0 005.31 24.4c1.57 3 3.51 5.92 4 9.27.85 5.43-2.19 11-.85 16.36 1.53 6.1 8.38 10.19 8.7 16.47.28 5.31-4.35 10-4 15.28a14.22 14.22 0 002.39 6.3c4.1 6.83 10.14 11.53 19.28 11.38l11.2.39z" opacity=".3"/><path d="M102.54 464a9 9 0 003.09-.06 19.27 19.27 0 003.63-.92 15.55 15.55 0 004.5-2.46 6.22 6.22 0 001.85-2.47 11.67 11.67 0 00.52-3.34 32.52 32.52 0 01.27-3.62 9.79 9.79 0 011.36-3.6c1.32-2.32 3.52-4.52 4.22-7.67s.22-6.45-.3-9.81-1-7 .26-10.52 3.66-6.67 4.89-10.61.65-8.28.91-12.51a16.5 16.5 0 011.46-6.22c.9-2 2.16-3.85 3.14-5.93 2-4.22 2.34-9 2.88-13.69.27-2.36.53-4.75.8-7.15a35.54 35.54 0 011.25-7.17 64.16 64.16 0 012.68-6.93 24.09 24.09 0 001.3-3.61 36.45 36.45 0 00.36-3.86 45.81 45.81 0 00-.3-7.75c-.3-2.58-.77-5.14-1.05-7.73v-.45l-.06-.51-.45.22a17.3 17.3 0 00-6 5.09 27.65 27.65 0 00-3.71 6.83c-1.87 4.81-2.54 9.85-3.48 14.66s-2.14 9.54-4.6 13.54c-1.23 2-2.72 3.82-4 5.76a15.78 15.78 0 00-2.78 6.38c-.67 4.74 1.94 8.9 1.4 13.1a14.49 14.49 0 01-2 5.81c-1 1.79-2.21 3.45-3.35 5.11a32.76 32.76 0 00-3 5.17 16.27 16.27 0 00-1.38 5.61c-.27 3.78.26 7.36 0 10.74a24.75 24.75 0 01-2.77 9.21c-1.35 2.75-2.86 5.24-4.12 7.66-.63 1.2-1.22 2.38-1.7 3.57a17.87 17.87 0 00-1 3.54 22.2 22.2 0 00-.08 6.39 16.11 16.11 0 003.2 8.15 8.11 8.11 0 00.91 1 4.55 4.55 0 00.73.62c.42.31.64.45.64.45a13.93 13.93 0 01-2.17-2.14 16.15 16.15 0 01-3-8.1 22.09 22.09 0 01.14-6.3 17 17 0 011-3.45 36.53 36.53 0 011.71-3.52c1.27-2.4 2.79-4.88 4.17-7.65a25 25 0 002.86-9.37c.3-3.45-.22-7.05.06-10.73a16.06 16.06 0 011.35-5.43 32.62 32.62 0 013-5.06c1.14-1.66 2.35-3.32 3.39-5.15a15 15 0 002.14-6.05c.54-4.47-2.05-8.65-1.38-13.06a15.33 15.33 0 012.69-6.1c1.27-1.91 2.77-3.73 4-5.78 2.55-4.11 3.78-8.93 4.71-13.76s1.62-9.83 3.46-14.55a26.91 26.91 0 013.61-6.64 16.59 16.59 0 015.77-4.88l-.51-.29c0 .15 0 .3.05.46.28 2.62.75 5.18 1 7.74a44.36 44.36 0 01.29 7.63 37.37 37.37 0 01-.34 3.74 22.5 22.5 0 01-1.26 3.49 66.05 66.05 0 00-2.7 7 36.3 36.3 0 00-1.26 7.28c-.26 2.41-.53 4.8-.79 7.16-.54 4.71-.89 9.41-2.8 13.48-1 2-2.2 3.91-3.13 5.95a17.11 17.11 0 00-1.5 6.45c-.25 4.32.31 8.55-.86 12.37s-3.6 7-4.83 10.61-.78 7.43-.24 10.78 1.08 6.65.36 9.62-2.78 5.19-4.12 7.57a10.19 10.19 0 00-1.39 3.75 31.48 31.48 0 00-.24 3.66 11.2 11.2 0 01-.48 3.26 5.89 5.89 0 01-1.73 2.35 15.41 15.41 0 01-4.39 2.48 19.39 19.39 0 01-3.59 1 13.76 13.76 0 01-2.27.22c-.63-.06-.9-.06-.9-.06z" fill="#263238"/><path d="M137.92 332.1a1.2 1.2 0 00-.11.34l-.24 1c-.22.89-.49 2.22-.91 3.88s-1.45 3.54-2.32 5.85a83.47 83.47 0 00-2.66 7.94c-.86 3-1.61 6.3-2.41 9.86a41.47 41.47 0 01-3.58 10.93c-.92 1.82-2 3.66-2.77 5.68a26.05 26.05 0 00-1.61 6.42 131.08 131.08 0 01-2.42 13.55c-2.24 9.17-4.38 17.91-6.33 25.87s-3.79 15.08-5.31 21.1-2.67 10.82-3.51 14.25c-.39 1.64-.7 2.93-.92 3.88-.09.41-.17.74-.23 1a1.85 1.85 0 000 .35 1.31 1.31 0 00.13-.33c.07-.27.17-.59.29-1 .25-.93.6-2.22 1.05-3.85.9-3.4 2.17-8.23 3.74-14.18s3.4-13.15 5.45-21.06 4.13-16.71 6.39-25.89A124.72 124.72 0 00122 384.1a25.83 25.83 0 011.56-6.27c.79-2 1.8-3.79 2.72-5.63 2-3.65 2.79-7.57 3.58-11.1s1.49-6.87 2.31-9.85 1.68-5.64 2.54-7.94 1.81-4.2 2.22-5.92.6-3 .78-3.92q.1-.62.18-1c.03-.25.05-.37.03-.37z" fill="#263238"/><path d="M104.52 464.05c7.31-4.35 9.41-17.55 6.36-25.49s-8.39-15.2-9.21-23.67c-.64-6.51 1.5-13.19 0-19.55-2.05-8.59-10.43-15.24-10.33-24.07.05-4.95 2.87-9.61 2.64-14.56-.27-6.06-4.93-10.88-7.81-16.22-4.42-8.19-4.71-17.86-6.22-27s-5-19-13.14-23.51c-1.2 7.79-3.25 13.13-2.61 23.68.24 3.79 4.64 11 5.24 19.35.36 5 .6 9.94.91 14.9s.61 9.76 2.34 14.28c1.33 3.47 3.46 6.62 4.45 10.2 1.85 6.73-.59 14 .91 20.84 1.27 5.78 5.27 10.75 6.09 16.61 1.14 8.23-4.18 16.79-1.46 24.64 1.36 3.9 4.56 7 5.47 11.05.71 3.12-.06 6.43.58 9.56 1 5.06 10.66 9 15.81 8.67" fill="#ff725e"/><path d="M68.81 297.67a2.37 2.37 0 000 .44c0 .33.1.75.16 1.28.17 1.13.36 2.78.74 4.92s1.52 4.56 2.4 7.48 1.86 6.26 2.68 10 1.54 7.91 2.27 12.38 1.53 9.34 3.75 14c1 2.33 2.18 4.67 3 7.17a32.35 32.35 0 011.54 7.9 158.1 158.1 0 002.15 17c2.24 11.54 4.37 22.53 6.31 32.54s3.89 18.94 5.45 26.5 2.84 13.6 3.73 17.86l1 4.85c.12.52.21.93.29 1.25a2.49 2.49 0 00.12.43 1.83 1.83 0 000-.44c-.06-.33-.13-.74-.22-1.27-.22-1.16-.53-2.8-.92-4.88-.84-4.27-2-10.37-3.51-17.9s-3.3-16.56-5.29-26.53-4-21-6.25-32.53a159.51 159.51 0 01-2.16-17 32.82 32.82 0 00-1.59-8.06c-.89-2.54-2.06-4.89-3.09-7.21-2.2-4.59-3-9.38-3.76-13.83s-1.49-8.63-2.36-12.39-1.82-7.12-2.8-10-2.07-5.32-2.51-7.41-.65-3.77-.86-4.88c-.1-.52-.18-.94-.24-1.27a3.39 3.39 0 00-.03-.4z" fill="#263238"/><path d="M421.47 88.77h-4a3.39 3.39 0 01-3.47 3.41 3.22 3.22 0 01-3.12-2.06 3.56 3.56 0 01.28-3.22c.68-1.12 2.16-2.13 4.84-1.66v-9h-3.93v5.26a7.68 7.68 0 00-5.51 7.5c0 5.82 5.22 7.17 7.46 7.17 1.71.04 7.53-.37 7.45-7.4zm-5.44-14.35h-3.99v-3.73h3.99z" fill="#ff725e"/><path d="M443.28 83.45a3.26 3.26 0 000-.51v-1.48c0-.32 0-.69-.05-1.09s-.11-.84-.18-1.3-.14-1-.22-1.53l-.42-1.7a27.74 27.74 0 00-3.6-8.25 29.09 29.09 0 00-21.89-13.38 29.4 29.4 0 00-4-.08c-.67 0-1.36 0-2 .13l-2.06.31a29.69 29.69 0 00-8.12 2.77 31.68 31.68 0 00-7.29 5.31 30.35 30.35 0 00-5.49 7.64A27.73 27.73 0 00385 79.6a18.87 18.87 0 00-.21 2.49 21 21 0 00-.05 2.51 29.51 29.51 0 004.85 15.05v-.31c-1.39 3.47-2.76 6.88-4.1 10.2l-.24.61.63-.18 10.9-3-.26-.06a29.18 29.18 0 0012.48 5.46 26 26 0 006.38.39 19.47 19.47 0 003.07-.29l1.49-.23c.49-.09 1-.24 1.44-.35A29.17 29.17 0 00438 100.5a27.83 27.83 0 003.57-6.77c.19-.53.37-1 .54-1.52s.26-1 .37-1.45.23-.91.33-1.33.13-.83.19-1.22c.09-.77.23-1.45.26-2s0-1.08 0-1.5v-1.22a1.05 1.05 0 000 .31c0 .23 0 .53-.07.91s-.06.91-.1 1.49-.19 1.26-.31 2a29 29 0 01-21.51 23.2c-.47.11-.94.25-1.42.34l-1.47.22a19.93 19.93 0 01-3 .27 26.63 26.63 0 01-6.26-.41 28.85 28.85 0 01-12.19-5.37l-.12-.1h-.15l-10.91 3 .38.43 4.11-10.19.06-.16-.09-.15a28.76 28.76 0 01-4.12-9.79 29.3 29.3 0 01-.62-4.92 20 20 0 01.05-2.45 16.37 16.37 0 01.2-2.43 27.06 27.06 0 012.79-9.11 30.11 30.11 0 015.35-7.48 30.88 30.88 0 017.14-5.21 28.79 28.79 0 017.95-2.75l2-.31c.67-.1 1.34-.09 2-.14a29.9 29.9 0 013.91.07 28.78 28.78 0 0121.63 13 27.69 27.69 0 013.66 8.12l.45 1.68c.09.53.17 1 .25 1.5s.14.9.21 1.3.05.76.08 1.08c0 .62.08 1.11.11 1.47a1.69 1.69 0 00.03.54z" fill="#263238"/><path d="M145.07 201.38h57.75s0-48.49 50.39-49.35c26.17-.46 39.74 16.69 45.26 29.82 6.4 15.25 4.46 32.63-4.12 46.78-9.79 16.15-30.89 32.38-69.81 25.52l-.37 128.67h57.11v-76.28s80.09-20.7 80.09-109c0-84.45-68.29-102.69-105-103.87-20.42-.65-27.82-1.53-53.08 2.06-32.19 4.6-58.9 41.98-58.22 105.65zm78.94 208.26h57.96v54.13h-57.96z" fill="#ff725e"/><path opacity=".1" d="M224.01 409.64h57.96v54.13h-57.96zm-78.94-208.26h57.75s0-48.49 50.39-49.35c26.17-.46 39.74 16.69 45.26 29.82 6.4 15.25 4.46 32.63-4.12 46.78-9.79 16.15-30.89 32.38-69.81 25.52l-.37 128.67h57.11v-76.28s80.09-20.7 80.09-109c0-84.45-68.29-102.69-105-103.87-20.42-.65-27.82-1.53-53.08 2.06-32.19 4.6-58.9 41.98-58.22 105.65z"/><path d="M121.14 201.38h57.76s0-48.49 50.39-49.35c26.17-.46 39.74 16.69 45.25 29.82 6.41 15.25 4.47 32.63-4.11 46.78-9.79 16.15-31.26 30.83-70.18 24v130.19h57.11v-76.28s80.09-20.7 80.09-109c0-84.45-75.74-104.06-108.15-104.06-24.79.03-109.25 6.02-108.16 107.9z" fill="#ff725e"/><path d="M121.14 201.38h57.76s0-48.49 50.39-49.35c26.17-.46 39.74 16.69 45.25 29.82 6.41 15.25 4.47 32.63-4.11 46.78-9.79 16.15-31.26 30.83-70.18 24v130.19h57.11v-76.28s80.09-20.7 80.09-109c0-84.45-75.74-104.06-108.15-104.06-24.79.03-109.25 6.02-108.16 107.9z" opacity=".3"/><path fill="#ff725e" d="M200.09 409.64h57.96v54.13h-57.96z"/><path opacity=".3" d="M200.09 409.64h57.96v54.13h-57.96z"/><path d="M235.81 152.29a5 5 0 01-.86 0c-.57 0-1.39-.19-2.46-.2a49.89 49.89 0 00-9.06.38 64.18 64.18 0 00-13.07 3.07 55.92 55.92 0 00-7.28 3.14 38.48 38.48 0 00-7.13 4.61 35.24 35.24 0 00-5.83 6.16 60.36 60.36 0 00-4.37 6.62 59.19 59.19 0 00-5.17 12.38 50.35 50.35 0 00-1.74 8.9c-.12 1.06-.15 1.9-.18 2.46a4.55 4.55 0 01-.08.86 4.78 4.78 0 010-.86c0-.57 0-1.41.09-2.48a46 46 0 011.59-9 57.6 57.6 0 015.1-12.52 59.89 59.89 0 014.39-6.69 35 35 0 015.9-6.25 38.76 38.76 0 017.22-4.67 56 56 0 017.33-3.2 62.82 62.82 0 0113.19-3 46 46 0 019.11-.21 21.56 21.56 0 012.46.3 6.21 6.21 0 01.85.2zM322.83 142s-.07-.07-.19-.22-.3-.41-.5-.7l-1.91-2.7c-.41-.58-.85-1.25-1.37-1.94l-1.8-2.19-2.06-2.53c-.75-.88-1.63-1.73-2.51-2.66s-1.78-1.92-2.8-2.87-2.11-1.92-3.23-2.92c-.56-.5-1.11-1-1.71-1.53l-1.86-1.47c-1.27-1-2.53-2-3.9-3a125.71 125.71 0 00-18.93-11.18l-5.27-2.38-5.23-2c-1.71-.71-3.45-1.21-5.13-1.77s-3.32-1.13-5-1.52l-4.78-1.25c-1.55-.41-3.09-.66-4.56-1s-2.89-.64-4.28-.81l-4-.58c-2.53-.43-4.85-.52-6.87-.72-1-.08-2-.19-2.83-.23l-2.38-.06-3.3-.11h-1.15a.94.94 0 01.29 0h6.55c.87 0 1.82.12 2.84.19 2 .17 4.36.24 6.89.65l4 .54c1.39.16 2.81.52 4.29.79s3 .55 4.59 1l4.8 1.24c1.66.38 3.3 1 5 1.51s3.43 1 5.14 1.76l5.26 2 5.3 2.39a122.56 122.56 0 0119 11.26c1.38 1 2.64 2.07 3.91 3.06l1.86 1.35c.6.5 1.15 1 1.71 1.54l3.22 3c1 1 1.9 2 2.79 2.91s1.74 1.8 2.49 2.69l2 2.55 1.78 2.22c.51.7.94 1.38 1.34 2 .78 1.17 1.39 2.09 1.82 2.75l.47.73a1.15 1.15 0 01.21.21zm-6.02 124a3.09 3.09 0 01-.43.6l-1.38 1.63c-.57.73-1.29 1.6-2.18 2.57s-1.84 2.11-3 3.29-2.4 2.5-3.81 3.83-2.94 2.73-4.57 4.19a124.88 124.88 0 01-23.36 16.11c-1.94 1-3.77 2-5.54 2.77s-3.42 1.56-4.94 2.2-2.92 1.17-4.14 1.64-2.29.85-3.17 1.13l-2 .65a3.49 3.49 0 01-.72.2 3.57 3.57 0 01.68-.3l2-.74c.87-.31 1.92-.71 3.13-1.21s2.61-1 4.11-1.71 3.16-1.38 4.89-2.25 3.58-1.79 5.51-2.8c3.81-2.1 7.92-4.56 12.07-7.4s7.88-5.83 11.2-8.65c1.63-1.44 3.19-2.79 4.58-4.15s2.69-2.59 3.84-3.77 2.16-2.27 3.06-3.23 1.64-1.8 2.24-2.5l1.4-1.59a4.54 4.54 0 01.53-.51zm-60.46 112.28c-.15 0-.27-16.06-.27-35.87s.12-35.88.27-35.88.26 16.06.26 35.88-.12 35.87-.26 35.87zm2.2 81.82c-.15 0-.26-11.27-.26-25.17s.11-25.18.26-25.18.26 11.27.26 25.18-.12 25.17-.26 25.17z" fill="#263238"/><path d="M315.4 193.71c-1 2 2.73 3.64 4.88 4.29a19.62 19.62 0 006.71.46c3-.16 6.07-.44 8.66-1.92a13.82 13.82 0 005.22-5.85 41.15 41.15 0 002.65-7.49s-23.63 1.54-28.12 10.51z" fill="#ff725e"/><path d="M315.4 193.71c-1 2 2.73 3.64 4.88 4.29a19.62 19.62 0 006.71.46c3-.16 6.07-.44 8.66-1.92a13.82 13.82 0 005.22-5.85 41.15 41.15 0 002.65-7.49s-23.63 1.54-28.12 10.51z" opacity=".4"/><path d="M382.14 187.31a22.68 22.68 0 0013.34 4.18 9.43 9.43 0 006.35-2c.77-.71 1.35-1.61 2.14-2.29.54-.46 1.17-.81 1.68-1.3a2.15 2.15 0 00.73-1.9 3.93 3.93 0 00-1.38-2.2c-2.71-1.54-5.95-1.48-9.07-1.41a31.21 31.21 0 00-9.15 1.79c-2.42.82-4.95 2-6.18 4.2" fill="#ff725e"/><path d="M406.38 184a4.15 4.15 0 00-1.77-2c-2.71-1.54-5.56-1.68-8.68-1.61a31.21 31.21 0 00-9.15 1.79c-2.42.82-4.95 2-6.18 4.2l1.54.93a22.68 22.68 0 0013.34 4.18 9.43 9.43 0 006.35-2c.77-.71 1.35-1.61 2.14-2.29.54-.46 1.17-.81 1.68-1.3a2.15 2.15 0 00.73-1.9z" opacity=".4"/><path d="M336 223.2l49.85.66a.65.65 0 00.62-.84l-5.85-18.24s.86-9.12 2.05-20.08c1.81-16.65 4.22-37.58 4.25-37.52-3.41-9.56-23.53-11.18-23.53-11.18l-22.93 1.36-.8-1.35-6.6 3.07a30.13 30.13 0 00-4.14 2.34c-4.36 2.91-14.86 9.6-16.78 17.05-4.43 17.25 3.07 36.5 3.07 36.5l4.82-3.77a33.84 33.84 0 013.82-2.55l9.66 25.89a4.57 4.57 0 00-2.1 3.32c-.08 2.1 1 4.62 4.59 5.34" fill="#ff725e"/><path d="M357.39 192.68c1.58-8.5.75-17.24-.1-25.84-2.76 7-2.66 15-5.59 21.94a9.4 9.4 0 00-.78 2.31 2.59 2.59 0 00.66 2.26c.8.73 2 .33 3.06.21a11.94 11.94 0 002.75-.88" opacity=".3"/><path d="M339 212.36c4 1.39 8.26-1.2 12.49-1.66 2.8-.3 5.6.34 8.38.79a62.86 62.86 0 0017 .42 6.52 6.52 0 002.5-.65 3 3 0 001.31-2.48c-9.42-1-18.83-1.54-28.25-2.51a17.64 17.64 0 00-7.06.23c-2.84.88-5 3.11-7 5.32" opacity=".4"/><path d="M404.94 180.72c-4.07-9.17-18.42-34.53-18.42-34.53l-11.11 13.93 2.59 27.35s5.87-6.55 22.28-6.68a8 8 0 016.1 3.22z" fill="#ff725e"/><path d="M338.23 175.87a37.71 37.71 0 01-1.88-6 37.89 37.89 0 01-1.36-6.11 39.68 39.68 0 011.87 6 38.64 38.64 0 011.37 6.11zm36.34-17.6a6.59 6.59 0 011 .87 29 29 0 012.48 2.72 26.41 26.41 0 015.31 10.86 20.49 20.49 0 01.31 6.7c-.25 2.05-.64 3.85-.9 5.37s-.42 2.76-.5 3.62a6.7 6.7 0 01-.14 1.33 6 6 0 01-.06-1.35 32.42 32.42 0 01.34-3.66c.21-1.53.56-3.35.79-5.36a20.69 20.69 0 00-.35-6.54 27.57 27.57 0 00-5.09-10.74c-1.83-2.46-3.27-3.74-3.19-3.82zM364.39 221a4.26 4.26 0 01-1.09.32 9.73 9.73 0 01-1.3.25c-.51.07-1.09.18-1.74.21a25.07 25.07 0 01-4.58 0 29.57 29.57 0 01-5.5-1.1 30 30 0 01-5.16-2.21 26.39 26.39 0 01-3.79-2.57c-.52-.4-.94-.82-1.32-1.17a11.52 11.52 0 01-.93-.94 3.91 3.91 0 01-.71-.88c.07-.07 1.14 1.13 3.19 2.7a28.77 28.77 0 003.79 2.44 31.79 31.79 0 005.08 2.13 31.34 31.34 0 005.4 1.12 29.61 29.61 0 004.5.14c2.57-.14 4.14-.52 4.16-.44zm15.39-5.68a3.48 3.48 0 01.39 1.46 9 9 0 01-.27 3.64 6.32 6.32 0 01-2 3.1c-.73.61-1.29.8-1.32.75s.44-.38 1.07-1a7.08 7.08 0 001.71-3c.8-2.64.23-4.94.42-4.95zm-2.71 3.52a5.42 5.42 0 01-2.14 5.52c-.11-.11.82-1.1 1.4-2.63s.59-2.88.74-2.89zm-8.92-32.9a21.23 21.23 0 01-1.78 2.56 20.49 20.49 0 01-1.75 2.58 6.41 6.41 0 011.32-2.88 6.31 6.31 0 012.21-2.26zm-34.22-24.22a25.09 25.09 0 01-2.21-1.46 28.39 28.39 0 00-11.81-4.41 22.28 22.28 0 01-2.63-.35 9.76 9.76 0 012.67 0 23.88 23.88 0 0112 4.47 9.54 9.54 0 011.98 1.75zm52.59-15.86a43.23 43.23 0 00-5 4.73 43 43 0 00-3.79 5.78 6.1 6.1 0 01.69-1.94 20.17 20.17 0 012.7-4.18 19.64 19.64 0 013.66-3.37 5.88 5.88 0 011.74-1.02zm-20.58-8.24a2.19 2.19 0 01.22.46 8.92 8.92 0 01.47 1.4 11.77 11.77 0 010 5.42 13.34 13.34 0 01-4.08 6.89 13.85 13.85 0 01-9.2 3.28A15.61 15.61 0 01344 152a17.71 17.71 0 01-5.11-6.19 18.75 18.75 0 01-1.7-5.15 11.26 11.26 0 01-.18-1.46 1.61 1.61 0 010-.52s.11.7.39 1.94a20.39 20.39 0 001.83 5 17.72 17.72 0 005.07 6 15.28 15.28 0 009 3 13.52 13.52 0 008.89-3.12 13.2 13.2 0 004-6.62 12.2 12.2 0 00.18-5.28c-.19-1.32-.49-1.96-.43-1.98z" fill="#263238"/><path d="M369.44 187.71c0-.5-.08-1.09-.52-1.34a1 1 0 00-.9 0 2.47 2.47 0 00-.73.6 12.27 12.27 0 00-2.67 4.27l4.9-.43c-.03-1.01-.05-2.07-.08-3.1zm16.27-10.31a16.07 16.07 0 00-3.56-7.6c2.12 6.92 1.41 10.83.22 15.57l.26-.66c1.37-2.77 3.45-4.51 3.08-7.31z" opacity=".3"/><path fill="#ffbe9d" d="M375.92 409.86l-2.99 44.85-19.5-.23-3.07-46.63 25.56 2.01z"/><path d="M373.48 448.81v1.3s22 8.84 22.21 13l-43.69-.24.68-14.53c6.51 3.05 13.32 3.43 20.8.47z" fill="#ff725e"/><path d="M357.11 453a1.78 1.78 0 00-1.24 2 1.7 1.7 0 002 1.25 1.87 1.87 0 001.3-2.15 1.77 1.77 0 00-2.22-1.07" fill="#fff"/><path d="M352 462.87l.16-3.49L394 460.9s1.94.86 1.71 2.22zm21.64-12.64c0 .21-1.08.3-2.13 1s-1.62 1.57-1.81 1.49.13-1.32 1.42-2.12 2.57-.6 2.52-.37zm4.57 1.92c.05.21-.88.56-1.61 1.46s-.94 1.85-1.16 1.84-.34-1.22.59-2.31 2.17-1.14 2.18-.99zm2.57 5.5c-.2 0-.49-1 .07-2.19s1.55-1.62 1.64-1.45-.53.8-1 1.77-.49 1.85-.71 1.87zm-8.42-375.8c1.13-2.8-.24-6.19-2.67-8a11.64 11.64 0 00-8.69-1.69 34.61 34.61 0 00-8.54 3 9.63 9.63 0 00-16.36 5.34 6.14 6.14 0 00-7.27 8.05l13.52 4.75 14.76 26a11.81 11.81 0 0017.38-15.7 10.25 10.25 0 002.08-2.56 10.34 10.34 0 004.77-6.4c1.31-5.79-3.17-12.11-8.98-12.79z" fill="#263238"/><path d="M363.41 136c-.84-4.23-1.42-7.13-1.41-7.1s8-3.1 7.42-14.23c-.28-5.54-2.39-14.27-4.35-21.35-1.76-6.38-7.71-13.41-14-11.38L332 91.24c-1.91.62-2.24 2.42-1.79 4.37v1l7.41 30.66 3.13 13.7a11.57 11.57 0 0012.92 8.78 11.58 11.58 0 009.74-13.75z" fill="#ffbe9d"/><path d="M365 100.72a1.42 1.42 0 01-1 1.68 1.36 1.36 0 01-1.69-1 1.41 1.41 0 011-1.67 1.35 1.35 0 011.69.99zm-.87-2.13c-.14.22-1.35-.33-2.83 0s-2.42 1.29-2.62 1.14 0-.43.41-.87a3.9 3.9 0 012.05-1.14 3.67 3.67 0 012.3.25c.56.23.75.53.69.62zM350.48 104a1.41 1.41 0 01-1 1.67 1.36 1.36 0 01-1.69-.94 1.42 1.42 0 011-1.68 1.36 1.36 0 011.69.95zm-.73-1.88c-.13.22-1.35-.34-2.83 0s-2.42 1.28-2.62 1.14 0-.43.41-.88a3.93 3.93 0 012.05-1.13 3.75 3.75 0 012.3.24c.53.24.76.51.69.63zm7.53 9.4a10.53 10.53 0 012.32-.94c.37-.12.72-.27.73-.54a2 2 0 00-.49-1.07l-1.73-2.66c-2.42-3.79-4.26-6.93-4.11-7s2.24 2.9 4.66 6.69l1.69 2.68a2.29 2.29 0 01.51 1.45 1 1 0 01-.51.68 2.52 2.52 0 01-.62.23 9.18 9.18 0 01-2.45.48z" fill="#263238"/><path d="M362 128.9a28 28 0 01-15.24-.82s5.24 6.84 15.81 3.57z" fill="#eb996e"/><path d="M350 100c-.1.43-1.63.42-3.37.85s-3.12 1.08-3.4.74c-.12-.16.08-.58.61-1a5.74 5.74 0 012.44-1.21 5.87 5.87 0 012.71 0c.71.13 1.08.42 1.01.62zm13.56-6.13c-.24.4-1.52.3-3 .59s-2.65.79-3 .5c-.16-.15 0-.53.43-1a4.78 4.78 0 012.31-1.06 4.71 4.71 0 012.51.18c.61.28.85.59.75.79z" fill="#263238"/><path d="M336.71 84.08a7.53 7.53 0 0010.21 5.47c1.58-.64 3.22-1.84 4.82-1.26s2.26 2.86 3.79 3.71c2.25 1.26 5-.92 7.51-.7 2 .17 3.51 1.7 5.06 3s3.69 2.28 5.44 1.34a22.1 22.1 0 00-1.77-4.82 7.46 7.46 0 00-3.66-3.46c-.88-.35-1.83-.47-2.67-.9-1.81-.92-2.62-3-3.93-4.57a8.25 8.25 0 00-7-2.8c-2.16.22-4.21 1.31-6.39 1.22-1.61-.07-3.15-.79-4.76-.76-3.13 0-5.48 2.8-7.22 5.41" fill="#263238"/><path d="M347.25 86.37c-1.44-.11-4.38-.41-5.35-1.43a8.44 8.44 0 00-8-2.64 7 7 0 00-5 6.66 10 10 0 00-7.3 7.17 11.62 11.62 0 002.5 10.51 20.82 20.82 0 011.64 2.37 16.94 16.94 0 00-1.78 2.7c-2.29 5.06 3.92 7 3.92 7 0 3.4 3.15 3.38 5.16 3.37s3.12 5.36 4.69 5.15l-1.59-16.57a2.06 2.06 0 00.73.14c3.79.07 2.8-7.11 1.58-9a22.2 22.2 0 002.84-4.58 15.51 15.51 0 00.14-7.66c1.27-.16 6.44-3.15 5.82-3.19z" fill="#263238"/><path d="M336.64 111.54a3.21 3.21 0 00-5.15-1.72c-1 .86-1.53 2.3-.93 4.71 1.62 6.44 7.75 3.49 7.71 3.31s-.93-3.64-1.63-6.3z" fill="#ffbe9d"/><path d="M335.69 115.89s-.09.11-.26.24a1.15 1.15 0 01-.83.23c-.74-.08-1.59-1-1.91-2.17a3.88 3.88 0 01-.09-1.68 1.35 1.35 0 01.63-1.08.59.59 0 01.74.15c.13.15.12.29.16.3s.11-.15 0-.4a.77.77 0 00-.35-.34.88.88 0 00-.66 0 1.65 1.65 0 00-.93 1.29 4 4 0 00.07 1.9 3 3 0 002.33 2.37 1.26 1.26 0 001-.43c.13-.22.13-.37.1-.38z" fill="#eb996e"/><path d="M371.17 102.55s.59-.45 1.41-1.45a9.57 9.57 0 002-5 9.22 9.22 0 00-.36-3.7 7.94 7.94 0 00-2.29-3.56 9.42 9.42 0 00-9.18-1.84c-.3.1-.58.25-.86.37s-.53.3-.79.45l-.4.22v-.44a3.22 3.22 0 00-.81-2.1 5.15 5.15 0 00-1.89-1.28 6.83 6.83 0 00-4.29-.32c-2.76.63-5.1 1.89-7.31 2.15a7.06 7.06 0 01-5-1 3.89 3.89 0 01-1-1c-.16-.27-.24-.42-.22-.43a5.46 5.46 0 001.31 1.27 7 7 0 004.83.81 17 17 0 003.36-1 31.34 31.34 0 013.9-1.27 8.38 8.38 0 012.26-.23 6.87 6.87 0 012.33.54 5.64 5.64 0 012 1.44 3.81 3.81 0 01.94 2.44l-.4-.22.83-.48c.31-.12.6-.28.92-.39a9.83 9.83 0 019.69 1.93 8.28 8.28 0 012.38 3.78 9.73 9.73 0 01-1.91 9 6.35 6.35 0 01-1.11 1 1.9 1.9 0 01-.34.31zm-1.3-22.61a7.83 7.83 0 00-2.08-.71 5.44 5.44 0 00-2.46.23 4.8 4.8 0 00-2.53 1.84l-.25.35-.15-.4a7.51 7.51 0 00-6.1-4.53 9.7 9.7 0 00-5.86 1.7 25.89 25.89 0 01-4.65 2.4 7.37 7.37 0 01-3.52.42 5.37 5.37 0 01-.93-.26c-.2-.09-.31-.14-.3-.16s.45.13 1.26.21a7.68 7.68 0 003.37-.55A28.83 28.83 0 00350.2 78a15.51 15.51 0 012.8-1.37 7.68 7.68 0 013.36-.43 7.89 7.89 0 016.46 4.89h-.39a5.22 5.22 0 012.79-1.94 5.69 5.69 0 012.62-.13 4.68 4.68 0 011.56.6 2 2 0 01.47.32z" fill="#455a64"/><path d="M356.7 114.48a2.16 2.16 0 00-1.7-.48 2.57 2.57 0 00-1.69 1.23s-.05.05-.06.08a1.28 1.28 0 00-.18.76 1.79 1.79 0 001 1.35 2.3 2.3 0 002.62-.38 1.87 1.87 0 00.01-2.56z" fill="#ff725e"/><path d="M357.2 117.59c-.08 0-.17-.3-.44-.71a3.12 3.12 0 00-3.25-1.48c-.49.07-.79.21-.82.14s.2-.31.74-.5a3 3 0 012.15.12 2.92 2.92 0 011.51 1.55c.21.52.18.87.11.88z" fill="#263238"/><path d="M336.79 118.83s.29.5-.09 1.26a2 2 0 01-1.06 1 2 2 0 01-1.77-.21 2 2 0 01-.95-1.5 2.1 2.1 0 01.41-1.38c.52-.66 1.1-.68 1.1-.62s-.44.23-.79.83a1.76 1.76 0 00-.24 1.12 1.6 1.6 0 00.75 1.11 1.65 1.65 0 001.33.2 1.87 1.87 0 00.91-.7c.39-.62.32-1.11.4-1.11z" fill="#ff725e"/><path d="M333.42 118.44c.05 0 0 .34-.47.56a1.31 1.31 0 01-1.75-1.61 1.27 1.27 0 01.53-.65c.41-.25.72-.15.71-.09s-.24.13-.49.38a1 1 0 00.88 1.62c.34-.07.52-.25.59-.21z" fill="#ff725e"/><path d="M344.41 207.25s24.76 1.44 39.4 1.57c11.33.11 16.39-2.9 18.65-10.19 1.9-6.11-2.18-17.84-2.18-17.84-7.67 0-12.4 1.1-17.33 3.41l1.31 5.36-39.92 3.44z" fill="#ffbe9d"/><path d="M392.58 195.28a19.92 19.92 0 00-3.73-3.71 19.6 19.6 0 00-4.82-2.12 3.49 3.49 0 011.59.14 10.58 10.58 0 013.52 1.55 10.45 10.45 0 012.73 2.72c.56.82.77 1.39.71 1.42z" fill="#eb996e"/><path d="M335.35 184.16s-7.66 1.84-13.29 5.6l6 16.26c2 5.34 8.11 8 13 5.2 7.53-4.31 10.19-16.87 10.19-16.87l8.27-35.88-13.71-8.59-10.41 34.28" fill="#ffbe9d"/><path d="M345.76 149.88l.56-11.8-3.07-12c-.17-.66-.25-1.49.29-1.89a1.46 1.46 0 011.85.06c.83.86 4.83 11.35 4.83 11.35s6.07-3.64 7.15-3.82 2.43 3.09 2.52 3.34a20.32 20.32 0 010 2.2s3.75.11 4.09.62a13.23 13.23 0 01.43 3.19s1.59.51 1.84 1.71.77 3.18 0 3.62-2.33 1.3-2.33 1.3-.63 6.12-.8 6.68-3.68 4-3.68 4z" fill="#ffbe9d"/><path d="M333 211.46s.37.22 1.15.47a7.94 7.94 0 003.53.28 9.85 9.85 0 005.12-2.36 23.55 23.55 0 004.76-6 26.05 26.05 0 001.85-4.13 43.83 43.83 0 001.29-4.79c.78-3.37 1.63-7 2.53-10.86 1.8-7.71 3.82-16.33 6-25.62v-.07h.05c.69-.68 1.38-1.37 2.07-2.09.34-.36.68-.72 1-1.09.16-.19.33-.38.46-.57a1.44 1.44 0 00.17-.61c.27-2 .48-4.07.7-6.16v-.13l.12-.06 1.91-1.07c.14-.09.36-.19.45-.27a.57.57 0 00.18-.33 3.6 3.6 0 000-1 15.17 15.17 0 00-.45-2.17 2.7 2.7 0 00-1.59-1.29l-.17-.06v-.17c0-.58-.06-1.18-.13-1.77a8.1 8.1 0 00-.13-.88 1.46 1.46 0 00-.12-.37c0-.07 0 0-.06-.06a1 1 0 00-.17-.07 17.91 17.91 0 00-3.66-.41h-.26v-2.26a2.1 2.1 0 00-.24-.67c-.1-.24-.22-.47-.34-.71a8.85 8.85 0 00-.82-1.32 2.19 2.19 0 00-.51-.5.48.48 0 00-.53-.06 11.74 11.74 0 00-1.41.65c-1.86 1-3.68 2-5.46 3.08l-.26.16-.11-.28c-.94-2.37-1.88-4.71-2.8-7-.46-1.15-.91-2.3-1.37-3.43a1.4 1.4 0 00-1.1-1 1.11 1.11 0 00-1.3.48 1.16 1.16 0 00-.15.71c0 .22.14.56.2.83.16.58.31 1.15.46 1.72.3 1.15.59 2.28.89 3.4q.88 3.38 1.73 6.6v.07q-.3 6.16-.57 11.8V150l-9.11 29.64-2.57 8.25c-.3.93-.53 1.66-.69 2.17s-.26.73-.26.73.05-.26.19-.75l.63-2.19a1778 1778 0 002.46-8.28c2.16-7.16 5.23-17.38 8.94-29.7v.05q.26-5.62.53-11.8v.07c-.57-2.15-1.16-4.35-1.75-6.59l-.9-3.4c-.15-.57-.3-1.15-.46-1.72a8.81 8.81 0 01-.21-.91 1.66 1.66 0 01.21-1 1.6 1.6 0 01.81-.68 2.06 2.06 0 011.95.44 2 2 0 01.54.86l1.37 3.43c.93 2.3 1.86 4.64 2.81 7l-.37-.13c1.79-1.06 3.59-2.12 5.49-3.11a14.39 14.39 0 011.48-.67 1 1 0 01.5-.07 1.2 1.2 0 01.48.18 2.86 2.86 0 01.63.62 8.56 8.56 0 01.87 1.4c.13.25.25.49.36.74a2.57 2.57 0 01.28.85v2l-.25-.27a17.84 17.84 0 013.82.44 1.74 1.74 0 01.25.11.65.65 0 01.26.26 2.17 2.17 0 01.17.51c.06.32.1.62.14.93.06.61.1 1.21.13 1.81l-.18-.24a3.14 3.14 0 011.91 1.58 15.45 15.45 0 01.48 2.32 3.54 3.54 0 010 1.21 1.05 1.05 0 01-.36.62 5.09 5.09 0 01-.51.3l-1.9.99.13-.19c-.23 2.09-.44 4.14-.72 6.17l-.06.39a.88.88 0 01-.19.43 5.15 5.15 0 01-.49.62c-.34.38-.68.75-1 1.11-.69.72-1.38 1.41-2.08 2.09l.07-.12c-2.2 9.28-4.24 17.9-6.07 25.61-.91 3.85-1.78 7.48-2.58 10.84a41.26 41.26 0 01-1.32 4.82 27.12 27.12 0 01-1.9 4.17A23.62 23.62 0 01343 210a10 10 0 01-5.25 2.34 7.8 7.8 0 01-3.59-.36 6 6 0 01-.85-.39z" fill="#eb996e"/><path d="M359.9 137.35c0 .07-.34.11-.87.13a10.05 10.05 0 00-2 .24 3.89 3.89 0 00-1.7.91c-.36.34-.52.63-.6.6s0-.39.33-.85a3.32 3.32 0 011.84-1.16 5.53 5.53 0 012.14-.1c.54.07.86.16.86.23z" fill="#eb996e"/><path d="M357 137.46c-.13-.05-.14-.36 0-.69s.34-.56.47-.51.15.36 0 .69-.37.56-.47.51zm7.58 3.63a9.26 9.26 0 01-3 .41 2 2 0 00-1.66.79c-.26.41-.17.75-.25.77s-.32-.33-.07-.93a1.57 1.57 0 01.71-.79 3 3 0 011.2-.36 8.23 8.23 0 013.07.11zm-.66 3.6c.14 0 .22.74.18 1.65s-.19 1.63-.33 1.63-.23-.75-.19-1.66.19-1.63.34-1.62z" fill="#eb996e"/><path d="M368.07 171.62l.89-3.06a.84.84 0 011.4-.36l1.17 1.19.72-2.89a.84.84 0 011.57-.16l1.63 3.42zm7.4-.55a13.5 13.5 0 01-3.53 1.14 13.07 13.07 0 01-3.66.64 26.68 26.68 0 017.19-1.78zM316 154s-.37.38-.89 1.19a10.06 10.06 0 00-1.35 3.77 26.74 26.74 0 00-.18 6c.11 2.27.29 4.75.57 7.35a128.79 128.79 0 002.11 13.22c.35 1.68.67 3 .89 4 .1.42.19.77.26 1.07s.08.38.08.38-.05-.12-.12-.36-.18-.66-.29-1.07c-.25-.93-.59-2.27-1-3.95a118.68 118.68 0 01-2.17-13.23c-.28-2.6-.45-5.09-.55-7.36a26.81 26.81 0 01.22-6 10 10 0 011.44-3.8A5.8 5.8 0 01316 154zm21.05-13.62l-.23.12-.66.32c-.57.27-1.4.67-2.39 1.22a87.84 87.84 0 00-7.51 4.7c-2.86 2-5.39 3.82-7.24 5.14l-2.19 1.55-.61.41a1.22 1.22 0 01-.22.14.81.81 0 01.2-.17l.58-.44 2.15-1.61c1.83-1.35 4.35-3.23 7.21-5.19a76.06 76.06 0 017.56-4.66c1-.53 1.84-.91 2.43-1.16l.67-.28c.2-.07.2-.1.25-.09zm47.69 6.51a.73.73 0 01-.17-.13l-.45-.39a18.68 18.68 0 00-1.75-1.31 36.22 36.22 0 00-6.43-3.25 64.68 64.68 0 00-6.85-2.28c-.9-.25-1.62-.43-2.13-.55l-.57-.15a.8.8 0 01-.2-.07h.21l.58.11c.51.1 1.24.26 2.14.49a55.55 55.55 0 016.9 2.23 32.88 32.88 0 016.43 3.32 12.88 12.88 0 012.29 1.98zm-47.41 76.33a1.41 1.41 0 01-.39-.13 7 7 0 01-1-.54 4.78 4.78 0 01-2.18-2.94 5.75 5.75 0 01.39-3.66 4.81 4.81 0 01.58-1c.16-.21.27-.31.28-.3a11.33 11.33 0 00-.73 1.33 5.93 5.93 0 00-.31 3.55 4.85 4.85 0 002 2.87c.83.6 1.38.78 1.36.82z" fill="#fff"/><path d="M334.15 212.39a5 5 0 01.47 1.26 4.62 4.62 0 01.28 1.31 4.11 4.11 0 01-.48-1.25 4 4 0 01-.27-1.32z" fill="#fff"/><path d="M347.67 436.6l30.5-.15-.55-105.45-.29-107.27-41.33-.53-7.43 14a50.28 50.28 0 00-5.71 18.14c-.5 4.86 3.14 20.66 4.4 24.66l11.37 36.06z" fill="#263238"/><path d="M386.28 223.86l33.52 91.37a42.14 42.14 0 01-4.13 35.7l-38.92 76-21.88-27.38 32.56-68-28.7-46.55 4.83-61 13.52-.22z" fill="#263238"/><path d="M374.55 254.47v.47c0 .31.05.79.09 1.38.07 1.23.16 3 .28 5.29.23 4.63.55 11.28 1 19.49s.83 18 1.33 28.9c.24 5.44.5 11.15.76 17.07.19 3 .11 6 .14 9s0 6.16 0 9.3c0 25.13.08 47.88.11 64.37v26.2-1.38c0-1.24 0-3-.06-5.31 0-4.63-.08-11.28-.14-19.5-.07-16.49-.16-39.24-.26-64.37v-9.3c0-3.06.06-6.08-.13-9-.25-5.91-.5-11.62-.73-17.06-.46-10.88-.88-20.67-1.22-28.91s-.59-14.86-.78-19.49c-.08-2.28-.14-4.06-.18-5.3v-1.38c0-.38-.21-.47-.21-.47zm-.77-28.81a3.62 3.62 0 01.21 1c.11.64.23 1.57.37 2.73.26 2.31.54 5.52.7 9.07s.17 6.77.12 9.1c0 1.16-.07 2.11-.12 2.76a3.38 3.38 0 01-.12 1 28.56 28.56 0 01-.13-3.76c0-2.33-.11-5.53-.27-9.08s-.38-6.74-.55-9a33.71 33.71 0 01-.21-3.82zm-6.72 2.06c.05.07-.52.33-.68 1.14a1.31 1.31 0 00.39 1.22 1.41 1.41 0 001.5.27 1.44 1.44 0 00.78-1.31 1.31 1.31 0 00-.67-1.09 2.43 2.43 0 00-1.31-.23s.1-.13.36-.21a1.7 1.7 0 011.12.11 1.63 1.63 0 011 1.39 1.79 1.79 0 01-3.08 1.42 1.64 1.64 0 01-.41-1.65 1.69 1.69 0 01.64-.93c.2-.14.35-.16.36-.13zm-16-1.81a3 3 0 01.27 1 9.46 9.46 0 01.09 2.72 11.11 11.11 0 01-1.15 3.87 10.25 10.25 0 01-7.82 5.61 10.84 10.84 0 01-4-.15 9.44 9.44 0 01-2.54-.95 3.17 3.17 0 01-.82-.56 18.14 18.14 0 003.44 1.15 10.51 10.51 0 0012.57-9 17.4 17.4 0 00-.04-3.69zm39.24 8.76a4.2 4.2 0 01-1.93-.23 8.91 8.91 0 01-3.93-2.52 8.79 8.79 0 01-2.13-4.16 4 4 0 010-1.93c.09 0 .1.73.4 1.85a9.67 9.67 0 005.82 6.41c1.04.41 1.78.48 1.77.58zm11.91 98.5a6.38 6.38 0 01-1.77 1.41 8.28 8.28 0 01-2.27 1 5.46 5.46 0 01-3.07-.08 8.94 8.94 0 01-4.28-3.4 8.22 8.22 0 01-1.17-1.92 11.62 11.62 0 011.46 1.69 9.48 9.48 0 004.14 3.13 6.4 6.4 0 005-.73 19.6 19.6 0 011.96-1.1zm-7.64 5.83a25.3 25.3 0 01-3.15-4 26 26 0 01-2.74-4.29 24.45 24.45 0 013.16 4 23.9 23.9 0 012.73 4.29z" fill="#455a64"/><path d="M343.33 258c-.14.05-.49-.52-.8-1.29s-.44-1.42-.31-1.48.49.52.79 1.29.45 1.48.32 1.48zm19.36 2.78c-.15 0-.26-.49-.26-1.1s.11-1.11.26-1.11.26.5.26 1.11-.12 1.1-.26 1.1zm-7.96 10.52c-.14 0-.3-.6-.35-1.37s0-1.39.16-1.4.31.6.36 1.37-.03 1.39-.17 1.4zm-14.54 7.7c-.12.09-.53-.28-1.07-.66s-1-.67-1-.81.66-.06 1.27.38.92 1.09.8 1.09zm25.63 9.81c-.12-.08 0-.51.34-1s.65-.77.77-.69 0 .52-.34 1-.65.77-.77.69zM350 291.58c-.14 0-.26-.83-.26-1.84s.12-1.85.26-1.85.26.83.26 1.85-.15 1.84-.26 1.84zm-5.18 11.22c-.08.11-.6-.12-1.16-.53s-1-.83-.87-.95.61.12 1.17.53.95.83.86.95zm16.02 3.9c.06.13-.26.4-.72.61s-.88.26-.94.13.27-.4.73-.61.88-.26.93-.13zM350 325c-.12.06-.64-.71-1.15-1.73s-.82-1.9-.69-2 .65.71 1.15 1.73.78 1.89.69 2zm17.67-1.7c-.13-.07.1-.74.5-1.51s.85-1.33 1-1.26-.1.74-.51 1.51-.87 1.33-.99 1.26zm-7.75 15.49c-.15 0-.13-.81-.29-1.75s-.4-1.69-.26-1.76.62.64.78 1.68-.09 1.86-.23 1.83zm-8.3 8.85c-.1.1-.6-.28-1.11-.84s-.84-1.09-.73-1.19.6.28 1.11.84.84 1.09.73 1.19zm20.14 3.36c-.1-.1.27-.64.83-1.21s1.08-.94 1.19-.84-.27.65-.82 1.21-1.09.94-1.2.84zm-11.58 13.25c-.14 0-.14-.79 0-1.71s.36-1.64.51-1.62.14.78 0 1.7-.37 1.65-.51 1.63zm-7.79 6.43c-.13.07-.57-.45-1-1.16s-.65-1.34-.53-1.41.56.44 1 1.15.65 1.34.53 1.42zm18.77 8.11c.09.12-.42.63-1.14 1.14s-1.35.83-1.44.71.43-.63 1.14-1.14 1.36-.82 1.44-.71zm-15.64 10.53c-.14-.05 0-.85.13-1.85s.05-1.82.2-1.84.41.82.31 1.89-.51 1.86-.64 1.8zm6.25 15.12c-.12.09-.54-.25-.95-.76s-.64-1-.53-1.09.53.25.94.76.65 1 .54 1.09zm-6.83 10.14c-.12.08-.67-.51-1.23-1.33s-.91-1.54-.8-1.62.67.51 1.23 1.33.92 1.54.8 1.62zm18.81-12.73c-.13-.05-.12-.42 0-.82s.39-.7.53-.65.12.42 0 .83-.39.7-.53.64zm-8.3 24.15c-.13-.07.12-.78.32-1.67s.27-1.64.42-1.65.3.8.09 1.76-.71 1.64-.83 1.56zm5.4-154.54c-.13.06-.45-.34-.71-.9s-.37-1.06-.24-1.12.45.34.71.9.39 1.06.24 1.12zM357 240.32c.08.12-.62.68-1.37 1.48s-1.26 1.54-1.39 1.47.21-1 1-1.82 1.66-1.26 1.76-1.13zm12.33-.32c-.15 0-.38-.57-.73-1.25s-.67-1.24-.56-1.34.65.34 1 1.1.42 1.41.29 1.49zm-38.5 10.11c-.13-.06 0-.72.31-1.48s.65-1.35.79-1.29 0 .71-.31 1.48-.62 1.34-.79 1.29zm1.25 15.1c-.1.11-.67-.21-1.28-.72s-1-1-.94-1.12.67.21 1.28.72 1.03 1.01.94 1.12zm25.26-36.88c-.13 0-.41-.32-.61-.83s-.26-1-.13-1 .41.32.61.83.26.95.13 1zm24.19 7.38c-.14 0-.13-.63 0-1.34s.39-1.27.53-1.24.13.64 0 1.35-.39 1.26-.53 1.23zm5.68 11.43c-.13-.06.05-.8.41-1.67s.75-1.52.88-1.47 0 .8-.4 1.67-.75 1.52-.89 1.47zm-4.05 9.22c-.13.06-.61-.63-1.07-1.54s-.72-1.72-.59-1.78.6.63 1.06 1.54.73 1.71.6 1.78zm8.66 9.22c-.13-.05 0-.63.22-1.29s.57-1.16.71-1.11 0 .63-.22 1.29-.53 1.16-.71 1.11zm-7.74 9.03c-.12.08-.43-.19-.68-.59s-.37-.8-.24-.88.42.19.68.6.36.8.24.87zm1.65 18.64c-.1.09-.73-.4-1.39-1.12s-1.11-1.37-1-1.47.73.4 1.39 1.12 1.11 1.37 1 1.47zm10.15-10.71c-.11.09-.66-.41-1.22-1.13s-.92-1.36-.81-1.45.66.42 1.22 1.13.93 1.37.81 1.45zm5.57 14.77c-.13-.06.1-.81.51-1.67s.84-1.52 1-1.46-.09.82-.5 1.68-.88 1.52-1.01 1.45zm-11.84 12.16c-.13.07-.59-.48-1.23-1.07s-1.23-1-1.17-1.15.82.12 1.52.77 1 1.38.88 1.45zm.74 12.53c0 .14-.5.26-1.11.26s-1.1-.12-1.1-.26.49-.26 1.1-.26 1.11.12 1.11.26zm12.17-3.5c-.13-.07.13-.7.32-1.48s.27-1.46.42-1.47.31.72.09 1.59-.72 1.44-.83 1.36zm12.09 4.21c-.13.05-.5-.66-.82-1.57s-.47-1.69-.34-1.73.51.65.83 1.56.47 1.69.33 1.74zm-1.93 17.2c-.12-.07.19-.91.69-1.88s1-1.7 1.15-1.63-.18.91-.69 1.87-1.02 1.73-1.15 1.64zM401.65 350c-.13.05-.54-.64-.92-1.55s-.57-1.69-.43-1.75.54.64.91 1.55.57 1.75.44 1.75zm-12.22 3.91c0 .14-.42.26-.93.26s-.92-.12-.92-.26.42-.26.92-.26.93.12.93.26zm7 16.09c-.13 0-.41-.55-.62-1.31s-.25-1.42-.11-1.45.41.55.62 1.31.25 1.37.11 1.45zm-8.85-5.4c-.12-.07 0-.54.33-1.05s.66-.86.78-.79 0 .55-.33 1.06-.65.86-.78.78zm-.18 17.71c-.14 0-.34-.67-.44-1.54s-.07-1.58.07-1.6.34.67.44 1.54.07 1.58-.07 1.6z" fill="#fafafa"/></svg>