<svg xmlns="http://www.w3.org/2000/svg" viewBox="0 0 750 500"><path fill="#e0e0e0" d="M62.07 158.61h95.4v157.92h-95.4z"/><path fill="#ebebeb" d="M58.9 158.61h95.4v157.92H58.9z"/><path fill="#fafafa" d="M62.96 161.81h87.28v151.51H62.96z"/><path fill="#ebebeb" d="M79.58 181.5h53.67v112.14H79.58z"/><path d="M79.58 254c-.13-10.48 9.29-20.7 19.67-22.17 4.94-.69 10.2.29 14.82-1.61 8.25-3.38 10.87-14.34 19.18-17.59l.38 81h-54z" fill="#e0e0e0"/><path fill="#ebebeb" d="M187.22 64.14l10.69 33.81h-7.74l-3.41-11.66.46-22.15z"/><path fill="#e0e0e0" d="M49.21 97.92h159.6v9.54H49.21z"/><path fill="#e0e0e0" d="M71.45 105.37h7.72v14.64h-7.72zm99.65 0h7.72v14.64h-7.72z"/><path d="M54.63 53.69s-7.16 5.46-.3 12.67a.64.64 0 00.45.19l62.58-.36s5.35-6 .91-12.9z" fill="#ebebeb"/><path d="M103.53 59.39c0 .07-7.79.12-17.4.12s-17.4 0-17.4-.12 7.79-.13 17.4-.13 17.4.06 17.4.13zm-9.73 2.26c0 .07-3.66.13-8.18.13s-8.19-.06-8.19-.13 3.67-.12 8.19-.12 8.18.05 8.18.12zM109.93 66s.14-.72.33-1.88a25.85 25.85 0 00.36-4.57 26.73 26.73 0 00-.44-4.56c-.22-1.15-.41-1.86-.37-1.87a2 2 0 01.18.48 13.73 13.73 0 01.36 1.36 21.79 21.79 0 01.53 4.59 22.73 22.73 0 01-.44 4.6 13.93 13.93 0 01-.34 1.36 1.81 1.81 0 01-.17.49zm4.67-12.79a1.62 1.62 0 01.28.45 5.81 5.81 0 01.28.56c.1.23.22.48.32.77a13 13 0 01.59 2.07 15.27 15.27 0 01.28 2.64 15.54 15.54 0 01-.23 2.64 13 13 0 01-.57 2.08c-.09.29-.21.55-.3.77a5.22 5.22 0 01-.27.57 3.29 3.29 0 01-.27.46s.3-.7.68-1.86a15.21 15.21 0 00.5-2.06 16.25 16.25 0 00.2-2.6 17.16 17.16 0 00-.24-2.59 15.94 15.94 0 00-.54-2.06c-.39-1.15-.75-1.82-.71-1.84zM64.5 66.07a2.65 2.65 0 01-.29-.42 4.63 4.63 0 01-.29-.52 7.15 7.15 0 01-.33-.72 10 10 0 01-.61-2 12.47 12.47 0 01-.25-2.53A12.86 12.86 0 0163 57.4a11.15 11.15 0 01.67-2 7.86 7.86 0 01.35-.71 3.57 3.57 0 01.31-.51c.18-.27.28-.42.3-.41s-.36.63-.8 1.7a12.83 12.83 0 00-.6 1.94 13.41 13.41 0 00-.23 2.51 13.62 13.62 0 00.21 2.47 13 13 0 00.55 2c.4 1.04.79 1.61.74 1.68zm-6.75 1.53a2.07 2.07 0 01-.32-.48 4.3 4.3 0 01-.33-.59 7.6 7.6 0 01-.38-.8 13.67 13.67 0 01-.72-2.21 16.1 16.1 0 01-.35-2.83 14.81 14.81 0 01.23-2.83 12.73 12.73 0 01.62-2.24 6.57 6.57 0 01.34-.82 5 5 0 01.3-.61 2.1 2.1 0 01.3-.48s-.36.73-.78 2a15 15 0 00-.55 2.22 16.23 16.23 0 00-.21 2.79 16.81 16.81 0 00.33 2.78 14 14 0 00.66 2.19c.47 1.19.9 1.88.86 1.91z" fill="#e0e0e0"/><path d="M115.07 85.25v12H91.9v-12z" fill="#ebebeb"/><path d="M40.23 91.34v.32a6.87 6.87 0 006.9 6.43h69v-.87H99.77a6 6 0 01-6-6 6 6 0 016-6h16.38V84l-69 .24a6.9 6.9 0 00-6.92 7.1z" fill="#e0e0e0"/><path d="M115.07 91.39c0 .07-4.77.13-10.64.13s-10.64-.06-10.64-.13 4.76-.12 10.64-.12 10.64.05 10.64.12zm-.34 2.7c0 .07-4.51.13-10.07.13s-10.07-.06-10.07-.13S99.1 94 104.66 94s10.07 0 10.07.09zm.34 2.47c0 .07-4 .13-9 .13S97 96.63 97 96.56s4.06-.13 9.06-.13 9.01.06 9.01.13zm0-7.56c0 .07-4.67.12-10.42.12S94.22 89 94.22 89s4.67-.13 10.43-.13 10.42.03 10.42.13zm-.34-2.46c0 .07-4.15.13-9.27.13s-9.28-.06-9.28-.13 4.15-.12 9.28-.12 9.27.05 9.27.12z" fill="#e0e0e0"/><path d="M48.59 84.41a16.83 16.83 0 00-1.47 1.74 8.87 8.87 0 00.13 10.26 14.65 14.65 0 001.5 1.71 2.57 2.57 0 01-.5-.37 8 8 0 01-1.15-1.23 8.94 8.94 0 01-1.8-5.22 8.83 8.83 0 011.7-5.25 7.58 7.58 0 011.12-1.26 2.27 2.27 0 01.47-.38z" fill="#f5f5f5"/><path d="M46.26 84.15a14.24 14.24 0 00-1.47 1.74 8.9 8.9 0 00.12 10.27 16.44 16.44 0 001.51 1.71 2.26 2.26 0 01-.5-.37 7.64 7.64 0 01-1.15-1.24 8.73 8.73 0 01-.13-10.47 7.55 7.55 0 011.13-1.26 2.79 2.79 0 01.49-.38zm46.89.26a15.42 15.42 0 00-1.47 1.74 8.89 8.89 0 00.12 10.26 15.2 15.2 0 001.51 1.71 2.57 2.57 0 01-.5-.37 8 8 0 01-1.15-1.23 8.75 8.75 0 01-.12-10.47 7.58 7.58 0 011.12-1.26 2.27 2.27 0 01.49-.38z" fill="#f5f5f5"/><path d="M90.82 84.15a14.24 14.24 0 00-1.47 1.74 8.86 8.86 0 00.12 10.27A16.44 16.44 0 0091 97.87a2.26 2.26 0 01-.5-.37 7.64 7.64 0 01-1.15-1.24 8.73 8.73 0 01-.13-10.47 7.55 7.55 0 011.13-1.26 2.41 2.41 0 01.47-.38zM56.44 93l-.06-4.87a3.8 3.8 0 00-.17-1.26 1.19 1.19 0 00-.93-.78 1.84 1.84 0 00-2 .94 4.55 4.55 0 00-.48 2.39 35.32 35.32 0 00.2 3.88 4.46 4.46 0 00.46 1.76 1.47 1.47 0 002.78-.24 4.68 4.68 0 00.2-1.82zm26.81-1.37c0 .07-5 .12-11.15.12S61 91.7 61 91.63s5-.13 11.14-.13 11.11.06 11.11.13zm-31.43-7.7l-.13-11.35h6.18l.22 11.35h-6.27z" fill="#f5f5f5"/><path d="M57.51 74.6a16.84 16.84 0 01-2.87.12 16.92 16.92 0 01-2.88-.12 16.27 16.27 0 012.88-.13 16.2 16.2 0 012.87.13zm0 1.75a16.84 16.84 0 01-2.87.12 16.92 16.92 0 01-2.88-.12 16.27 16.27 0 012.88-.13 16.2 16.2 0 012.87.13zm0 1.75a16.2 16.2 0 01-2.87.13 16.27 16.27 0 01-2.88-.13 16.27 16.27 0 012.88-.1 16.2 16.2 0 012.87.1zm0 1.75a16.2 16.2 0 01-2.87.13 16.27 16.27 0 01-2.88-.13 16.92 16.92 0 012.88-.12 16.84 16.84 0 012.87.12zm0 1.75a16.2 16.2 0 01-2.87.13 16.27 16.27 0 01-2.88-.13 16.92 16.92 0 012.88-.12 16.84 16.84 0 012.87.12z" fill="#e0e0e0"/><path d="M51.37 72.28h68.48a32.21 32.21 0 010 12.27H51.66v-.84h4.16a2 2 0 002-2V75a2 2 0 00-2-2h-4.45z" fill="#ebebeb"/><path d="M67.56 78.42h1.14a.27.27 0 01.12 0 .24.24 0 01.12.21v.08c0 .09 0 .19-.08.29a3.24 3.24 0 01-.72 1.29 1.34 1.34 0 01-1 .51H67a1.16 1.16 0 01-.78-.56 2.66 2.66 0 01-.34-1.38 3.74 3.74 0 01.14-1 3.29 3.29 0 01.68-1.33 1.37 1.37 0 011-.54.94.94 0 01.43.1 1.4 1.4 0 01.67.83.52.52 0 010 .11.28.28 0 010 .13.24.24 0 01-.21.12h-.08a.25.25 0 01-.16-.16 1.15 1.15 0 00-.14-.27.64.64 0 00-.54-.32.62.62 0 00-.38.13 2.1 2.1 0 00-.63.9 3.39 3.39 0 00-.27 1.29 2.33 2.33 0 00.2 1 .67.67 0 00.6.45.8.8 0 00.55-.33 3.26 3.26 0 00.59-1.06h-.82a.29.29 0 01-.28-.28v-.08a.25.25 0 01.33-.13zm3.88-2.23v.08c0 .17.32 1.58.81 4.24a.17.17 0 010 .07.27.27 0 010 .12.24.24 0 01-.21.13.2.2 0 01-.18-.17l-.28-1.41h-1.4l-.68 1.42a.29.29 0 01-.21.12.33.33 0 01-.14 0 .25.25 0 01-.11-.21.19.19 0 010-.07c0-.1.11-.26.21-.47 1-2.15 1.57-3.42 1.76-3.8a.29.29 0 01.24-.18.27.27 0 01.19.13zm-.3 1l-.76 1.6h1.07zm4.12 3.64H73.2a.28.28 0 01-.13 0 .4.4 0 01-.12-.26q0-.14.57-4.23v-.09a.23.23 0 01.22-.15.24.24 0 01.12 0 .22.22 0 01.13.21c0 .19-.07.58-.14 1.16-.24 1.81-.36 2.76-.37 2.86h1.88a.23.23 0 01.16.23.19.19 0 010 .08.29.29 0 01-.26.19zm2.83-4.64v.08c0 .17.31 1.58.8 4.24a.17.17 0 010 .07.27.27 0 010 .12.24.24 0 01-.2.13.21.21 0 01-.19-.17l-.27-1.41h-1.44l-.68 1.42a.27.27 0 01-.21.12.37.37 0 01-.14 0 .25.25 0 01-.11-.21.19.19 0 010-.07c0-.1.11-.26.21-.47 1-2.15 1.57-3.42 1.76-3.8a.29.29 0 01.24-.18.3.3 0 01.23.13zm-.31 1L77 78.74h1.07zm3.59 1.43c.17.45.29.79.38 1 .21.59.32.9.32.93a.25.25 0 010 .12.24.24 0 01-.21.12.23.23 0 01-.2-.17v-.1c-.11-.26-.3-.75-.55-1.46l-1.17 1.6a.34.34 0 01-.22.13.22.22 0 01-.13 0 .2.2 0 01-.11-.2v-.06a.57.57 0 01.12-.19c.39-.51.82-1.11 1.3-1.81l-.14-.39Q80 76.37 80 76.31a.27.27 0 010-.12.22.22 0 01.2-.13.27.27 0 01.23.14l.69 1.86 1.37-1.88a.29.29 0 01.22-.11.27.27 0 01.12 0 .22.22 0 01.12.22.26.26 0 010 .11zm5.11-2.54a.27.27 0 01.12 0 .24.24 0 01.13.21c-.34 2.67-.53 4.11-.56 4.33a2.71 2.71 0 01-.44 1.12 1.61 1.61 0 01-1.37.68 1.56 1.56 0 01-.66-.18 1.42 1.42 0 01-.73-.64.26.26 0 010-.24.24.24 0 01.22-.12.21.21 0 01.18.1 1.33 1.33 0 001.06.6 1 1 0 00.82-.42 2.31 2.31 0 00.46-1.29 1.34 1.34 0 01-.31.32 1.23 1.23 0 01-.74.24h-.14a1.1 1.1 0 01-.78-.56 2.57 2.57 0 01-.35-1.38v-.77c0-.27.13-1 .28-1.78a.19.19 0 010-.07.23.23 0 01.22-.17.27.27 0 01.12 0 .23.23 0 01.12.2 7.47 7.47 0 01-.11.94 12.48 12.48 0 00-.16 1.44 3 3 0 00.18 1.12c.14.34.35.5.61.5h.09a1.09 1.09 0 00.61-.49 3 3 0 00.51-1.14l.32-2.35a.17.17 0 010-.1.22.22 0 01.3-.1z" fill="#fafafa"/><path d="M117.28 84.7c-.07 0-.13-2.81-.13-6.29s.06-6.29.13-6.29.12 2.81.12 6.29-.05 6.29-.12 6.29z" fill="#f5f5f5"/><path d="M61.24 84.7c-.07 0-.13-2.81-.13-6.29s.06-6.29.13-6.29.12 2.81.12 6.29-.05 6.29-.12 6.29z" fill="#e0e0e0"/><path d="M118.48 84.7c-.07 0-.13-2.81-.13-6.29s.06-6.29.13-6.29.12 2.81.12 6.29-.05 6.29-.12 6.29z" fill="#f5f5f5"/><path d="M60.11 84.7c-.07 0-.12-2.81-.12-6.29s0-6.29.12-6.29.13 2.81.13 6.29-.06 6.29-.13 6.29zm40.56-10.51L107.9 80h.06-.08l-1 .25-6.11 1.61-5.53-2.35-1.57-.67-.42-.19h-.1.11l.42.17 1.57.66c1.36.56 3.28 1.36 5.55 2.32l6.11-1.62 1-.25V80l-7.23-5.86" fill="#e0e0e0"/><path fill="#e0e0e0" d="M107.24 79.1l.4.37.53-.11-.23.49.27.46-.54-.06-.36.4-.1-.53-.49-.22.47-.26.05-.54zm-6.94 2.3l.27.23.34-.1-.13.33.19.29-.35-.03-.21.28-.09-.34-.33-.12.3-.19.01-.35zm-7.67-3.15l.43.03.27-.34.11.42.4.15-.36.23-.02.43-.33-.28-.42.12.16-.4-.24-.36zm17.86-3.97l.43.03.27-.34.1.42.41.14-.37.24-.01.43-.34-.28-.41.12.16-.4-.24-.36zM100.32 74l.27.02.17-.22.07.27.26.09-.23.15-.01.27-.21-.17-.27.07.1-.25-.15-.23z"/><path d="M111.09 74.58s-2.34 0-5.23-.17-5.22-.25-5.22-.27 2.34 0 5.23.17 5.22.25 5.22.27zm2.63-2.41H44.27c-.91-2.06-1.14-4 0-5.78h69.45a6.68 6.68 0 010 5.78z" fill="#e0e0e0"/><path fill="#ebebeb" d="M58.65 68.04h37.63v2.1H58.65z"/><path d="M46.93 72.2a2 2 0 01-.55-.7 5.06 5.06 0 01-.63-2 5 5 0 01.25-2.18 2.25 2.25 0 01.41-.79 5.3 5.3 0 01-.24.84 5.8 5.8 0 00-.17 2.06 5.87 5.87 0 00.54 2 5.61 5.61 0 01.39.77zm1.5 0a2.07 2.07 0 01-.54-.7 5.06 5.06 0 01-.64-2 5.11 5.11 0 01.27-2.13 2 2 0 01.42-.79s-.11.33-.25.84a5.75 5.75 0 00.36 4 6.17 6.17 0 01.38.78z" fill="#e0e0e0"/><path d="M110.91 72.07a11.71 11.71 0 00.49-2.83 12.1 12.1 0 00-.45-2.83 5.12 5.12 0 01.7 2.83 5 5 0 01-.74 2.83zm-1.29-.02c-.08 0 .22-1.24.21-2.77s-.29-2.75-.22-2.76a8.45 8.45 0 010 5.53z" fill="#f5f5f5"/><path fill="#e0e0e0" d="M139.56 36.35h47.66v62.2h-47.34l-.32-62.2z"/><path fill="#fff" d="M183.48 98.22h-47.39V36.66h47.39z"/><path d="M183.72 36.42v62h-47.86v-62zM183.25 98V36.89h-46.92V98z" fill="#e0e0e0"/><path fill="#fff" d="M141.04 43.33h36.28v48.23h-36.28z"/><path d="M141 43.32v13.43c0 8.48 0 20.53.06 34.8l-.11-.11h36.28l-.13.12V43.33l.1.1-26.35-.05h-7.33 7.31l26.41-.05h.1v48.45h-36.49v-.11c0-14.3.05-26.37.06-34.87V43.66a1.76 1.76 0 01.09-.34z" fill="#e0e0e0"/><path d="M136 98.22a5.27 5.27 0 01.63-1c.43-.63 1-1.48 1.7-2.41s1.33-1.74 1.82-2.32a5.22 5.22 0 01.83-.9 7.92 7.92 0 01-.7 1l-1.75 2.36c-.66.88-1.25 1.69-1.75 2.36a6.81 6.81 0 01-.78.91zm.1-61.57a36.76 36.76 0 012.53 3.27 37.87 37.87 0 012.34 3.4 34.28 34.28 0 01-2.54-3.26 33.61 33.61 0 01-2.33-3.41z" fill="#e0e0e0"/><path fill="#fff" d="M183.48 36.65l-6.23 6.92"/><path d="M177.25 43.57a43 43 0 013-3.54c1.73-1.91 3.16-3.42 3.21-3.38a43 43 0 01-3 3.54c-1.73 1.91-3.16 3.42-3.21 3.38zm6.23 54.65a43.65 43.65 0 01-3.07-3.22 41.32 41.32 0 01-2.88-3.38 39.23 39.23 0 013.07 3.22 39.44 39.44 0 012.88 3.38zm-40.78-6.67s3.91-12.09 6.22-13.38a22.37 22.37 0 0110.19-2.76c5.37 0 7.93.35 11.08 2.52 3.64 2.5 6.1 13.5 6.1 13.5m-22.76-35.89c-3.34.15-4.16 4.63-3.93 7.18.11 1.21.48 2.53-.13 3.58-.44.75-1.29 1.19-1.65 2-.44 1 0 2 .3 3s.45 2.25-.34 2.93a29 29 0 005.75 1.09 9.7 9.7 0 005.65-1.26" fill="#e0e0e0"/><path d="M151.14 64.48c-2.2-5 .79-8.13 2.74-9.24a8.11 8.11 0 013.87-.83 14.32 14.32 0 013.92.34 7 7 0 013.4 1.91c1.6 1.7 2 4.23 1.83 6.57a18.26 18.26 0 01-2.3 7.86 2 2 0 01-.68.8.72.72 0 01-.94-.17" fill="#e0e0e0"/><path d="M158.58 81.79c2.26.15 4.24-1.79 4.48-5.28l1.2-17.74-.08 1.23a1.43 1.43 0 00-1.28-1.44l-7-.72a4.28 4.28 0 00-4.71 4 44 44 0 00.07 8c.66 4.05 3.77 4.55 3.77 4.55l-.25 2.94a4.13 4.13 0 003.83 4.45z" fill="#f5f5f5"/><path d="M152.51 64.12a.53.53 0 00.5.52.51.51 0 00.54-.47.53.53 0 00-.5-.53.51.51 0 00-.54.48zm-.63-.57c.07.06.46-.23 1-.23s1 .28 1 .21 0-.15-.21-.28a1.39 1.39 0 00-.83-.25 1.37 1.37 0 00-.81.26c-.12.13-.18.26-.15.29zm6 .57a.53.53 0 00.51.52.5.5 0 00.53-.47.53.53 0 00-.5-.53.51.51 0 00-.54.48z" fill="#e0e0e0"/><path d="M157.38 63.63c.07.07.46-.22 1-.22s1 .28 1 .21 0-.15-.22-.28a1.4 1.4 0 00-.82-.26 1.44 1.44 0 00-.81.27c-.12.13-.18.25-.15.28zm-2.02 4.16a3.13 3.13 0 00-.9-.16c-.15 0-.28 0-.31-.14a.78.78 0 01.1-.43l.42-1.09a19.51 19.51 0 00.94-2.84 16.92 16.92 0 00-1.17 2.76c-.14.38-.28.75-.4 1.1a.75.75 0 00-.07.56.33.33 0 00.23.2 1.2 1.2 0 00.24 0 3.7 3.7 0 00.92.04z" fill="#e0e0e0"/><path d="M155 74.4a10.3 10.3 0 005.42-1.46s-1.45 2.81-5.5 2.44z" fill="#ebebeb"/><path d="M155.6 69.13a1 1 0 01.91-.37.89.89 0 01.63.34.58.58 0 01.05.66.69.69 0 01-.73.19 2.12 2.12 0 01-.72-.43.49.49 0 01-.16-.16.18.18 0 010-.21" fill="#e0e0e0"/><path d="M157 68.17c-.09 0-.09.6-.61 1s-1.16.37-1.17.45.15.12.42.13a1.53 1.53 0 001-.34 1.36 1.36 0 00.47-.87c.01-.23-.06-.38-.11-.37zm.13-5.51c.05.15.61.07 1.27.15s1.18.26 1.27.12 0-.21-.27-.36a2.16 2.16 0 00-.94-.32 2 2 0 00-1 .12c-.24.09-.36.21-.33.29zm-5.04-.73c.09.12.48 0 .94 0s.86.09.95 0 0-.19-.2-.31a1.31 1.31 0 00-.77-.2 1.28 1.28 0 00-.75.25c-.16.06-.26.19-.17.26z" fill="#e0e0e0"/><path d="M154.33 55c3.92-2.2 8.13-.66 11.31 2.53a7.87 7.87 0 002.24 1.92c1 .42 2.3.36 2.89 1.25.68 1-.24 2.53.26 3.68s1.91 1.37 2.45 2.39a3.84 3.84 0 010 2.65 2.69 2.69 0 00.39 2.57l-8.44 3.2a2.11 2.11 0 01-1.19.13c-1.2-.24-1.29-1.35-1.18-2.27a3.71 3.71 0 00-.05-2c-.34-.74-1.22-1.14-1.52-1.9-.55-1.33 1-2.73.78-4.16a2.68 2.68 0 00-1.72-2 26 26 0 00-2.61-.75 7.82 7.82 0 01-4.48-4.5 2.18 2.18 0 01.91-2.75z" fill="#e0e0e0"/><path fill="#ebebeb" d="M694.75 455.81V134.98h-3.97v320.9l-32.83 2.47h69.64l-32.84-2.54z"/><path fill="#e0e0e0" d="M670.09 107.03l-14.75 65.9h74.85l-16.84-65.7-43.26-.2z"/><path d="M683.81 199.64c-.17 0-.29-8.09-.27-18.06s.18-18.07.35-18.07.29 8.09.27 18.07-.16 18.06-.35 18.06z" fill="#e0e0e0"/><path d="M683.77 199.52c0-.08.54 0 .78.67a1.3 1.3 0 01-.2 1.2 1.36 1.36 0 01-2.36-.87 1.33 1.33 0 01.63-1c.63-.37 1.09-.06 1 0s-.4 0-.77.36a1 1 0 00-.32.7.74.74 0 00.53.64.75.75 0 00.83-.14 1 1 0 00.2-.74c-.03-.55-.36-.74-.32-.82zM465.51 38.48h75.03v78.21h-75.03z" fill="#e0e0e0"/><path fill="#ebebeb" d="M460.42 38.48h75.03v78.21h-75.03z"/><path fill="#fafafa" d="M470.51 48.99h54.86v57.18h-54.86z"/><path d="M470.51 106.56a10.59 10.59 0 01-1.37 1.55c-.88.92-2.12 2.17-3.5 3.53s-2.64 2.57-3.57 3.44a10.54 10.54 0 01-1.57 1.34 10.07 10.07 0 011.36-1.55c.89-.92 2.12-2.17 3.51-3.54s2.65-2.57 3.58-3.44a9.59 9.59 0 011.56-1.33zm54.86-.14a10.59 10.59 0 011.55 1.37 195.858 195.858 0 016.97 7.07 10.54 10.54 0 011.34 1.57 10.59 10.59 0 01-1.55-1.37c-.92-.88-2.17-2.12-3.53-3.5s-2.58-2.65-3.45-3.58a10.12 10.12 0 01-1.33-1.56zm-.15-57.28a10.59 10.59 0 011.37-1.55 195.858 195.858 0 017.07-6.97 10.54 10.54 0 011.57-1.34 10 10 0 01-1.37 1.55c-.88.92-2.11 2.17-3.5 3.54s-2.65 2.58-3.58 3.44a9.44 9.44 0 01-1.56 1.33zm-54.86.14a10.59 10.59 0 01-1.55-1.37c-.92-.88-2.17-2.11-3.53-3.49s-2.58-2.65-3.44-3.58a9.81 9.81 0 01-1.34-1.57 10.59 10.59 0 011.55 1.37c.92.88 2.17 2.12 3.53 3.5s2.58 2.65 3.45 3.58a10.91 10.91 0 011.33 1.56z" fill="#e0e0e0"/><path d="M525.22 106.18V90.37c0-10 0-24.29-.09-41.38l.18.18h-54.7l.21-.21v57.19l-.18-.18 39.62.09h14.07-13.99l-39.73.09h-.18V48.59h55.1V49c0 17.14-.07 31.45-.09 41.49v15.39c0 .19-.22.3-.22.3z" fill="#e0e0e0"/><path d="M485 72.88S483.81 87 499.15 87c0-7.52-6.24-13.48-14.15-14.12z" fill="#ebebeb"/><path d="M513.05 72.89s-14.16-1.17-14.16 14.16c7.55 0 13.52-6.23 14.16-14.16z" fill="#ebebeb"/><path d="M498.47 65.14S486.9 75.53 499.1 87c5.67-6 5.19-15.4-.63-21.86zM359.49 88h75.03v78.21h-75.03z" fill="#e0e0e0"/><path fill="#ebebeb" d="M354.41 88h75.03v78.21h-75.03z"/><path fill="#fafafa" d="M364.5 98.52h54.86v57.18H364.5z"/><path d="M364.5 156.08a10.44 10.44 0 01-1.37 1.56c-.88.92-2.12 2.16-3.5 3.52s-2.65 2.58-3.58 3.44a10.07 10.07 0 01-1.56 1.34 10.07 10.07 0 011.36-1.55c.88-.92 2.12-2.17 3.5-3.53s2.65-2.58 3.59-3.44a10.07 10.07 0 011.56-1.34zm54.85-.14a9.75 9.75 0 011.56 1.37c.92.88 2.17 2.12 3.53 3.5s2.57 2.64 3.44 3.57a10.6 10.6 0 011.33 1.57 10.35 10.35 0 01-1.54-1.36c-.92-.88-2.17-2.12-3.54-3.5s-2.58-2.66-3.44-3.59a10.07 10.07 0 01-1.34-1.56zm-.15-57.27a11.42 11.42 0 011.37-1.55c.89-.92 2.12-2.17 3.5-3.53s2.65-2.58 3.58-3.44a10.07 10.07 0 011.56-1.34 10.07 10.07 0 01-1.36 1.55c-.88.92-2.12 2.17-3.5 3.53s-2.65 2.58-3.58 3.45a10.6 10.6 0 01-1.57 1.33zm-54.85.14a9.75 9.75 0 01-1.56-1.37c-.92-.88-2.17-2.12-3.53-3.5s-2.57-2.64-3.43-3.57a9.81 9.81 0 01-1.34-1.57 9.79 9.79 0 011.51 1.36c.92.89 2.18 2.12 3.54 3.51s2.58 2.65 3.44 3.58a10.07 10.07 0 011.37 1.56z" fill="#e0e0e0"/><path d="M419.2 155.7v-15.81c0-10-.06-24.28-.1-41.37l.18.18h-54.7l.2-.2v57.18l-.17-.18 39.62.1h14.06-13.99l-39.73.09h-.18V98.12h55.09v.18c0 17.14-.07 31.45-.09 41.49v15.39a2.28 2.28 0 01-.19.52z" fill="#e0e0e0"/><path d="M379 122.41s-1.17 14.16 14.16 14.16c-.03-7.57-6.26-13.52-14.16-14.16z" fill="#ebebeb"/><path d="M407 122.42s-14.16-1.18-14.16 14.16c7.59 0 13.55-6.24 14.16-14.16z" fill="#ebebeb"/><path d="M392.45 114.67s-11.56 10.38.64 21.9c5.67-6.02 5.19-15.44-.64-21.9z" fill="#e0e0e0"/><rect x="135.83" y="117.8" width="503.92" height="333.23" rx="14.57" fill="#455a64"/><path d="M116.14 429.51h546v11.36a17.8 17.8 0 01-17.8 17.8H133.93a17.8 17.8 0 01-17.8-17.8v-11.36z" fill="#455a64"/><path fill="#263238" d="M149.36 131.04h475.45v281.41H149.36zm188.75 295.35l6.78 10.77h95.33l6.29-10.77h-108.4z"/><rect x="159.15" y="140.56" width="456.85" height="270.98" rx="3.27" fill="#ebebeb"/><path d="M196.62 151a3.65 3.65 0 11-3.65-3.65 3.65 3.65 0 013.65 3.65zm-22.11 0a3.65 3.65 0 11-3.65-3.65 3.66 3.66 0 013.65 3.65zm10.61 0a3.65 3.65 0 11-3.65-3.65 3.65 3.65 0 013.65 3.65zm450.3 275.39c0 .18-111.85.32-249.78.32s-249.81-.14-249.81-.32 111.82-.33 249.81-.33 249.78.15 249.78.33z" fill="#263238"/><path fill="#f5f5f5" d="M344.32 187.69h246.79v70.73H344.32z"/><path fill="#fafafa" d="M615.51 411.55H158.66l.49-252.02h456.36v252.02z"/><path fill="#ebebeb" d="M344.32 187.23h246.79v70.73H344.32zm0 186.78h246.79v37.53H344.32z"/><path fill="#ff725e" d="M351.665 251.778l.322-57.64 76.689.43-.322 57.638z"/><path fill="#ff725e" d="M351.66 251.77l26.98-35.68 16.47 22.51 11.32-11.92 21.92 25.52-76.69-.43zm50.65-39.94a6 6 0 11-6-6.07 6 6 0 016 6.07z"/><path d="M351.66 251.77l26.98-35.68 16.47 22.51 11.32-11.92 21.92 25.52-76.69-.43zm50.65-39.94a6 6 0 11-6-6.07 6 6 0 016 6.07z" opacity=".2"/><path fill="#ff725e" d="M187.56 411.55h-28.9l.49-252.02h28.41v252.02z"/><path fill="#fff" d="M165.34 174.45l8.32 3.78 7.23-3.78-7.78-4.07-7.77 4.07z"/><path fill="#fff" d="M167.49 177.78l-2.15 1.26 7.77 3.85 7.78-3.7-2.52-1.41-5.26 2.56-5.62-2.56z"/><path fill="#fff" d="M167.49 182.52l-2.15 1.26 7.77 3.85 7.78-3.7-2.52-1.41-5.26 2.56-5.62-2.56z"/><path d="M267.32 197.83v4.93h-.94l-2.45-3v3h-1.13v-4.93h.95l2.44 3v-3zm.95 0a.69.69 0 011.37 0 .64.64 0 01-.69.64.63.63 0 01-.68-.64zm.13 1.14h1.1v3.79h-1.1zm1.84 1.9a2 2 0 012.11-2 1.74 1.74 0 011.7 1l-.86.46a.93.93 0 00-.85-.52 1 1 0 000 2.09.91.91 0 00.85-.52l.86.47a1.77 1.77 0 01-1.7.95 2 2 0 01-2.11-1.93zm6.03.4l-.53.52v1h-1.09v-5.22h1.09v3l1.61-1.52h1.31l-1.58 1.61 1.72 2.18h-1.33zm6.86-.68v2.17H282v-2c0-.61-.28-.89-.77-.89s-.9.32-.9 1v1.87h-1.1V199h1.05v.45a1.63 1.63 0 011.25-.5 1.48 1.48 0 011.6 1.64zm4.33.01v2.16h-1v-.47a1.26 1.26 0 01-1.16.52c-.88 0-1.41-.49-1.41-1.14s.47-1.13 1.62-1.13h.88c0-.48-.28-.75-.88-.75a1.82 1.82 0 00-1.09.35l-.39-.76a2.89 2.89 0 011.63-.46c1.14 0 1.8.53 1.8 1.68zm-1.09 1v-.38h-.76c-.51 0-.67.19-.67.44s.23.46.62.46a.82.82 0 00.81-.56zm8.48-1.01v2.17h-1.1v-2c0-.61-.27-.89-.72-.89s-.83.31-.83 1v1.9h-1.1v-2c0-.61-.26-.89-.72-.89s-.83.31-.83 1v1.9h-1.1V199h1.05v.44a1.54 1.54 0 011.19-.49 1.41 1.41 0 011.25.62 1.68 1.68 0 011.36-.62 1.47 1.47 0 011.55 1.64zm4.71.59h-2.87a1 1 0 001.09.76 1.29 1.29 0 001-.37l.58.63a2 2 0 01-1.56.61 2 2 0 01-2.16-1.94 1.92 1.92 0 012-2 1.87 1.87 0 012 2c-.06.13-.08.21-.08.31zm-2.88-.64h1.86a.94.94 0 00-1.86 0zm3.06 2.22h3.52v.63h-3.52z" fill="#263238"/><path d="M319.83 408.11c-.14 0-.26-52.21-.26-116.59s.12-116.61.26-116.61.26 52.2.26 116.61-.09 116.59-.26 116.59z" fill="#e0e0e0"/><path d="M451.36 202.7c0 .85-.76 1.39-1.91 1.39s-1.9-.54-1.9-1.39a1.15 1.15 0 01.69-1.06 1 1 0 01-.52-.93c0-.8.71-1.3 1.73-1.3s1.75.5 1.75 1.3a1.05 1.05 0 01-.53.93 1.13 1.13 0 01.69 1.06zm-1.06 0c0-.4-.33-.65-.85-.65s-.84.25-.84.65.33.65.84.65.85-.28.85-.68zm-1.54-1.92c0 .34.27.56.69.56s.71-.22.71-.56-.28-.57-.71-.57-.69.19-.69.54zm3.05.33a.63.63 0 011.25 0 .63.63 0 11-1.25 0zm0 2.32a.63.63 0 011.25 0 .63.63 0 11-1.25 0zm5.1-.27v.84h-3.42v-.68l1.75-1.64c.4-.38.47-.62.47-.84s-.25-.56-.73-.56a1.11 1.11 0 00-.93.45l-.76-.49a2.1 2.1 0 011.79-.84c1 0 1.68.52 1.68 1.34a1.8 1.8 0 01-.76 1.43l-1 1zm.42-1.41c0-1.49.83-2.34 1.94-2.34s1.93.85 1.93 2.34-.82 2.34-1.93 2.34-1.94-.85-1.94-2.34zm2.82 0c0-1-.36-1.45-.88-1.45s-.88.43-.88 1.45.36 1.45.88 1.45.88-.42.88-1.45zm6.67.25v2h-.94v-.43a1.16 1.16 0 01-1.06.48c-.81 0-1.29-.45-1.29-1.05s.43-1 1.49-1h.8c0-.43-.26-.68-.8-.68a1.66 1.66 0 00-1 .32l-.36-.7a2.66 2.66 0 011.49-.42c1.06-.03 1.67.48 1.67 1.48zm-1 .88v-.35h-.69c-.47 0-.62.17-.62.41s.21.41.57.41a.74.74 0 00.74-.44zm7.78-.88v2h-1v-1.83c0-.56-.26-.82-.66-.82s-.77.29-.77.91V204h-1v-1.83c0-.56-.24-.82-.66-.82s-.76.29-.76.91V204h-1v-3.47h1v.4a1.39 1.39 0 011.09-.45 1.3 1.3 0 011.14.56 1.57 1.57 0 011.25-.56 1.34 1.34 0 011.37 1.52z" fill="#ff725e"/><path d="M407.62 178.44c0 .15-13.65.26-30.49.26s-30.48-.11-30.48-.26 13.64-.26 30.48-.26 30.49.12 30.49.26zm0 93.27c0 .14-13.65.26-30.49.26s-30.48-.12-30.48-.26 13.64-.26 30.48-.26 30.49.11 30.49.26zm162.45-55.62c0 .15-28 .26-62.56.26s-62.56-.11-62.56-.26 28-.26 62.56-.26 62.56.17 62.56.26zm2.21 10.74c0 .15-28.22.26-63 .26s-63-.11-63-.26 28.22-.26 63-.26 63 .12 63 .26zm-57.01 10.74c0 .14-15.6.26-34.84.26s-34.84-.12-34.84-.26 15.59-.26 34.84-.26 34.84.12 34.84.26z" fill="#263238"/><path fill="#ebebeb" d="M344.32 290.72h246.79v70.73H344.32z"/><path fill="#ff725e" d="M351.664 354.813l.322-57.639 76.688.428-.322 57.64z"/><path fill="#ff725e" d="M351.66 354.8l26.98-35.68 16.47 22.51 11.32-11.92 21.92 25.52-76.69-.43zm50.65-39.94a6 6 0 11-6-6.07 6 6 0 016 6.07z"/><path d="M351.66 354.8l26.98-35.68 16.47 22.51 11.32-11.92 21.92 25.52-76.69-.43zm50.65-39.94a6 6 0 11-6-6.07 6 6 0 016 6.07z" opacity=".2"/><path d="M449.32 302.52V307h-1v-3.68h-.91v-.84zm.79 2.26c0-1.49.83-2.34 1.94-2.34s1.93.85 1.93 2.34-.82 2.34-1.93 2.34-1.94-.85-1.94-2.34zm2.82 0c0-1-.36-1.45-.88-1.45s-.88.42-.88 1.45.36 1.45.88 1.45.88-.42.88-1.45zm1.53-.64a.61.61 0 01.63-.62.6.6 0 01.62.62.61.61 0 01-.62.63.62.62 0 01-.63-.63zm0 2.32a.6.6 0 01.63-.62.59.59 0 01.62.62.61.61 0 01-.62.63.62.62 0 01-.63-.63zm5.1-.27v.81h-3.41v-.68l1.74-1.64c.4-.39.47-.62.47-.84s-.24-.56-.72-.56a1.12 1.12 0 00-.94.45l-.76-.49a2.1 2.1 0 011.79-.84c1 0 1.68.52 1.68 1.34a1.81 1.81 0 01-.75 1.43l-1 1zm.44-1.41c0-1.49.83-2.34 1.94-2.34s1.93.85 1.93 2.34-.81 2.34-1.93 2.34-1.94-.85-1.94-2.34zm2.82 0c0-1-.36-1.45-.88-1.45s-.88.42-.88 1.45.36 1.45.88 1.45.86-.42.86-1.45zm6.66.28v2h-.94v-.43a1.16 1.16 0 01-1.06.48c-.82 0-1.3-.45-1.3-1s.43-1 1.49-1h.8c0-.43-.26-.69-.8-.69a1.67 1.67 0 00-1 .33l-.36-.71a2.67 2.67 0 011.5-.42c1.05-.11 1.67.38 1.67 1.44zm-1 .88v-.35h-.69c-.47 0-.62.17-.62.4s.21.42.57.42a.74.74 0 00.73-.47zm7.78-.89v2h-1v-1.83c0-.57-.25-.82-.66-.82s-.77.29-.77.91V307h-1v-1.83c0-.57-.24-.82-.66-.82s-.76.29-.76.91V307h-1v-3.47h1v.4a1.41 1.41 0 011.09-.46 1.28 1.28 0 011.14.57 1.59 1.59 0 011.26-.57 1.35 1.35 0 011.36 1.58z" fill="#ff725e"/><path d="M570.07 319.12c0 .14-28 .26-62.56.26s-62.56-.12-62.56-.26 28-.26 62.56-.26 62.56.14 62.56.26zm2.21 10.74c0 .14-28.22.26-63 .26s-63-.12-63-.26 28.22-.26 63-.26 63 .12 63 .26zm-57.01 10.74c0 .14-15.6.26-34.84.26s-34.84-.12-34.84-.26 15.59-.26 34.84-.26 34.84.12 34.84.26z" fill="#263238"/><path d="M451.72 389.39H451v.94h-1v-.94h-2.43v-.71l2.13-2.86h1.1l-2 2.71h1.2v-.84h1v.84h.74zm.33-1.95a.63.63 0 011.25 0 .63.63 0 11-1.25 0zm0 2.31a.63.63 0 011.25 0 .63.63 0 11-1.25 0zm5.1-.27v.85h-3.42v-.67l1.75-1.65c.4-.38.47-.61.47-.83s-.25-.56-.73-.56a1.09 1.09 0 00-.93.45l-.76-.49a2.1 2.1 0 011.79-.84c1 0 1.68.52 1.68 1.33a1.8 1.8 0 01-.76 1.43l-1 1zm.42-1.4c0-1.5.82-2.34 1.93-2.34s1.94.84 1.94 2.34-.82 2.33-1.94 2.33-1.93-.84-1.93-2.33zm2.82 0c0-1-.36-1.46-.89-1.46s-.87.43-.87 1.46.36 1.45.87 1.45.89-.43.89-1.45zm7.38.52a1.69 1.69 0 01-1.73 1.79 1.36 1.36 0 01-1-.42v1.62h-1v-4.73h1v.4a1.36 1.36 0 011.09-.45 1.69 1.69 0 011.64 1.79zm-1 0a.88.88 0 10-.88 1 .87.87 0 00.86-1zm7.54-.25v2h-1v-1.85c0-.56-.26-.82-.66-.82s-.77.29-.77.91v1.74h-1v-1.83c0-.56-.24-.82-.66-.82s-.76.29-.76.91v1.74h-1v-3.47h1v.4a1.42 1.42 0 011.09-.45 1.31 1.31 0 011.14.57 1.55 1.55 0 011.25-.57 1.35 1.35 0 011.37 1.54z" fill="#ff725e"/><path d="M570.07 402.42c0 .14-28 .26-62.56.26s-62.56-.12-62.56-.26 28-.26 62.56-.26 62.56.11 62.56.26z" fill="#263238"/><path fill="#ff725e" d="M351.98 380.45l-.17 31.1h76.54l.32-30.67-76.69-.43z"/><path d="M402.31 398.16a6 6 0 11-6-6.07 6 6 0 016 6.07z" fill="#ff725e"/><path d="M402.31 398.16a6 6 0 11-6-6.07 6 6 0 016 6.07z" opacity=".2"/><path d="M371.74 411.55h13.58l-6.68-9.13-6.9 9.13z" opacity=".3"/><path d="M290.82 297.94c0 .15-11.76.26-26.26.26s-26.25-.11-26.25-.26 11.75-.26 26.25-.26 26.26.12 26.26.26z" fill="#263238"/><path d="M265.23 303.8c0 .14-6 .26-13.46.26s-13.46-.12-13.46-.26 6-.26 13.46-.26 13.46.11 13.46.26z" fill="#e0e0e0"/><path d="M290.82 259.17c0 .15-11.76.26-26.26.26s-26.25-.11-26.25-.26 11.75-.26 26.25-.26 26.26.09 26.26.26z" fill="#263238"/><path d="M265.23 265c0 .14-6 .26-13.46.26s-13.46-.12-13.46-.26 6-.26 13.46-.26 13.46.15 13.46.26z" fill="#e0e0e0"/><path d="M288.93 339.27c0 .14-11.75.26-26.25.26s-26.25-.12-26.25-.26 11.75-.26 26.25-.26 26.25.12 26.25.26z" fill="#263238"/><path d="M263.35 345.13c0 .14-6 .26-13.46.26s-13.46-.12-13.46-.26 6-.26 13.46-.26 13.46.13 13.46.26z" fill="#e0e0e0"/><path d="M290.82 380c0 .14-11.76.26-26.26.26s-26.25-.12-26.25-.26 11.75-.26 26.25-.26 26.26.11 26.26.26z" fill="#263238"/><path d="M265.23 385.85c0 .14-6 .26-13.46.26s-13.46-.12-13.46-.26 6-.26 13.46-.26 13.46.11 13.46.26z" fill="#e0e0e0"/><circle cx="215.25" cy="381.43" r="11.97" transform="rotate(-21.04 215.253 381.43)" fill="#e0e0e0"/><path d="M206.7 389.81l4.7-1.12h6.61l5.79 1.15a11.89 11.89 0 01-9 3.59c-5.68-.32-8.1-3.62-8.1-3.62z" fill="#ff725e"/><path d="M206.7 389.81l4.7-1.12h6.61l5.79 1.15a11.89 11.89 0 01-9 3.59c-5.68-.32-8.1-3.62-8.1-3.62z" opacity=".3"/><path d="M214.82 392.69a3.3 3.3 0 003.24-3.58c-.06-.63-.06-1.11-.06-1.11a3.16 3.16 0 002.64-3.07c0-2.64-.51-8.69-.51-8.69a9.18 9.18 0 00-9.2 1.25l-.38.3 1 11.84a3.3 3.3 0 003.27 3.06z" fill="#b78876"/><path d="M218 388a6.3 6.3 0 01-3.44-1 3.28 3.28 0 003.48 1.62z" fill="#aa6550"/><path d="M210.87 380.54c-.05 0-1.82-.52-1.75 1.28a1.36 1.36 0 001.87 1.31c.01-.05-.12-2.59-.12-2.59z" fill="#b78876"/><path d="M210.42 382.47h-.09a.35.35 0 01-.23 0 .77.77 0 01-.39-.68 1.09 1.09 0 01.07-.45.34.34 0 01.23-.25.15.15 0 01.18.07v-.01a.17.17 0 00-.08-.11.19.19 0 00-.17 0 .44.44 0 00-.32.29 1.22 1.22 0 00-.09.51.83.83 0 00.5.76.34.34 0 00.28-.06.22.22 0 00.11-.07z" fill="#aa6550"/><path d="M219.24 380.62a.38.38 0 01-.36.38.34.34 0 01-.39-.33.37.37 0 01.35-.38.36.36 0 01.4.33zm.4-.62s-.34-.16-.74-.16-.7.21-.75.16 0-.11.16-.2a1 1 0 01.59-.19 1 1 0 01.59.18c.13.08.17.21.15.21zm-4.35.62a.37.37 0 01-.36.38.35.35 0 01-.39-.33.37.37 0 01.36-.38.35.35 0 01.39.33zm.37-.53c0 .05-.34-.16-.74-.15s-.7.21-.75.16 0-.11.16-.21a1 1 0 01.59-.19 1 1 0 01.59.19c.12.11.17.18.15.2zm1.49 2.99a2.72 2.72 0 01.66-.12c.11 0 .2 0 .22-.11a.55.55 0 00-.07-.3l-.32-.79a13.54 13.54 0 01-.7-2.05 14.45 14.45 0 01.87 2c.1.28.2.54.3.79a.6.6 0 01.06.4.29.29 0 01-.17.16.62.62 0 01-.18 0 2.73 2.73 0 01-.67.02zm-1.15.29c.06 0 .07.44.45.75s.84.25.85.31-.11.09-.3.1a1.07 1.07 0 01-.71-.24.91.91 0 01-.35-.63c-.05-.18-.01-.29.06-.29zm-.26-4.87c0 .11-.44.06-.91.13s-.86.19-.93.09 0-.15.19-.26a1.51 1.51 0 01.69-.24 1.6 1.6 0 01.72.07c.17.07.26.16.24.21zm3.74.3c-.07.1-.35 0-.69 0s-.62.07-.68 0 0-.14.13-.23a1 1 0 01.56-.16 1 1 0 01.55.18c.12.08.16.17.13.21z" fill="#263238"/><path d="M221.37 374.58a1 1 0 00-.37-.86.69.69 0 00-.89.07.81.81 0 00-.7-1c-.43 0-.8.31-1.21.43a2 2 0 01-1.23-.13c-.4-.16-.76-.37-1.16-.51a3.38 3.38 0 00-4.29 2 1.53 1.53 0 00-1.59.62 2.43 2.43 0 00-.35 1.73 5.26 5.26 0 00.31 1.18v.1c0 1.45.22 3.15.84 3.16 1.07 0 .8-2 .8-2 1.32-.52.8-2.5 1.13-2.8s1-1 3.8.38a5.32 5.32 0 003.29.32h.11a2.34 2.34 0 00.71-.3 1.41 1.41 0 00.57-.66.75.75 0 00-.15-.82 1.76 1.76 0 00.38-.91z" fill="#263238"/><path d="M227.22 381.43a22.06 22.06 0 00-.47-2.9 11.91 11.91 0 00-4.37-6.47 11.74 11.74 0 00-11.13-1.65 10.93 10.93 0 00-3 1.6 11.06 11.06 0 00-2.48 2.49 11.67 11.67 0 000 13.86 11.06 11.06 0 002.48 2.49 10.93 10.93 0 003 1.6 11.74 11.74 0 0011.13-1.65 11.94 11.94 0 004.37-6.47 22.06 22.06 0 00.47-2.9 3.46 3.46 0 010 .77 5.47 5.47 0 01-.07.92 8.83 8.83 0 01-.22 1.26 12.06 12.06 0 01-9.45 9 12.15 12.15 0 01-6.41-.5 12.15 12.15 0 01-5.69-4.24 12.13 12.13 0 010-14.46 11.57 11.57 0 012.59-2.59 11.18 11.18 0 013.1-1.65 12.25 12.25 0 016.41-.51 12.09 12.09 0 019.45 9 8.71 8.71 0 01.22 1.25 5.66 5.66 0 01.07.93 3.46 3.46 0 010 .82z" fill="#263238"/><path d="M226.66 393.42a5.67 5.67 0 01-5.67-5.67 5.67 5.67 0 015.67-5.67 5.67 5.67 0 015.67 5.67 5.67 5.67 0 01-5.67 5.67z" fill="#ff725e"/><path d="M226.66 384.14a3.62 3.62 0 103.62 3.61 3.61 3.61 0 00-3.62-3.61zm0 .62a3 3 0 011.82.63 3.6 3.6 0 01-1.5 1.11 15.14 15.14 0 00-1-1.64 2.92 2.92 0 01.68-.1zm-1.35.33a12.58 12.58 0 011.07 1.62 9.18 9.18 0 01-2.62.33 3 3 0 011.55-1.95zm-1.63 2.66v-.08a10.21 10.21 0 003-.39c.07.14.13.28.2.43a4.64 4.64 0 00-2.51 2 3 3 0 01-.69-1.96zm3 3a3 3 0 01-1.83-.64 4 4 0 012.29-1.81 11.7 11.7 0 01.61 2.25 2.91 2.91 0 01-1.09.19zm1.66-.51a12.48 12.48 0 00-.58-2.07 6 6 0 011.87.06 3 3 0 01-1.31 2zm-.82-2.67c-.07-.17-.15-.34-.23-.51a4.24 4.24 0 001.67-1.23 3 3 0 01.7 1.76 6.7 6.7 0 00-2.16-.03z" fill="#fff"/><circle cx="215.25" cy="340.89" r="11.97" fill="#e0e0e0"/><path d="M206.7 349.27l4.7-1.12h6.61l5.79 1.15a11.86 11.86 0 01-9 3.58c-5.68-.32-8.1-3.61-8.1-3.61z" fill="#ff725e"/><path d="M206.7 349.27l4.7-1.12h6.61l5.79 1.15a11.86 11.86 0 01-9 3.58c-5.68-.32-8.1-3.61-8.1-3.61z" opacity=".3"/><path d="M214.82 352.15a3.3 3.3 0 003.24-3.58c-.05-.63-.09-1.09-.09-1.09a3.16 3.16 0 002.64-3.07c0-2.64-.51-8.69-.51-8.69a9.18 9.18 0 00-9.2 1.25l-.38.3 1 11.84a3.3 3.3 0 003.3 3.04z" fill="#b78876"/><path d="M218 347.48a6.3 6.3 0 01-3.44-1 3.28 3.28 0 003.48 1.62z" fill="#aa6550"/><path d="M210.87 340c-.05 0-1.82-.52-1.75 1.28a1.36 1.36 0 001.87 1.31l-.12-2.59z" fill="#b78876"/><path d="M210.42 341.93l-.09.05a.35.35 0 01-.23 0 .78.78 0 01-.39-.68 1.09 1.09 0 01.07-.45.34.34 0 01.23-.25.14.14 0 01.18.07v-.01a.17.17 0 00-.08-.11.19.19 0 00-.17 0 .44.44 0 00-.32.29 1.19 1.19 0 00-.09.51.83.83 0 00.5.76.34.34 0 00.28-.06.22.22 0 00.11-.12z" fill="#aa6550"/><path d="M219.24 340.08a.38.38 0 01-.36.38.34.34 0 01-.39-.33.38.38 0 01.35-.39.37.37 0 01.4.34zm.4-.64c0 .05-.34-.16-.74-.16s-.7.21-.75.16 0-.11.16-.2a1 1 0 01.59-.19 1 1 0 01.59.18c.13.1.17.18.15.21zm-4.35.64a.37.37 0 01-.36.38.35.35 0 01-.39-.33.38.38 0 01.36-.39.36.36 0 01.39.34zm.37-.53c0 .05-.34-.16-.74-.15s-.7.21-.75.16 0-.11.16-.21a1 1 0 011.18 0c.12.09.17.18.15.2zm1.49 2.99a2.72 2.72 0 01.66-.12c.11 0 .2 0 .22-.11a.55.55 0 00-.07-.3l-.32-.79a13.54 13.54 0 01-.7-2.05 14.45 14.45 0 01.87 2c.1.27.2.54.3.79a.6.6 0 01.06.4.29.29 0 01-.17.16.62.62 0 01-.18 0 2.73 2.73 0 01-.67.02zm-1.15.29c.06 0 .07.44.45.75s.84.25.85.31-.11.09-.3.1a1.07 1.07 0 01-.71-.24.91.91 0 01-.35-.63c-.05-.18-.01-.29.06-.29zm-.26-4.83c0 .11-.44.06-.91.12s-.86.2-.93.1 0-.15.19-.26a1.51 1.51 0 01.69-.24 1.6 1.6 0 01.72.07c.17.03.26.12.24.21zm3.74.26c-.07.1-.35 0-.69 0s-.62.07-.68 0 0-.14.13-.23a1 1 0 01.56-.16 1 1 0 01.55.18c.12.07.16.17.13.21z" fill="#263238"/><path d="M221.37 334a1 1 0 00-.37-.86.68.68 0 00-.89.07.81.81 0 00-.7-1c-.43 0-.8.31-1.21.43a2 2 0 01-1.23-.13c-.4-.16-.76-.37-1.16-.51a3.38 3.38 0 00-4.29 2 1.51 1.51 0 00-1.59.62 2.43 2.43 0 00-.35 1.73 5.26 5.26 0 00.31 1.18v.1c0 1.45.22 3.15.84 3.16 1.07 0 .8-2 .8-2 1.32-.52.8-2.5 1.13-2.8s1-1 3.8.38a5.32 5.32 0 003.29.32h.11a2.34 2.34 0 00.71-.3 1.46 1.46 0 00.57-.66.75.75 0 00-.15-.82 1.76 1.76 0 00.38-.91z" fill="#263238"/><path d="M227.22 340.89a22.06 22.06 0 00-.47-2.9 11.91 11.91 0 00-4.37-6.47 11.74 11.74 0 00-11.13-1.65 10.93 10.93 0 00-3 1.6 11.06 11.06 0 00-2.48 2.49 11.67 11.67 0 000 13.86 11.06 11.06 0 002.48 2.49 10.93 10.93 0 003 1.6 11.88 11.88 0 006.17.53 11.71 11.71 0 005-2.18 11.94 11.94 0 004.37-6.47 22.06 22.06 0 00.47-2.9 3.46 3.46 0 010 .77 5.47 5.47 0 01-.07.92 8.83 8.83 0 01-.22 1.26 12.06 12.06 0 01-9.45 9 12.15 12.15 0 01-6.41-.5 12.15 12.15 0 01-5.69-4.24 12.13 12.13 0 010-14.46 11.57 11.57 0 012.59-2.59 11.18 11.18 0 013.1-1.65 12.25 12.25 0 016.41-.51 12.09 12.09 0 019.45 9 8.71 8.71 0 01.22 1.25 5.66 5.66 0 01.07.93 3.46 3.46 0 01-.04.82z" fill="#263238"/><path d="M232.53 348.15a6 6 0 11-5.95-5.95 5.95 5.95 0 015.95 5.95z" fill="#ff725e"/><path d="M223.78 350.2a3.81 3.81 0 005.86-3.38 2.79 2.79 0 00.67-.7 2.51 2.51 0 01-.77.21 1.29 1.29 0 00.59-.74 2.59 2.59 0 01-.85.33 1.34 1.34 0 00-2.28 1.22 3.83 3.83 0 01-2.77-1.4 1.34 1.34 0 00.42 1.79 1.39 1.39 0 01-.61-.17 1.35 1.35 0 001.08 1.33 1.38 1.38 0 01-.61 0 1.35 1.35 0 001.25.93 2.7 2.7 0 01-1.98.58z" fill="#fff"/><circle cx="215.25" cy="300.46" r="11.97" transform="rotate(-21.04 215.248 300.459)" fill="#e0e0e0"/><path d="M206.7 308.84l4.7-1.12h6.61l5.79 1.15a11.86 11.86 0 01-9 3.58c-5.68-.32-8.1-3.61-8.1-3.61z" fill="#ff725e"/><path d="M206.7 308.84l4.7-1.12h6.61l5.79 1.15a11.86 11.86 0 01-9 3.58c-5.68-.32-8.1-3.61-8.1-3.61z" opacity=".3"/><path d="M214.82 311.72a3.3 3.3 0 003.24-3.58c-.05-.63-.09-1.09-.09-1.09a3.16 3.16 0 002.64-3.07c0-2.64-.51-8.69-.51-8.69a9.18 9.18 0 00-9.2 1.25l-.38.3 1 11.84a3.31 3.31 0 003.3 3.04z" fill="#b78876"/><path d="M218 307.05a6.3 6.3 0 01-3.44-1 3.28 3.28 0 003.48 1.62z" fill="#aa6550"/><path d="M210.87 299.57c-.05 0-1.82-.52-1.75 1.28a1.36 1.36 0 001.87 1.31c.01-.05-.12-2.59-.12-2.59z" fill="#b78876"/><path d="M210.42 301.5l-.09.05a.35.35 0 01-.23 0 .78.78 0 01-.39-.68 1.09 1.09 0 01.07-.45.34.34 0 01.23-.25.14.14 0 01.18.07v-.01a.17.17 0 00-.08-.11.19.19 0 00-.17 0 .44.44 0 00-.32.29 1.19 1.19 0 00-.09.51.83.83 0 00.5.76.34.34 0 00.28-.06.22.22 0 00.11-.12z" fill="#aa6550"/><path d="M219.24 299.65a.38.38 0 01-.36.38.34.34 0 01-.39-.33.38.38 0 01.35-.39.37.37 0 01.4.34zm.4-.65s-.34-.16-.74-.16-.7.21-.75.16 0-.11.16-.2a1 1 0 01.59-.19 1 1 0 01.59.18c.13.1.17.21.15.21zm-4.35.65a.37.37 0 01-.36.38.35.35 0 01-.39-.33.38.38 0 01.36-.39.36.36 0 01.39.34zm.37-.53c0 .05-.34-.16-.74-.15s-.7.21-.75.16 0-.11.16-.21a1 1 0 011.18 0c.12.08.17.18.15.2zm1.49 2.99a2.72 2.72 0 01.66-.12c.11 0 .2 0 .22-.11a.55.55 0 00-.07-.3l-.32-.79a13.54 13.54 0 01-.7-2.05 14.45 14.45 0 01.87 2c.1.27.2.54.3.79a.6.6 0 01.06.4.29.29 0 01-.17.16.62.62 0 01-.18 0 2.73 2.73 0 01-.67.02zm-1.15.29c.06 0 .07.44.45.75s.84.25.85.31-.11.09-.3.1a1.07 1.07 0 01-.71-.24.91.91 0 01-.35-.63c-.05-.18-.01-.29.06-.29zm-.26-4.87c0 .11-.44.06-.91.12s-.86.2-.93.1 0-.15.19-.26a1.51 1.51 0 01.69-.24 1.47 1.47 0 01.72.07c.17.07.26.16.24.21zm3.74.3c-.07.1-.35 0-.69 0s-.62.07-.68 0 0-.13.13-.22a1 1 0 01.56-.16 1 1 0 01.55.18c.12.06.16.16.13.2z" fill="#263238"/><path d="M221.37 293.61a1 1 0 00-.37-.86.68.68 0 00-.89.07.81.81 0 00-.7-1c-.43 0-.8.31-1.21.43a2 2 0 01-1.23-.13c-.4-.16-.76-.37-1.16-.51a3.38 3.38 0 00-4.29 2 1.49 1.49 0 00-1.59.62 2.43 2.43 0 00-.35 1.73 5.4 5.4 0 00.31 1.18v.1c0 1.45.22 3.15.84 3.16 1.07 0 .8-2 .8-2 1.32-.52.8-2.5 1.13-2.8s1-1 3.8.38a5.32 5.32 0 003.29.32h.11a2.34 2.34 0 00.71-.3 1.46 1.46 0 00.57-.66.76.76 0 00-.15-.83 1.7 1.7 0 00.38-.9z" fill="#263238"/><path d="M227.22 300.46a21.79 21.79 0 00-.47-2.9 11.91 11.91 0 00-4.37-6.47 11.74 11.74 0 00-11.13-1.65 10.93 10.93 0 00-3 1.6 11.06 11.06 0 00-2.48 2.49 11.66 11.66 0 000 13.85 11.76 11.76 0 005.44 4.1 11.88 11.88 0 006.17.53 11.71 11.71 0 005-2.18 11.94 11.94 0 004.37-6.47 22.06 22.06 0 00.47-2.9 3.4 3.4 0 010 .76 5.51 5.51 0 01-.07.93 8.83 8.83 0 01-.22 1.26 12.06 12.06 0 01-9.45 9 12.15 12.15 0 01-6.41-.5 11.45 11.45 0 01-3.1-1.65 11.57 11.57 0 01-2.59-2.59 12.13 12.13 0 010-14.46 11.57 11.57 0 012.59-2.59 11.18 11.18 0 013.1-1.65 12.25 12.25 0 016.41-.51 12.09 12.09 0 019.45 9 8.71 8.71 0 01.22 1.25 5.66 5.66 0 01.07.93 3.46 3.46 0 010 .82z" fill="#263238"/><path d="M226.58 314.67a6.22 6.22 0 01-6.21-6.22 6.21 6.21 0 016.21-6.21 6.21 6.21 0 016.21 6.21 6.22 6.22 0 01-6.21 6.22z" fill="#ff725e"/><path d="M225.63 312.21h1.52v-3.79h1l.11-1.27h-1.16v-.72c0-.3.06-.41.35-.41h.81v-1.32h-1c-1.13 0-1.64.5-1.64 1.44v1h-.78v1.29h.78z" fill="#fff"/><circle cx="216.37" cy="260.16" r="11.97" transform="rotate(-45 216.374 260.165)" fill="#e0e0e0"/><path d="M207.82 268.54l4.7-1.12h6.61l5.79 1.15a11.86 11.86 0 01-9 3.58c-5.67-.32-8.1-3.61-8.1-3.61z" fill="#ff725e"/><path d="M207.82 268.54l4.7-1.12h6.61l5.79 1.15a11.86 11.86 0 01-9 3.58c-5.67-.32-8.1-3.61-8.1-3.61z" opacity=".3"/><path d="M215.94 271.42a3.32 3.32 0 003.25-3.58c-.06-.63-.1-1.09-.1-1.09a3.15 3.15 0 002.64-3.07c0-2.64-.51-8.69-.51-8.69a9.14 9.14 0 00-9.19 1.25l-.39.3 1 11.84a3.31 3.31 0 003.3 3.04z" fill="#b78876"/><path d="M219.09 266.75a6.4 6.4 0 01-3.44-1 3.29 3.29 0 003.48 1.62z" fill="#aa6550"/><path d="M212 259.27c-.05 0-1.82-.52-1.74 1.28a1.36 1.36 0 001.87 1.31c-.01-.06-.13-2.59-.13-2.59z" fill="#b78876"/><path d="M211.54 261.2l-.08.05a.37.37 0 01-.24 0 .8.8 0 01-.39-.68 1.09 1.09 0 01.07-.45.34.34 0 01.23-.25.16.16 0 01.19.07v-.01a.19.19 0 00-.07-.11.22.22 0 00-.18 0 .41.41 0 00-.31.29 1 1 0 00-.09.51.81.81 0 00.49.76.37.37 0 00.28-.06c.1-.08.11-.12.1-.12z" fill="#aa6550"/><path d="M220.36 259.35a.37.37 0 01-.36.38.35.35 0 01-.39-.33.38.38 0 01.39-.4.37.37 0 01.36.35zm.4-.65c0 .05-.33-.15-.74-.15s-.7.21-.74.16 0-.11.15-.2a1 1 0 01.6-.19 1.06 1.06 0 01.59.18c.12.09.16.18.14.2zm-4.35.65a.37.37 0 01-.36.38.35.35 0 01-.39-.33.38.38 0 01.34-.4.36.36 0 01.41.35zm.37-.53c-.05.05-.34-.16-.74-.16s-.7.22-.75.17 0-.11.16-.21a1 1 0 01.59-.19 1 1 0 01.59.18c.13.1.17.19.15.21zm1.5 2.99a3 3 0 01.65-.13c.11 0 .21 0 .22-.1s0-.19-.07-.31-.2-.51-.31-.78a13 13 0 01-.71-2.05 12 12 0 01.87 2c.11.27.21.54.3.79a.6.6 0 01.06.4.27.27 0 01-.17.16.58.58 0 01-.18 0 2.61 2.61 0 01-.66.02zm-1.19.29c.06 0 .07.44.45.75s.85.25.85.31-.1.09-.3.1a1.12 1.12 0 01-.71-.24 1 1 0 01-.35-.63c-.03-.18.03-.29.06-.29zm-.22-4.87c0 .11-.45.06-.92.12s-.86.2-.92.1 0-.15.19-.26a1.43 1.43 0 01.68-.24 1.46 1.46 0 01.72.07c.18.07.26.16.25.21zm3.73.3c-.07.1-.35 0-.69 0s-.61.07-.68 0 0-.13.14-.22a1 1 0 01.55-.16 1 1 0 01.55.18c.12.06.16.16.13.2z" fill="#263238"/><path d="M222.49 253.31a1 1 0 00-.36-.86.7.7 0 00-.9.07.8.8 0 00-.7-1c-.43 0-.79.31-1.21.43a2 2 0 01-1.23-.13c-.39-.16-.76-.37-1.16-.51a3.35 3.35 0 00-2.56.13 3.38 3.38 0 00-1.73 1.89 1.47 1.47 0 00-1.58.62 2.43 2.43 0 00-.36 1.73 5.55 5.55 0 00.31 1.18v.1c0 1.45.22 3.15.84 3.16 1.08 0 .8-2 .8-2 1.32-.52.81-2.5 1.14-2.8s1-1 3.79.38a5.32 5.32 0 003.29.32h.13a2.14 2.14 0 00.71-.31 1.41 1.41 0 00.58-.65.78.78 0 00-.16-.83 1.62 1.62 0 00.36-.92z" fill="#263238"/><path d="M228.35 260.16a25.92 25.92 0 00-.48-2.9 11.82 11.82 0 00-4.37-6.47 11.66 11.66 0 00-5-2.18 11.78 11.78 0 00-6.17.53 10.93 10.93 0 00-3 1.6 11.27 11.27 0 00-2.48 2.49 11.7 11.7 0 000 13.85 11.1 11.1 0 002.48 2.5 10.93 10.93 0 003 1.6 11.88 11.88 0 006.17.53 11.75 11.75 0 005-2.18 11.91 11.91 0 004.36-6.47 26.34 26.34 0 00.48-2.9 9.59 9.59 0 01-.06 1.69 8.83 8.83 0 01-.22 1.26 12.06 12.06 0 01-9.45 9 12.15 12.15 0 01-6.41-.5 11.6 11.6 0 01-3.1-1.65 11.78 11.78 0 01-2.59-2.59 12.17 12.17 0 010-14.46 12.15 12.15 0 015.69-4.24 12.26 12.26 0 016.41-.51 12.14 12.14 0 015.11 2.31 11.94 11.94 0 014.34 6.72 8.71 8.71 0 01.22 1.25 9.67 9.67 0 01.06 1.7z" fill="#263238"/><path d="M227 275.1a6.21 6.21 0 01-6.21-6.21 6.21 6.21 0 016.21-6.21 6.21 6.21 0 016.21 6.21 6.21 6.21 0 01-6.21 6.21z" fill="#ff725e"/><path d="M225 269.47a.14.14 0 00.21-.11l.09-.34a.19.19 0 00-.06-.23 1.27 1.27 0 01-.24-.79 2 2 0 012.08-2 1.59 1.59 0 011.77 1.62c0 1.22-.54 2.25-1.35 2.25a.65.65 0 01-.66-.81 9.91 9.91 0 00.37-1.51.57.57 0 00-.57-.63c-.46 0-.82.46-.82 1.09a1.58 1.58 0 00.14.67l-.55 2.31a4.81 4.81 0 000 1.61.06.06 0 00.1 0 4.56 4.56 0 00.76-1.39c.06-.19.3-1.16.3-1.16a1.22 1.22 0 001 .52c1.36 0 2.28-1.24 2.28-2.9a2.53 2.53 0 00-2.68-2.43 2.81 2.81 0 00-3 2.65 1.64 1.64 0 00.83 1.58z" fill="#fff"/><circle cx="225.45" cy="196.1" r="29.92" fill="#e0e0e0"/><path d="M204.08 217l11.75-2.8 16.53-.06 14.46 2.86a29.66 29.66 0 01-22.43 9c-14.24-.72-20.31-9-20.31-9z" fill="#ff725e"/><path d="M204.08 217l11.75-2.8 16.53-.06 14.46 2.86a29.66 29.66 0 01-22.43 9c-14.24-.72-20.31-9-20.31-9z" opacity=".3"/><path d="M224.37 224.24a8.27 8.27 0 008.12-9c-.13-1.57-.24-2.71-.24-2.71s6.58-1.09 6.6-7.68-1.27-21.71-1.27-21.71a22.88 22.88 0 00-23 3.11l-1 .76 2.4 29.59a8.26 8.26 0 008.39 7.64z" fill="#b78876"/><path d="M232.25 212.58a15.92 15.92 0 01-8.6-2.46s2.14 4.72 8.71 4.06z" fill="#aa6550"/><path d="M214.51 193.88c-.12 0-4.54-1.3-4.36 3.21s4.67 3.39 4.68 3.26-.32-6.47-.32-6.47z" fill="#b78876"/><path d="M213.38 198.7s-.08.05-.21.12a.74.74 0 01-.58 0 1.94 1.94 0 01-1-1.71 2.59 2.59 0 01.17-1.13.94.94 0 01.56-.63.42.42 0 01.48.2c.06.12 0 .21.06.22s.09-.08.05-.26a.49.49 0 00-.19-.28.58.58 0 00-.44-.09 1.11 1.11 0 00-.79.73 2.7 2.7 0 00-.22 1.26 2 2 0 001.23 1.9.84.84 0 00.71-.15c.16-.07.18-.18.17-.18z" fill="#aa6550"/><path d="M235.42 194.08a.94.94 0 01-.9 1 .91.91 0 01-1-.84.94.94 0 01.9-1 .91.91 0 011 .84zm1-1.61c-.11.12-.83-.4-1.84-.38s-1.75.52-1.86.4.06-.28.38-.52a2.56 2.56 0 011.49-.47 2.47 2.47 0 011.47.46c.31.23.42.45.36.51zm-10.86 1.61a.94.94 0 01-.9 1 .9.9 0 01-1-.84.94.94 0 01.9-1 .9.9 0 011 .84zm.91-1.33c-.11.13-.83-.39-1.84-.38s-1.75.53-1.87.4.07-.27.39-.51a2.6 2.6 0 011.49-.48 2.54 2.54 0 011.47.46c.31.24.42.46.36.51zm3.75 7.48a6.52 6.52 0 011.64-.31c.26 0 .5-.09.55-.26a1.39 1.39 0 00-.18-.77l-.79-2a32.29 32.29 0 01-1.76-5.13 34 34 0 012.17 5l.75 2a1.48 1.48 0 01.15 1 .67.67 0 01-.42.39 2 2 0 01-.44.06 6.24 6.24 0 01-1.67.02zm-2.97.77c.16 0 .17 1.09 1.12 1.86s2.12.64 2.13.79-.26.22-.75.23a2.65 2.65 0 01-1.78-.6 2.34 2.34 0 01-.87-1.55c-.05-.5.07-.73.15-.73zm-.55-12.22c-.1.28-1.11.16-2.3.31s-2.15.49-2.31.25.1-.38.48-.65a3.88 3.88 0 011.71-.62 3.81 3.81 0 011.8.2c.44.17.66.38.62.51zm9.3.76c-.17.23-.87 0-1.71 0s-1.55.17-1.71-.07 0-.35.34-.57a2.48 2.48 0 012.76.06c.32.23.42.47.32.58z" fill="#263238"/><path d="M240.75 179a2.43 2.43 0 00-.92-2.17 1.73 1.73 0 00-2.23.19 2 2 0 00-1.75-2.42c-1.08-.06-2 .76-3 1.05a4.89 4.89 0 01-3.08-.32c-1-.39-1.9-.92-2.89-1.27a8.42 8.42 0 00-10.73 5.05 3.72 3.72 0 00-3.95 1.54 6.13 6.13 0 00-.9 4.33 13.65 13.65 0 00.78 3v.26c.11 3.62.56 7.87 2.1 7.88 2.7 0 2-5.06 2-5.06 3.29-1.3 2-6.25 2.83-7s2.54-2.52 9.49.95a13.43 13.43 0 008.23.81h.22a6.18 6.18 0 001.77-.77 3.45 3.45 0 001.45-1.64 1.92 1.92 0 00-.4-2.06 4.15 4.15 0 00.98-2.35z" fill="#263238"/><path d="M255.38 196.1a4.41 4.41 0 010-.48l-.1-1.42c0-.32 0-.67-.07-1s-.12-.8-.19-1.25a20.84 20.84 0 00-.63-3.08 28.45 28.45 0 00-3.32-7.93 29.85 29.85 0 00-20.08-14 27.2 27.2 0 00-3.76-.43c-.64 0-1.29-.09-1.94-.08l-2 .11c-.33 0-.66 0-1 .06l-1 .15c-.66.11-1.34.19-2 .33a31.85 31.85 0 00-4 1.16 33 33 0 00-3.87 1.7c-.63.34-1.23.74-1.85 1.11a15.36 15.36 0 00-1.79 1.23 34.8 34.8 0 00-3.36 2.86 34.34 34.34 0 00-2.91 3.44 28.64 28.64 0 00-4.24 8.18 29.4 29.4 0 000 18.72 28.64 28.64 0 004.24 8.18 34.34 34.34 0 002.91 3.44 34.8 34.8 0 003.36 2.86 15.36 15.36 0 001.79 1.23c.62.37 1.22.77 1.85 1.11a32.41 32.41 0 007.83 2.86c.66.14 1.34.22 2 .33l1 .15c.33 0 .66 0 1 .07l2 .1c.65 0 1.29 0 1.93-.07a27.2 27.2 0 003.76-.44 29.37 29.37 0 0012.51-5.54 29.86 29.86 0 007.57-8.43 28.45 28.45 0 003.32-7.93 20.58 20.58 0 00.63-3.08c.07-.45.15-.87.19-1.25s.05-.73.07-1.05l.1-1.41a4.9 4.9 0 010-.49v2.96c0 .38-.1.81-.16 1.26a22 22 0 01-.59 3.11 28.38 28.38 0 01-3.27 8A30.14 30.14 0 01231 225.71a28.12 28.12 0 01-3.81.45c-.65 0-1.31.09-2 .08l-2-.1c-.34 0-.68 0-1-.06l-1-.15c-.67-.11-1.35-.19-2-.33a29.6 29.6 0 01-4-1.17 30.34 30.34 0 01-3.94-1.72c-.64-.34-1.25-.75-1.88-1.12a15.87 15.87 0 01-1.82-1.25 32.4 32.4 0 01-3.43-2.91 33.06 33.06 0 01-3-3.49 29.12 29.12 0 01-4.32-8.32 29.86 29.86 0 010-19.05 29.2 29.2 0 014.32-8.31 34.29 34.29 0 013-3.49 32.4 32.4 0 013.43-2.91 15.87 15.87 0 011.82-1.25c.63-.37 1.24-.77 1.88-1.12a31.77 31.77 0 013.94-1.72 32.78 32.78 0 014-1.17c.68-.14 1.36-.22 2-.33l1-.15c.33 0 .67 0 1-.06l2-.1c.66 0 1.32.06 2 .08a28.12 28.12 0 013.81.45 30.11 30.11 0 0120.25 14.26 28.22 28.22 0 013.27 8 22 22 0 01.59 3.11c.06.46.13.87.16 1.26s0 .74 0 1.05v1.43c.12.34.11.5.11.5z" fill="#263238"/><path d="M251.77 235a14.86 14.86 0 01-14.86-14.86 14.86 14.86 0 0114.86-14.86 14.86 14.86 0 0114.86 14.86A14.86 14.86 0 01251.77 235z" fill="#ff725e"/><path d="M251.77 213.43h3.29a4.43 4.43 0 011.52.28 2.43 2.43 0 01.93.61 2.32 2.32 0 01.61.93 4.43 4.43 0 01.28 1.52c0 .86.05 1.11.05 3.29s0 2.43-.05 3.29a4.43 4.43 0 01-.28 1.52 2.32 2.32 0 01-.61.93 2.43 2.43 0 01-.93.61 4.43 4.43 0 01-1.52.28h-6.58a4.3 4.3 0 01-1.51-.28 2.47 2.47 0 01-.94-.61 2.43 2.43 0 01-.61-.93 4.43 4.43 0 01-.28-1.52v-6.58a4.43 4.43 0 01.28-1.52 2.43 2.43 0 01.61-.93 2.47 2.47 0 01.94-.61 4.3 4.3 0 011.51-.28h3.29m0-1.47h-3.36a6 6 0 00-2 .38 4.18 4.18 0 00-2.38 2.38 6 6 0 00-.38 2v6.72a6 6 0 00.38 2 4.18 4.18 0 002.38 2.38 6 6 0 002 .38h6.72a6 6 0 002-.38 4.18 4.18 0 002.38-2.38 6 6 0 00.38-2c0-.87.05-1.15.05-3.36s0-2.49-.05-3.36a6 6 0 00-.38-2 4.18 4.18 0 00-2.38-2.38 6 6 0 00-2-.38h-3.36" fill="#fff"/><path d="M251.77 215.93a4.18 4.18 0 104.19 4.18 4.18 4.18 0 00-4.19-4.18m0 6.9a2.72 2.72 0 112.72-2.72 2.71 2.71 0 01-2.72 2.72m5.33-7.07a1 1 0 11-1-1 1 1 0 011 1" fill="#fff"/><path d="M700.79 458.67c0 .14-150.74.26-336.63.26s-336.66-.12-336.66-.26 150.7-.26 336.66-.26 336.63.11 336.63.26z" fill="#263238"/><path d="M479.7 420.54l-17.14 20.95s-27.06-10.38-30.56-6.82l39.45 34.7 28-31.56z" fill="#ff725e"/><path d="M476 449.74a2.16 2.16 0 01-.51 2.84 2.06 2.06 0 01-2.81-.48 2.27 2.27 0 01.55-3 2.15 2.15 0 012.87.82" fill="#e0e0e0"/><path d="M435.05 433.18c-.1.11 8.6 7.46 19.42 16.41s19.67 16.12 19.77 16-8.61-7.46-19.44-16.41-19.66-16.11-19.75-16zm27.07 7.52c-.17.2.72 1.14 1.13 2.6s.2 2.73.44 2.81.95-1.3.42-3.06-1.88-2.57-1.99-2.35zm-5.69-1.94c-.21.14.34 1.21.28 2.61s-.63 2.44-.43 2.6 1.28-.83 1.33-2.57-1.01-2.83-1.18-2.64zm-6.75 2.9c.14.2 1.26-.53 1.7-2s-.1-2.72-.32-2.63-.17 1.15-.54 2.38-1.01 2.06-.84 2.25zm16.9-5.34c-.07.25 1.05.77 2.09 1.81s1.58 2.13 1.82 2.05 0-1.49-1.19-2.69-2.68-1.4-2.72-1.17zm3.15-5c-.08.08.59.88 2 1.74a11.43 11.43 0 002.64 1.2 11.67 11.67 0 001.67.39 3.23 3.23 0 001 .07 1.13 1.13 0 001-1 1.41 1.41 0 00-.46-1.19 3.13 3.13 0 00-.83-.55 10.39 10.39 0 00-1.61-.67 9.76 9.76 0 00-2.9-.41 4.45 4.45 0 00-2.59.59c0 .14 1-.07 2.57.05a10.4 10.4 0 012.66.56 10.26 10.26 0 011.45.65c.52.26.88.57.82.86 0 .1 0 .14-.24.18a2.48 2.48 0 01-.74-.05 14.71 14.71 0 01-1.58-.32 15 15 0 01-2.57-.95 19.79 19.79 0 00-2.29-1.15z" fill="#263238"/><path d="M469.73 431.82c0 .1 1-.26 2.22-1.46a8.46 8.46 0 001.64-2.41 8.3 8.3 0 00.56-1.66 2.19 2.19 0 00-.39-2.12 1.21 1.21 0 00-1.31-.17 3.47 3.47 0 00-.85.55 5.92 5.92 0 00-1.18 1.34 6.09 6.09 0 00-1 2.8c-.13 1.71.48 2.65.55 2.6a23.38 23.38 0 01.08-2.52 6.06 6.06 0 011-2.42 5.47 5.47 0 011-1.12c.44-.37.9-.57 1-.38a1.52 1.52 0 01.12 1.26 8.85 8.85 0 01-.46 1.51 9.34 9.34 0 01-1.36 2.32c-.85 1.22-1.69 1.76-1.62 1.88z" fill="#263238"/><path d="M542 439.39s-9.37 3.24-18.12 3c-8.2-.24-26.08 3.18-24.8 13.8 1.43 11.84 25.13 6 34.29 3s18.29-5.83 18.29-5.83z" fill="#ff725e"/><path d="M522.22 457.16a39.75 39.75 0 01-2.88-8.12 20.66 20.66 0 011.66 4 20.42 20.42 0 011.22 4.12zm3.3-.24a20.48 20.48 0 01-1.32-4.13 19.5 19.5 0 01-.87-4.24 20.72 20.72 0 011.32 4.12 21.07 21.07 0 01.87 4.25zm3.02-1.62a15.66 15.66 0 01-1.12-3.61 15 15 0 01-.67-3.72 30.84 30.84 0 011.79 7.33zm4.83-1.84a8.54 8.54 0 01-1.62-3 8.66 8.66 0 01-.76-3.35 24.79 24.79 0 011.19 3.18 24.07 24.07 0 011.19 3.17zm.54-4.46a4.78 4.78 0 011.25-.23 10.58 10.58 0 013.46.25 3.78 3.78 0 011.11.44 1.57 1.57 0 01.79 1.09 1.79 1.79 0 01-2 1.85 4.54 4.54 0 01-2.72-1.49 7.9 7.9 0 01-1.46-9.05 1.26 1.26 0 01.66-.51 1 1 0 01.83.15 2.15 2.15 0 01.76 1.22 6.35 6.35 0 01.16 2.42 6.81 6.81 0 01-1.25 3.24 5.4 5.4 0 01-.63.7c-.16.15-.25.22-.26.21s.3-.35.74-1a7.15 7.15 0 001.08-3.16 6.58 6.58 0 00-.21-2.29 1.81 1.81 0 00-.62-1 .62.62 0 00-.91.27 7.54 7.54 0 001.43 8.48 4.12 4.12 0 002.43 1.38 1.41 1.41 0 001.58-1.36 1.22 1.22 0 00-.6-.85 3.49 3.49 0 00-1-.42 11.8 11.8 0 00-3.37-.39c-.79.05-1.24.05-1.25.05z" fill="#263238"/><path d="M550.51 451.9s-.07.05-.23.11l-.7.27-2.71 1c-2.37.82-5.8 2-10.07 3.37s-9.38 2.95-15.15 4.45a41.86 41.86 0 01-9.23 1.58 19.46 19.46 0 01-5-.35 13.42 13.42 0 01-2.46-.75 7.15 7.15 0 01-2.25-1.41 4.57 4.57 0 01-1-.91 6.29 6.29 0 01-1.11-5.12 8.29 8.29 0 012.6-4.4 15.84 15.84 0 014.12-2.7c.74-.31 1.46-.66 2.2-.93s1.47-.54 2.21-.73c5.91-1.68 11.46-1.85 16-2.4 2.29-.23 4.34-.54 6.14-.87a40.61 40.61 0 004.53-1.14l1.62-.55 1.16-.48.71-.29a1.53 1.53 0 01.25-.09 1 1 0 01-.23.13l-.7.34-1.14.52-1.61.59a39.23 39.23 0 01-4.54 1.22c-1.8.36-3.87.69-6.16.95-4.56.58-10.1.8-15.93 2.48-.73.2-1.44.49-2.18.73s-1.43.61-2.16.92a15.39 15.39 0 00-4 2.63 7.94 7.94 0 00-2.46 4.16 5.85 5.85 0 001 4.74 4.72 4.72 0 00.86.82 6.86 6.86 0 002.09 1.29 12.48 12.48 0 002.37.73 19.54 19.54 0 004.87.35 42.37 42.37 0 009.14-1.54c5.75-1.48 10.87-3 15.15-4.35s7.73-2.46 10.11-3.23l2.74-.89.71-.22z" fill="#263238"/><path d="M516 461.84a15.61 15.61 0 01-.53-2.44c-.29-1.5-.72-3.57-1.31-5.83s-1.21-4.29-1.68-5.74a14.85 14.85 0 01-.71-2.39 11.75 11.75 0 011 2.28 52.17 52.17 0 011.82 5.73 53.35 53.35 0 011.19 5.9 11.15 11.15 0 01.22 2.49z" fill="#263238"/><path d="M501.65 460.85s-.32-.3-.8-.91a9.85 9.85 0 01-1.54-2.88 5.68 5.68 0 01-.33-2.18 9.16 9.16 0 01.59-2.49 11.77 11.77 0 013.52-4.68 16.43 16.43 0 015.2-2.83 31.8 31.8 0 014.74-1.21c1.38-.25 2.51-.42 3.28-.55a5.74 5.74 0 001.2-.24 5.15 5.15 0 00-1.22 0c-.79.07-1.92.18-3.32.39a28.3 28.3 0 00-4.84 1.12 16.15 16.15 0 00-5.37 2.89 11.9 11.9 0 00-3.63 4.9 9.31 9.31 0 00-.58 2.64 6 6 0 00.42 2.32 9 9 0 001.72 2.89 3 3 0 00.96.82zm38.05-22.56s24.86-38.62 31.16-40.55 17.5-3.44 26.94 0 36.66 15 36.66 15l17.17 5.71a43.6 43.6 0 0129.08 33.29s-21.71 17.81-38.08 14.67-61.06-23.23-61.06-23.23c-4.76 2.83-12.55 4.07-16.12 5.61-10 4.31-15.4 5.46-15.4 5.46z" fill="#263238"/><path d="M568.89 437.39a23.4 23.4 0 003 1.51l7.18 3.52c2.81 1.37 5.38 2.58 7.27 3.38a18.56 18.56 0 003.11 1.18 24.35 24.35 0 00-3-1.51l-7.19-3.47c-2.81-1.37-5.37-2.57-7.26-3.38a19.34 19.34 0 00-3.11-1.23zm-7.25-16.82c.09 0 .48-1.34 1.28-3.47a50.87 50.87 0 013.86-8 52.45 52.45 0 015.22-7.2c1.5-1.72 2.51-2.71 2.46-2.77s-.31.2-.79.62-1.15 1.07-1.94 1.91a41.51 41.51 0 00-5.39 7.17 42.34 42.34 0 00-3.76 8.14c-.36 1.09-.62 2-.76 2.61a4 4 0 00-.18.99zm6.55 5.32a6.78 6.78 0 005.32 5 23.38 23.38 0 01-3-2.09 21.3 21.3 0 01-2.32-2.91z" fill="#455a64"/><path d="M466.65 428.4s72.82-79.07 76.87-81.28c1.86-1 12.69-11.72 15.43-11.74a16 16 0 0110 3.49l46.68 44.43 13.7 29.84-29.04 15.66-39.34-34-67.82 55.52z" fill="#263238"/><path d="M564.28 403.76a5.36 5.36 0 00.49-.57 21.3 21.3 0 011.43-1.63 18.22 18.22 0 016.52-4.37 13.41 13.41 0 015.31-.94 24.52 24.52 0 016.15 1.11c2.12.64 4.31 1.47 6.6 2.28l7.07 2.52 24.84 8.75 7.55 2.6 2.06.68a3.46 3.46 0 00.73.2 4.38 4.38 0 00-.7-.3l-2-.77-7.49-2.76-24.84-8.89-7-2.51c-2.29-.8-4.48-1.62-6.63-2.25a24.38 24.38 0 00-6.28-1.09 13.58 13.58 0 00-5.45 1 17.71 17.71 0 00-6.54 4.58 15.53 15.53 0 00-1.36 1.69 3.22 3.22 0 00-.46.67z" fill="#455a64"/><path d="M583.61 370.3l-61.28-19.49a7.7 7.7 0 01-5.19-9l1.73-7.66 52 2.63 44-31.13a22 22 0 019.13-3.74l8.71-1.42 26.82-7.66 29.79 29.69a13.46 13.46 0 014 9.07l1.37 35.33a105.66 105.66 0 01-.59 16l-5.71 50.28s-1.6 25.88-12.81 21.88c0 0-12.59-24.16-27-33s-34.61-15.86-34.61-15.86l3.15-48-.42-10.18z" fill="#ff725e"/><path d="M559.33 362.12a4 4 0 01-.24-1.05 24.06 24.06 0 01-.29-2.9 29.94 29.94 0 01.12-4.34 35 35 0 011-5.22 32.6 32.6 0 013.92-8.8 23 23 0 011.71-2.36 4.36 4.36 0 01.72-.79c.08 0-.86 1.25-2.12 3.35a35.68 35.68 0 00-3.72 8.73 37.08 37.08 0 00-1 5.14 36.13 36.13 0 00-.23 4.28c-.01 2.44.22 3.95.13 3.96zM538 356.47a2.48 2.48 0 01-.28-.84 17.64 17.64 0 01-.45-2.35 25.4 25.4 0 012.9-15.35 21.26 21.26 0 011.28-2c.34-.45.53-.69.56-.67s-.62 1.08-1.51 2.87a29.62 29.62 0 00-2.48 7.37 29.08 29.08 0 00-.38 7.77c.21 1.96.49 3.18.36 3.2z" fill="#fafafa"/><path d="M514.05 312.94l2.44-.79a2.51 2.51 0 011.33-.06c2.8.63 13.59 3.08 17.7 4a3.62 3.62 0 012.45 2l16.63 34.65a2.32 2.32 0 01-.47 2.66z" fill="#263238"/><path d="M514.05 312.94l18.25 36.85 21.83 5.84-18.6-36.38a3.1 3.1 0 00-2-1.61z" fill="#455a64"/><path d="M512.43 328.86c.43-.58-3.77-20-2.56-20.56s1.78-.32 2.57.85 5.6 12.62 5.6 12.62l2.11-.78a3.67 3.67 0 011.77-.2c3.17.45 13.55 2 13.49 2.42 0 0 .2 4-3.42 3.21l5.13 1.63s1.75 3-1.37 3.46h-3.57l5.58 1.08s-.55 3.08-2.57 3.28a50 50 0 01-7.46-.56l-1.24 2.74 5.81 11.74-9.79-3.32s-5.24-2.69-4.84-5.37c0 0-3.76-2.16-3.76-5.11 0 .01-3.77-3.99-1.48-7.13z" fill="#b78876"/><path d="M514.7 328.26c.06.06.85-.61 2.29-1.45a19.29 19.29 0 012.61-1.28 8.6 8.6 0 013.43-.68 29 29 0 016.42.89 25.12 25.12 0 002.65.61 10.57 10.57 0 00-2.55-1 24 24 0 00-6.52-1.06 8.73 8.73 0 00-3.6.76 14.75 14.75 0 00-2.63 1.41 7.77 7.77 0 00-2.1 1.8zm3.56 4.9a19.9 19.9 0 011.46-1.7 5.1 5.1 0 012-1.21 8.42 8.42 0 012.9-.08c2.09.3 4 .81 5.37 1.06a9.84 9.84 0 002.22.34 9 9 0 00-2.14-.7 49 49 0 00-5.38-1.21 8.45 8.45 0 00-3.11.13 5.19 5.19 0 00-2.13 1.41 4.1 4.1 0 00-1.19 1.96zm-5.54-4.58a7.73 7.73 0 00.77-1.66 10.38 10.38 0 012.3-3.61 9.87 9.87 0 013.79-1.95 7.92 7.92 0 001.74-.59 5.48 5.48 0 00-1.83.24 8.75 8.75 0 00-4 1.92 9.13 9.13 0 00-2.29 3.86 6 6 0 00-.48 1.79z" fill="#aa6550"/><path d="M572 344.56l-16-16.71-13.18-4.7-4.08 1.56-9.57-1.85a1.73 1.73 0 00-1.79 2.65.9.9 0 00.31.28c.92.46 13.41 4.47 13.41 4.47l-16-1.26s-1.71.83-.34 2.09 6.79 2.75 10.31 3.43a40.84 40.84 0 016.23 2.52s-13.34 2.27-13.23 3.3-.11 1.49 1 1.61 12.37-.35 14.09.11 7.68 8.48 10.89 10.2a7.29 7.29 0 006.42 0l3 3.21 7.33-10.2" fill="#b78876"/><path d="M570.86 345.27l-.14.16-.37.5c-.35.46-.83 1.11-1.45 1.95l-5.48 7.51h.2c-.9-1-1.9-2.07-3-3.22a.17.17 0 00-.18 0 7.37 7.37 0 01-4.61.58 6.14 6.14 0 01-2.31-1 18.81 18.81 0 01-2.07-1.78c-1.34-1.3-2.66-2.75-4-4.25-.7-.75-1.4-1.52-2.16-2.27a12.58 12.58 0 00-1.21-1.08l-.35-.25-.42-.2a6.6 6.6 0 00-.85-.11c-2.21-.15-4.46-.1-6.79-.09l-3.54.06h-1.8a5 5 0 01-1.69-.14c-.18-.08-.21-.29-.23-.6v-.47a1.77 1.77 0 010-.19c0 .08 0 0 0 0a6.84 6.84 0 011.65-.65c1.19-.35 2.42-.63 3.67-.91 2.49-.54 5-1 7.66-1.47a.26.26 0 00.21-.29.3.3 0 00-.14-.19c-1.36-.66-2.75-1.29-4.19-1.86a13.09 13.09 0 00-2.25-.71c-.76-.15-1.52-.32-2.28-.5-1.52-.37-3-.79-4.53-1.31a18.24 18.24 0 01-2.19-.89 4.67 4.67 0 01-1-.6 1.2 1.2 0 01-.51-.82c0-.34.35-.7.72-.89h-.13l16 1.25a.25.25 0 00.27-.23.24.24 0 00-.17-.26l-7.2-2.33-3.49-1.16-1.71-.58-.82-.31a.71.71 0 01-.31-.18 2.28 2.28 0 01-.21-.3 1.4 1.4 0 01.14-1.43 1.62 1.62 0 011.3-.67c1.07.17 2.24.42 3.34.62l6.47 1.25h.12l4.08-1.57h-.14L556 328h-.07l11.78 12.22 3.18 3.26.83.84q.28.29.3.27l-.26-.3-.8-.87c-.73-.78-1.77-1.9-3.12-3.33-2.74-2.91-6.71-7.1-11.66-12.33h-.06L543 323a.26.26 0 00-.15 0l-4.08 1.55h.12l-6.48-1.27c-1.13-.21-2.19-.46-3.41-.64a2.08 2.08 0 00-1.7.86 1.89 1.89 0 00-.18 1.93 2.32 2.32 0 00.3.42 1.12 1.12 0 00.46.28c.29.12.56.22.85.32l1.72.59 3.49 1.17 7.19 2.34.1-.49-16-1.27a.28.28 0 00-.13 0 2.21 2.21 0 00-.67.51 1.27 1.27 0 00-.33.85 1.68 1.68 0 00.68 1.2 5.13 5.13 0 001.07.67 19.83 19.83 0 002.26.92c1.52.52 3.05.94 4.58 1.31.76.19 1.53.36 2.3.51a13.17 13.17 0 012.16.68c1.42.56 2.81 1.2 4.16 1.84l.06-.47c-2.61.46-5.18.95-7.68 1.49-1.25.28-2.49.57-3.7.93a6.68 6.68 0 00-1.8.73c-.08.09-.18.11-.23.35a1.79 1.79 0 000 .27v.46a2.61 2.61 0 00.09.51.8.8 0 00.4.48 5 5 0 001.92.19h1.8l3.53-.06c2.32 0 4.59-.08 6.75.06a4.75 4.75 0 01.78.1l.31.14.31.23a11.55 11.55 0 011.18 1c.75.74 1.46 1.49 2.15 2.24 1.39 1.49 2.72 2.94 4.08 4.25a20.84 20.84 0 002.12 1.8 6.69 6.69 0 002.45 1.08 7.7 7.7 0 004.83-.65h-.18l3 3.2a.14.14 0 00.19 0L569 348l1.39-2 .35-.52a1 1 0 00.12-.21z" fill="#aa6550"/><path d="M551.16 328.52a15.51 15.51 0 00-2.5-1c-1.58-.58-3.8-1.37-6.33-2.23l-1.89-.39c-3.07-.62-5.85-1.16-7.87-1.52a20.71 20.71 0 00-3.29-.49 20.88 20.88 0 003.22.84c2 .46 4.77 1.05 7.84 1.68l1.89.38c2.53.85 4.77 1.57 6.38 2.06a15.55 15.55 0 002.55.67z" fill="#aa6550"/><path d="M659.94 328.74l-43 37.27-44.29-25.34s-14 7.4-11 19.75l39.2 31a32 32 0 0038.95.63l15-11.1 34-28.51s5.6-18.14-6.67-23.74a25.58 25.58 0 00-22.19.04z" fill="#ff725e"/><path d="M654 333.89s-.24.18-.68.55l-1.95 1.65-7.43 6.38-27.12 23.4h.22l-44.26-25.39-.12-.07-.13.07a24.87 24.87 0 00-9 8 15.36 15.36 0 00-2.15 12.08v.07l.06.06 12.19 9.64 22.22 17.59a42.82 42.82 0 0020.54 10.25 27.18 27.18 0 0010.9-.13 42.22 42.22 0 009.62-3.93 97.63 97.63 0 0015.51-11L665 372.45l17.89-15.16 4.79-4.1 1.23-1.06a5.5 5.5 0 00.41-.38l-.44.34-1.26 1-4.85 4-18 15.05-12.57 10.53a97.94 97.94 0 01-15.47 10.92 42 42 0 01-9.52 3.87 26.73 26.73 0 01-10.7.11 42.34 42.34 0 01-20.29-10.16L574 369.87l-12.19-9.65.09.12a13.48 13.48 0 01-.16-6.06 15.89 15.89 0 012.25-5.59 24.35 24.35 0 018.78-7.81h-.24l44.32 25.3.12.07.1-.09 27-23.53 7.37-6.45 1.91-1.69c.43-.39.65-.6.65-.6zm7.88-5.78a19.94 19.94 0 014.44-1.82 22.14 22.14 0 0111.44.33 15.66 15.66 0 015.58 2.91 19 19 0 013.46 3.87c.85 1.22 1.48 2.25 1.94 3a6.67 6.67 0 00.75 1.06 5.88 5.88 0 00-.58-1.17c-.4-.73-1-1.79-1.81-3.06a18.44 18.44 0 00-3.45-4 15.84 15.84 0 00-5.74-3.05 21.39 21.39 0 00-11.68-.18 13.79 13.79 0 00-3.29 1.4 7.58 7.58 0 00-.8.54c-.14.06-.27.15-.26.17z" fill="#263238"/><path d="M615.3 322.06a10.33 10.33 0 000 1.73c.06 1.2.15 2.79.25 4.71.21 4 .44 9.46.62 15.53s.31 11.49.42 15.55c.07 1.92.12 3.51.17 4.71a12 12 0 00.13 1.72 10.19 10.19 0 00.07-1.73v-4.71c0-4-.09-9.48-.27-15.56s-.46-11.56-.76-15.54c-.15-2-.3-3.59-.42-4.69a12.06 12.06 0 00-.21-1.72zm4.46-16.06a5.9 5.9 0 00-1.22 1.49 21.36 21.36 0 00-3.34 8.61 5.54 5.54 0 00-.1 1.93 62.86 62.86 0 011.78-6.23c1.28-3.34 3.02-5.71 2.88-5.8z" fill="#263238"/><path d="M642 390.48l-10.63-13.76c-2.88-3.77-5.48-7.19-7.45-9.78l-2.22-3a7.27 7.27 0 01-.76-1.14 6.47 6.47 0 01.92 1l2.35 2.89c2 2.46 4.65 5.88 7.57 9.69s5.55 7.28 7.4 9.82 2.91 4.21 2.82 4.28zm19.14-14.72a7 7 0 01-1-1c-.64-.64-1.56-1.6-2.67-2.79-2.24-2.38-5.26-5.73-8.48-9.53s-6.05-7.31-8.05-9.9c-1-1.29-1.79-2.35-2.32-3.09a7.07 7.07 0 01-.79-1.18 8.21 8.21 0 011 1.06l2.45 3c2.07 2.53 4.93 6 8.15 9.8s6.2 7.17 8.36 9.61c1 1.17 1.88 2.15 2.55 2.9a7.16 7.16 0 01.8 1.12zM681 358.94a7.38 7.38 0 01-1.13-.87c-.7-.59-1.7-1.47-2.91-2.57-2.42-2.21-5.68-5.37-9.09-9s-6.3-7.16-8.32-9.75c-1-1.29-1.81-2.35-2.34-3.1a7.33 7.33 0 01-.79-1.19 8 8 0 011 1.07l2.46 3c2.09 2.52 5 6 8.42 9.63s6.61 6.85 9 9.12l2.8 2.69a7.35 7.35 0 01.9.97zm-68.35 36.53c-.15 0 .31-6.31 1-14.05s1.4-14 1.55-14-.32 6.3-1 14-1.41 14.06-1.55 14.05zm-9.95-35.76a34.91 34.91 0 01-2.3 2.84c-1.44 1.73-3.4 4.14-5.44 6.9s-3.79 5.34-5 7.23a33.12 33.12 0 01-2 3s.11-.33.41-.89.74-1.36 1.32-2.33c1.16-1.94 2.86-4.56 4.91-7.34s4.06-5.16 5.58-6.83c.76-.84 1.39-1.5 1.84-1.95s.65-.66.68-.63zm-19.05-12.19a29.67 29.67 0 01-2.36 2.45c-1.47 1.5-3.44 3.62-5.46 6.09s-3.7 4.84-4.87 6.58a29.08 29.08 0 01-1.93 2.8 3.07 3.07 0 01.38-.83c.27-.53.69-1.27 1.24-2.17A61.93 61.93 0 01581 349.71c.77-.72 1.41-1.28 1.87-1.65a3.12 3.12 0 01.78-.54zm19.25 7.38c-.1 0-.5-1.84-1.55-4.7a42.82 42.82 0 00-2.15-4.89 43.31 43.31 0 00-7.66-10.56 43.33 43.33 0 00-4-3.56c-2.39-1.89-4-2.84-4-2.93a6.72 6.72 0 011.18.62c.37.21.83.48 1.33.83s1.09.71 1.7 1.18a38.76 38.76 0 014.09 3.52 40 40 0 017.75 10.68 38 38 0 012.07 5c.27.72.44 1.4.6 2s.29 1.1.38 1.52a7.6 7.6 0 01.26 1.29zm12.47-9.05c-.1 0 .08-1.89-.13-4.92a36.21 36.21 0 00-.79-5.26 36.26 36.26 0 00-5-11.94 37 37 0 00-3.2-4.24c-2-2.27-3.49-3.45-3.42-3.53a6 6 0 011.06.79 15.16 15.16 0 011.17 1c.44.43 1 .89 1.46 1.47a33.07 33.07 0 013.34 4.22 34.61 34.61 0 015.08 12.1 33.31 33.31 0 01.68 5.34c.07.76 0 1.46 0 2.06s0 1.14-.08 1.56a6.1 6.1 0 01-.17 1.35zm26.85-4.72a4 4 0 01-1.09 0c-.71 0-1.72-.15-3-.34a54.17 54.17 0 01-9.54-2.35 53.28 53.28 0 01-9-4c-1.09-.62-2-1.15-2.54-1.55a4.52 4.52 0 01-.87-.66c0-.07 1.37.73 3.59 1.89a67.09 67.09 0 008.95 3.86 66.27 66.27 0 009.43 2.48c2.54.41 4.08.59 4.07.67zm-12.81 14.48a6.09 6.09 0 01-2-.08 28.11 28.11 0 01-4.67-1 27.41 27.41 0 01-4.43-1.77 6.13 6.13 0 01-1.68-1c.07-.14 2.74 1.24 6.27 2.31s6.52 1.38 6.51 1.54zm34.68-30.1a1.43 1.43 0 01-.49 0h-1.41c-1.22 0-3-.15-5.16-.36a115.69 115.69 0 01-33-8.24c-2-.84-3.63-1.56-4.73-2.1l-1.25-.63a2.1 2.1 0 01-.43-.25 1.76 1.76 0 01.47.15l1.3.54c1.12.48 2.75 1.16 4.78 1.95a134.16 134.16 0 0016.19 5.17 136.3 136.3 0 0016.72 3c2.17.25 3.92.42 5.14.52l1.39.14a2 2 0 01.48.11zm14.37-9.36a23 23 0 01-2.75-1.42c-1.68-.89-4-2.07-6.71-3.19s-5.16-2-7-2.56a22.81 22.81 0 01-2.93-1 14.78 14.78 0 013 .62 56.19 56.19 0 0113.76 5.78 14.58 14.58 0 012.63 1.77zm12.16 77.6a12.27 12.27 0 01-1.66.2c-1.07.1-2.63.17-4.56.19s-4.22-.07-6.76-.29a77.86 77.86 0 01-8.21-1.22 78.88 78.88 0 01-8-2.15c-2.42-.81-4.56-1.64-6.32-2.43s-3.16-1.47-4.11-2a10.85 10.85 0 01-1.44-.85 10.92 10.92 0 011.54.67c1 .46 2.38 1.1 4.15 1.83s3.92 1.53 6.33 2.31 5.11 1.49 8 2.1 5.62 1 8.14 1.25 4.81.38 6.72.4 3.48 0 4.55 0a9 9 0 011.63-.01zm2.15-24.65a3.36 3.36 0 01-.89.26c-.58.14-1.42.29-2.47.44a44.81 44.81 0 01-8.26.4 46.63 46.63 0 01-8.2-1.11c-1-.25-1.86-.47-2.42-.66a3.42 3.42 0 01-.86-.33c0-.08 1.29.24 3.35.63a56.51 56.51 0 0016.35.71c2.09-.21 3.38-.44 3.4-.34zm-4.35 44.67a3.86 3.86 0 01-.74.07l-2.11.1c-.92 0-2.05.07-3.36.07h-4.44c-3.3-.05-7.21-.27-11.55-.67s-9.09-1.05-14-1.95-9.6-2-13.81-3.17-7.93-2.37-11-3.49c-1.56-.52-2.94-1.08-4.17-1.55s-2.26-.89-3.11-1.26l-1.94-.84a4.37 4.37 0 01-.67-.33 6.18 6.18 0 01.71.23l2 .75c.86.34 1.9.75 3.14 1.18s2.61 1 4.18 1.48c3.1 1.07 6.85 2.22 11 3.36s8.85 2.21 13.78 3.13 9.66 1.53 14 2 8.23.68 11.52.79c1.64.08 3.13.08 4.43.1s2.43 0 3.35 0h2.12a4.76 4.76 0 01.67 0zm-.48 16.49a4 4 0 01-.92.5c-.61.3-1.51.68-2.65 1.1a43 43 0 01-18.59 2.43c-1.2-.12-2.17-.25-2.83-.38a4.34 4.34 0 01-1-.25c0-.09 1.48.12 3.88.26a50 50 0 0018.44-2.41c2.26-.74 3.63-1.33 3.67-1.25zm-2.19 13.02a5.87 5.87 0 01-1.16 1.64 19.68 19.68 0 01-8 5.43 5.79 5.79 0 01-1.95.49 29.27 29.27 0 0011.06-7.56z" fill="#fafafa"/><path d="M613.8 397.43c9.05 5.94 21.16 5.48 31.19 1.41s18.43-11.27 26.51-18.47c6.32-5.63 12.86-11.81 15-20 .38-1.45.43-3.35-.9-4.06s-3 .47-4.08 1.58c-10.5 10.43-22.48 19.24-34.41 28-4.66 3.43-9.37 6.88-14.63 9.28s-11.21 3.7-16.89 2.59m-13.5-40.24l12.7-8.86a3.52 3.52 0 001.19-1.14 1.24 1.24 0 00-.18-1.52 26.5 26.5 0 01-32.22-.22c-2.16-1.68-4.08-3.71-6.47-5s-5.52-1.82-7.8-.3l-1.26.68 1.7 1.14 3-1.82z" opacity=".3"/><path d="M648.56 316.19a14.66 14.66 0 01-17.3-12.67c-.33-2.78-.56-4.81-.56-4.81s-11.84.46-14.22-11-5.48-38.22-5.48-38.22a40.66 40.66 0 0141-2.77l2 1 6.37 52.28a14.67 14.67 0 01-11.81 16.19z" fill="#b78876"/><path d="M630.7 298.71a28.22 28.22 0 0014.09-7.33s-2 9-13.71 10.16z" fill="#aa6550"/><path d="M654.9 259.87c.18-.12 7.44-3.87 8.72 4s-6.92 7.55-7 7.33-1.72-11.33-1.72-11.33z" fill="#b78876"/><path d="M658.58 267.84s.16.08.41.15a1.44 1.44 0 001-.15c.78-.44 1.27-1.88 1.08-3.31a4.66 4.66 0 00-.71-1.91 1.59 1.59 0 00-1.2-.88.7.7 0 00-.75.5c-.07.24 0 .39 0 .41s-.19-.1-.18-.44a.9.9 0 01.23-.54 1.06 1.06 0 01.73-.33 2 2 0 011.64 1 4.86 4.86 0 01.83 2.13c.21 1.6-.37 3.22-1.45 3.73a1.49 1.49 0 01-1.3 0c-.28-.2-.35-.34-.33-.36z" fill="#aa6550"/><path d="M616.93 267.84a1.68 1.68 0 001.91 1.35 1.6 1.6 0 001.4-1.81 1.67 1.67 0 00-1.9-1.35 1.6 1.6 0 00-1.41 1.81zm-.65-2.61c.24.17 1.31-1 3.07-1.33s3.23.29 3.38 0-.2-.46-.85-.76a4.58 4.58 0 00-2.76-.3 4.46 4.46 0 00-2.39 1.32c-.46.57-.57.99-.45 1.07zm17.82-.73a1.66 1.66 0 001.9 1.34 1.59 1.59 0 001.4-1.8 1.66 1.66 0 00-1.9-1.35 1.59 1.59 0 00-1.4 1.81zm-.41-2.33c.25.18 1.31-1 3.07-1.32s3.24.29 3.38 0-.2-.46-.85-.76a4.57 4.57 0 00-5.15 1c-.46.59-.57 1.01-.45 1.08zm-3.85 14.34a12 12 0 00-3 0c-.46 0-.91 0-1-.26a2.29 2.29 0 010-1.39l.66-3.69c.9-5.25 1.46-9.53 1.25-9.56s-1.11 4.19-2 9.44c-.21 1.29-.42 2.52-.61 3.7a2.66 2.66 0 00.11 1.81 1.21 1.21 0 00.87.52 3.21 3.21 0 00.79-.05 11.8 11.8 0 002.93-.52zm5.43.21c-.29 0 .08 1.95-1.3 3.63s-3.45 1.87-3.42 2.14.53.28 1.4.14a4.87 4.87 0 002.87-1.68 4.19 4.19 0 001-3c-.12-.83-.42-1.27-.55-1.23zm-3.38-21.37c.26.44 2-.13 4.1-.28s3.91.08 4.1-.4c.08-.23-.3-.63-1.07-1a6.79 6.79 0 00-3.18-.46 6.65 6.65 0 00-3.06 1c-.7.47-1.01.92-.89 1.14zM615.93 260c.39.34 1.52-.31 3-.62s2.76-.25 3-.73c.08-.23-.19-.59-.8-.86a4.4 4.4 0 00-4.79 1.08c-.49.51-.58.95-.41 1.13z" fill="#263238"/><path d="M604 243.33a4.3 4.3 0 01.83-4.09 3.06 3.06 0 014-.47 3.57 3.57 0 012.19-4.84c1.85-.48 3.72.62 5.63.76a8.73 8.73 0 005.24-1.66c1.56-1 3-2.27 4.57-3.23a15 15 0 0120.46 5 6.62 6.62 0 017.42 1.27 10.84 10.84 0 013.11 7.21 23.92 23.92 0 01-.31 5.41c0 .15.07.29.1.44 1.11 6.34 1.84 13.9-.84 14.46-4.69 1-5.29-8.08-5.29-8.08-6.2-1.1-5.73-10.15-7.43-11.18s-5.3-3.49-16.17 5c-4.22 3.31-10.46 4.45-14 4.34h-.62a10.79 10.79 0 01-3.35-.71 6.22 6.22 0 01-3.11-2.33 3.45 3.45 0 010-3.73 7.46 7.46 0 01-2.43-3.57z" fill="#263238"/><path d="M84.73 358.77A52.74 52.74 0 01135 345a91.6 91.6 0 01-50.9 15.9m17.69-62.55c-2.09-14.83 3.67-31.5 14.77-42.28.36 14.69-5.84 31.22-14.77 42.28m-8.87 28a79.12 79.12 0 0136.35-34.74 50 50 0 01-36.49 34.9m-1.7 5.24c9 .25 18-.06 26.67-2.35s17-6.7 22.72-13.56a89.17 89.17 0 00-49.26 15M95.63 314c-4.55-17-12-28.81-25.44-38.36A35.41 35.41 0 0095.63 314m-33.8 29.33A25.19 25.19 0 0177.15 320c-.75 8.79-7.66 19-15.32 23.35M57.55 329a37.59 37.59 0 00-24.61-32.05C36 311.16 44.26 323 57.55 329M64 354.45c-3.16-4.51-8.31-7.32-13.64-8.72s-10.91-1.51-16.42-1.63a38.36 38.36 0 0029.64 12.34m6.82 34.32a42 42 0 00-51.34 24.32c18.65-3.54 37.05-11.82 51.34-24.32m20.46-12.62c-3.09 9.16-2.5 20.23 4.39 28.12a33.61 33.61 0 00-4.39-28.12m12.14-5.08A34.44 34.44 0 00122 401a2.16 2.16 0 001.68.28c.84-.35.91-1.49.81-2.39-1.35-11.73-10-23.08-21.52-25.84m7.89-1.18a28.25 28.25 0 0041.27.21c-13.12-1.44-28.25-2.4-41.27-.21" fill="#ff725e"/><path d="M112.82 267a2 2 0 01-.12.38c-.09.27-.23.64-.4 1.11l-1.58 4.25c-.7 1.83-1.52 4.1-2.46 6.73l-1.52 4.21-1.64 4.75c-2.32 6.64-4.9 14.62-7.69 23.49S91.8 330.63 89 341s-5.27 20.3-7.37 29.37-3.8 17.27-5.07 24.19c-.33 1.73-.64 3.37-.93 4.93s-.52 3-.75 4.42c-.5 2.74-.88 5.09-1.18 7.09s-.52 3.43-.69 4.48c-.08.49-.14.88-.19 1.17a1.76 1.76 0 01-.08.39 2 2 0 010-.4l.14-1.17.6-4.5c.24-1.95.62-4.33 1.07-7.09.22-1.38.46-2.86.71-4.42s.59-3.21.9-4.94c1.23-6.94 3-15.15 5-24.24s4.54-19 7.33-29.39 5.72-20.18 8.48-29.08 5.43-16.84 7.8-23.47q.87-2.49 1.67-4.73l1.56-4.2c1-2.63 1.81-4.88 2.54-6.71l1.67-4.22.45-1.09a3.76 3.76 0 01.16-.39z" fill="#263238"/><path d="M40.77 304.52s.08.07.23.21l.62.66c.55.61 1.38 1.46 2.38 2.61a92.64 92.64 0 017.72 10.3 69.23 69.23 0 018.08 17.28c2.16 6.88 3.5 14.69 4.84 22.86 2.67 16.36 5.94 31 8.31 41.61 1.19 5.27 2.16 9.55 2.84 12.54.32 1.46.58 2.61.76 3.42l.18.89a1.35 1.35 0 010 .31 1.61 1.61 0 01-.1-.3c-.06-.22-.14-.51-.23-.88-.2-.81-.49-1.94-.85-3.39-.72-3-1.74-7.25-3-12.51-2.46-10.58-5.79-25.23-8.46-41.6-1.33-8.18-2.66-16-4.79-22.82a69.62 69.62 0 00-7.93-17.22 100.07 100.07 0 00-7.57-10.36c-1-1.17-1.74-2.07-2.26-2.67l-.59-.69c-.12-.16-.19-.24-.18-.25zm74.01 66.79a1.53 1.53 0 01-.47.09l-1.36.15-1 .09-1.16.18c-.83.12-1.78.24-2.82.47l-1.63.33-1.74.44c-1.22.27-2.47.72-3.81 1.12a55.35 55.35 0 00-8.3 3.66 47.12 47.12 0 00-7.43 5.16 37.92 37.92 0 00-2.86 2.75 29.67 29.67 0 00-2.26 2.6 27 27 0 00-1.67 2.31 16.7 16.7 0 00-1.15 1.83l-.7 1.17a1.74 1.74 0 01-.27.4 2.32 2.32 0 01.18-.45l.67-1.21a16 16 0 011-1.88 24.29 24.29 0 011.63-2.37 28.14 28.14 0 012.24-2.68 36.43 36.43 0 012.86-2.81 44.72 44.72 0 017.5-5.26 53.94 53.94 0 018.41-3.66c1.35-.39 2.62-.83 3.85-1.09l1.76-.41 1.65-.3c1-.21 2-.3 2.84-.4l1.17-.14h1l1.37-.06a1.81 1.81 0 01.5-.03zm3.74-66.48a6.68 6.68 0 01-1 .91l-2.7 2.35c-2.29 2-5.48 4.64-9 7.58s-6.77 5.58-9.13 7.47l-2.8 2.22a6.39 6.39 0 01-1.07.76 6.68 6.68 0 011-.91l2.7-2.35c2.3-2 5.49-4.64 9-7.58s6.77-5.57 9.12-7.46l2.8-2.22a6.71 6.71 0 011.08-.77zm3.22 17.36c0 .13-6.85 2.28-15.38 4.8s-15.49 4.46-15.53 4.33 6.85-2.29 15.39-4.81 15.48-4.46 15.52-4.32zm-25.43-6.91a5.85 5.85 0 01-.71-1l-1.82-2.77c-1.54-2.33-3.73-5.51-6.31-8.89s-5.08-6.33-6.92-8.44c-.86-1-1.59-1.82-2.18-2.48a6.6 6.6 0 01-.76-.95 4.73 4.73 0 01.91.81c.56.55 1.34 1.36 2.3 2.39 1.91 2.05 4.45 5 7.05 8.37s4.74 6.62 6.21 9c.73 1.19 1.31 2.17 1.68 2.86a5.62 5.62 0 01.55 1.1zm-23.92 9.63a23.36 23.36 0 01-1.62 2.66c-1 1.61-2.42 3.86-3.87 6.4s-2.67 4.89-3.53 6.61a21 21 0 01-1.46 2.74 16.47 16.47 0 011.14-2.9c.79-1.75 2-4.14 3.41-6.69s2.91-4.79 4-6.36a15.42 15.42 0 011.93-2.46z" fill="#263238"/><path d="M64.2 354.93c0 .07-1.35-.58-3.5-1.54s-5.15-2.24-8.54-3.43-6.54-2.07-8.82-2.65-3.71-.9-3.7-1a4.6 4.6 0 011 .11c.65.1 1.59.27 2.75.52a77.33 77.33 0 018.9 2.53 76.36 76.36 0 018.53 3.58c1.06.52 1.91 1 2.48 1.3a3.79 3.79 0 01.9.58zm6.45 35.89a2.62 2.62 0 01-.43.14l-1.24.32-4.58 1.05a151.73 151.73 0 00-15 3.95 66.78 66.78 0 00-14 6.56c-1.67 1.06-3 2-3.85 2.68a14.54 14.54 0 01-1.38 1s.09-.12.3-.32.53-.5 1-.85a39.86 39.86 0 013.77-2.83 61.79 61.79 0 0114-6.73A124 124 0 0164.33 392l4.61-.91a10.28 10.28 0 011.71-.27zM94 399.66c-.14 0-1-4.81-1.84-10.79S90.64 378 90.78 378s1 4.81 1.83 10.79 1.47 10.85 1.39 10.87zm24.2-8.81a24 24 0 01-2.18-2.59c-1.32-1.63-3.13-3.88-5.18-6.33s-4-4.62-5.34-6.19a23.83 23.83 0 01-2.18-2.6 3.6 3.6 0 01.69.59c.43.41 1 1 1.75 1.77 1.45 1.51 3.4 3.66 5.46 6.11s3.84 4.74 5.08 6.43c.62.85 1.11 1.54 1.44 2a3.14 3.14 0 01.46.81zm-64.19 22.5v11.99h3l10.65 33.62h23.62l10.33-33.29 3.99-.33v-11.99H54.01z" fill="#263238"/><path d="M103.6 425.67c0 .14-10.43.25-23.29.25S57 425.81 57 425.67s10.43-.25 23.31-.25 23.29.11 23.29.25z" fill="#455a64"/><path d="M120.6 348.57a8.94 8.94 0 01-1.52.41l-4.14 1c-3.5.87-8.3 2.18-13.51 3.93s-9.82 3.61-13.13 5l-3.91 1.71a9.23 9.23 0 01-1.45.59 9 9 0 011.37-.77c.89-.47 2.21-1.1 3.85-1.86a139.25 139.25 0 0113.11-5.18 135.51 135.51 0 0113.58-3.79c1.77-.4 3.2-.68 4.19-.85a10.67 10.67 0 011.56-.19z" fill="#263238"/><path d="M95.76 444.34c0 .14-7.32.25-16.35.25s-16.34-.11-16.34-.25 7.31-.25 16.34-.25 16.35.11 16.35.25zm.92-2.78c0 .14-7.76.25-17.32.25S62 441.7 62 441.56s7.76-.25 17.33-.25 17.35.11 17.35.25z" fill="#fafafa"/></svg>