<svg version="1.2" baseProfile="tiny-ps" xmlns="http://www.w3.org/2000/svg" width="71" height="102"><style>.shp0{fill:#ff775e}.shp4{fill:#455a64}</style><g id="freepik--speech-bubble--inject-42"><g id="freepik--speech-bubble--inject-42"><g id="freepik--speech-bubble--inject-42"><path id="Layer" class="shp0" d="M62.33.71l-50.21 29c-.19.12-.36.27-.52.43-.15.16-.29.34-.4.53-.11.2-.2.4-.27.62-.06.21-.1.44-.11.66v64.2c.01.22.05.44.11.66a3.02 3.02 0 00.67 1.15c.16.16.33.3.52.42l4.64 2.6c.2.1.41.18.63.23.22.05.44.08.66.08.23 0 .45-.03.67-.08.22-.05.43-.13.63-.23l50.22-29c.19-.12.36-.27.51-.43.15-.16.29-.34.4-.54.11-.19.2-.4.26-.61.07-.22.11-.44.12-.66V5.52c-.01-.22-.05-.44-.11-.66-.07-.21-.16-.42-.27-.61-.11-.19-.25-.37-.4-.53-.16-.16-.33-.3-.52-.42L64.93.7c-.2-.1-.41-.18-.63-.23a3.051 3.051 0 00-1.34.01c-.22.05-.43.13-.63.23z"/><path id="Layer" class="shp0" d="M18.06 100.22V36c.01-.22.05-.44.11-.66.07-.21.16-.42.27-.61.11-.2.24-.38.4-.54.15-.16.32-.31.51-.43l50.22-29c.71-.41 1.29-.08 1.29.74v64.21c-.01.22-.05.44-.12.66-.06.21-.15.42-.26.61-.11.2-.25.38-.4.54-.15.16-.32.31-.51.43l-50.22 29c-.72.43-1.29.05-1.29-.73z"/><path id="Layer" d="M19.35 101c-.2.1-.41.17-.63.22-.22.05-.45.08-.67.08-.22 0-.45-.03-.67-.08a2.77 2.77 0 01-.63-.22l-4.63-2.6a3.003 3.003 0 01-.92-.95c-.11-.2-.2-.4-.26-.61-.07-.22-.11-.44-.12-.66V32c0-.12.02-.23.04-.35.02-.11.04-.23.08-.34.03-.11.07-.22.12-.32.05-.11.11-.21.17-.31l7.21 4.11c-.06.1-.11.19-.16.3-.04.1-.08.2-.11.31-.04.11-.06.22-.08.33-.02.11-.03.22-.03.33v64.2c0 .74.53 1.15 1.29.74z" opacity=".2" fill="#000"/><path id="Layer" d="M70.84 5.29c-.1-.65-.63-.88-1.27-.51l-50.22 29c-.1.06-.19.13-.27.2-.09.08-.17.16-.25.24-.08.09-.15.17-.21.27-.07.09-.13.19-.18.29l-7.21-4.11c.05-.09.11-.18.18-.27.06-.09.13-.17.21-.25.07-.07.15-.15.24-.21.08-.07.17-.13.26-.19l50.22-29c.2-.1.41-.18.63-.23.22-.05.44-.08.66-.08.23 0 .45.03.67.08.22.05.43.13.63.23l4.63 2.59c.17.11.33.23.47.37.14.15.27.3.38.47.11.17.2.34.27.53.08.19.13.38.16.58z" opacity=".4" fill="#fff"/><path id="Layer" class="shp0" d="M10.82 51.3L.42 61.88c-.12.12-.21.27-.27.43-.06.16-.08.33-.06.5.02.17.07.33.16.48.09.14.22.27.36.36.22.14 7.2 4.15 7.2 4.15l10.25-12.33-7.24-4.17z"/><path id="Layer" d="M10.82 51.3L.42 61.88c-.12.12-.21.27-.27.43-.06.16-.08.33-.06.5.02.17.07.33.16.48.09.14.22.27.36.36.22.14 7.2 4.15 7.2 4.15l10.25-12.33-7.24-4.17z" opacity=".102" fill="#000"/><path id="Layer" class="shp0" d="M18.06 55.47L7.65 66.05c-.17.17-.28.39-.31.63-.04.24 0 .49.11.7.11.22.29.39.5.5.22.11.46.15.7.11l9.43-1.36c.99 0 .99-11.16-.02-11.16z"/></g><g id="freepik--dead-emoji--inject-42"><path id="Layer" class="shp4" d="M36 53a1.225 1.225 0 01-.37-.07c-.06-.03-.12-.06-.17-.09l-.15-.12-7.46-7.18a1.005 1.005 0 01-.09-1.46c.2-.2.46-.32.74-.31.28 0 .54.12.73.33l7.47 7.18c.09.09.17.2.22.33.05.12.08.25.08.38s-.03.26-.08.38c-.05.13-.13.24-.22.33-.05.05-.1.09-.15.13-.05.03-.11.06-.17.09-.06.02-.12.04-.19.06-.06.01-.12.02-.19.02z"/><path id="Layer" class="shp4" d="M28.54 57.34c-.04 0-.07 0-.11-.01-.04 0-.07-.01-.11-.01l-.11-.03c-.03-.01-.07-.03-.1-.04-.12-.06-.22-.14-.31-.23a.9.9 0 01-.2-.34c-.04-.12-.06-.25-.06-.38.01-.13.04-.26.1-.38l7.46-15.8c.06-.12.13-.23.23-.31.1-.09.21-.16.34-.21.12-.04.25-.06.38-.05.13 0 .26.03.38.09s.23.13.31.23c.09.1.16.21.21.34.04.12.06.25.05.38 0 .13-.03.26-.09.38l-7.46 15.8c-.04.09-.09.16-.16.24a.91.91 0 01-.47.29c-.09.03-.19.04-.28.04zM60.38 39a1.225 1.225 0 01-.38-.07c-.06-.03-.11-.06-.17-.09l-.15-.12-7.46-7.18c-.09-.09-.17-.2-.22-.32-.05-.12-.07-.25-.07-.39 0-.13.02-.26.07-.38s.13-.23.22-.32.2-.17.33-.22c.12-.05.25-.08.38-.08s.26.03.38.08c.13.05.24.13.33.22l7.46 7.18c.14.14.24.32.28.51.05.2.03.4-.05.58a.969.969 0 01-.92.63l-.03-.03z"/><path id="Layer" class="shp4" d="M52.91 43.27c-.04 0-.07 0-.11-.01-.03 0-.07 0-.1-.01a1.64 1.64 0 01-.11-.03c-.03-.01-.07-.03-.1-.04-.12-.06-.23-.13-.32-.23a.984.984 0 01-.2-.34c-.04-.12-.06-.26-.06-.39.01-.13.04-.26.1-.38l7.46-15.79c.11-.25.31-.44.56-.53.26-.09.54-.08.78.03.24.12.43.32.52.58.09.25.07.53-.05.77l-7.46 15.8c-.04.09-.09.16-.16.24a.91.91 0 01-.47.29c-.09.03-.19.04-.28.04zm-24.7 31.97c-.09 0-.18-.01-.26-.03-.08-.03-.17-.06-.24-.1-.08-.05-.15-.1-.21-.16a.949.949 0 01-.28-.58c-.02-.13-.01-.26.02-.39a1.112 1.112 0 01.47-.6l32.5-18.77c.23-.13.5-.16.76-.1.26.07.47.24.61.47.13.23.16.5.1.76-.07.26-.24.47-.47.61l-32.5 18.76-.12.06c-.04.01-.08.03-.12.04-.04.01-.09.02-.13.02-.04.01-.09.01-.13.01z"/><path id="Layer" class="shp4" d="M50.86 75.77c-.14 0-.27-.01-.41-.03-.13-.01-.27-.04-.4-.07-.13-.04-.26-.08-.38-.13-.13-.05-.25-.11-.37-.18-.3-.21-.57-.45-.81-.73a4.65 4.65 0 01-.59-.92c-.15-.33-.26-.67-.33-1.03-.06-.36-.08-.73-.05-1.09v-9.07c0-.27.11-.52.29-.71.19-.18.44-.29.71-.29.27 0 .52.11.71.29.18.19.29.44.29.71v9.07c-.02.19-.02.37 0 .56.03.18.07.36.14.54.07.17.16.33.27.49.1.15.23.29.37.41.15.06.3.1.45.11.16.02.32.02.47 0 .16-.02.31-.06.45-.13.15-.06.29-.13.41-.23a8.612 8.612 0 002.54-2.82c.3-.56.55-1.16.72-1.77.17-.62.27-1.25.3-1.89v-9.07c0-.27.11-.52.29-.71.19-.18.44-.29.71-.29.27 0 .52.11.71.29.18.19.29.44.29.71v9.07c-.03.81-.15 1.62-.36 2.41-.22.78-.53 1.54-.93 2.25a10.163 10.163 0 01-3.27 3.55c-.17.11-.34.2-.52.28-.17.09-.36.16-.54.22-.19.06-.38.1-.58.14-.19.03-.38.05-.58.06z"/><path id="Layer" class="shp4" d="M52.58 69.93c-.13 0-.26-.03-.38-.08s-.23-.12-.33-.21c-.09-.1-.16-.21-.21-.33a.995.995 0 01-.08-.38v-8.76c0-.27.11-.52.29-.71.19-.18.44-.29.71-.29.27 0 .52.11.71.29.18.19.29.44.29.71v8.76c0 .13-.03.26-.08.38s-.12.23-.21.33c-.1.09-.21.16-.33.21-.12.05-.25.08-.38.08z"/></g></g></g></svg>